<svg xmlns="http://www.w3.org/2000/svg" width="32" height="32" viewBox="0 0 32 32">
  <g fill="none" fill-rule="evenodd">
    <rect width="32" height="32" fill="#FFF"/>
    <g transform="translate(1 11)">
      <path fill="#3A59A8" d="M23.5866989 6.0437983C23.601358 6.02372727 23.6275227 6.00438068 23.6269688 5.98580114 23.6248807 5.91578693 23.6456335 5.84858523 23.6598665 5.78082955 23.6740568 5.71341477 23.6828778 5.64523295 23.6979205 5.5778608 23.7296676 5.43578693 23.7441136 5.29077273 23.7828068 5.15010511 23.8104631 5.04940909 23.8010455 4.93690909 23.8647102 4.84618466 23.8592557 4.7225625 23.9028068 4.60665341 23.9261591 4.4881875 23.9499375 4.3675483 23.9657898 4.24528977 23.9959176 4.12597159 24.0089574 4.07419602 24.0355483 4.0206733 24.0404489 3.96761932 24.0450085 3.91865625 24.0324375 3.86602841 24.0709176 3.82699432 24.0784176 3.64895455 24.1345398 3.47896875 24.1653068 3.30501989 24.1861875 3.18672443 24.2082188 3.06834375 24.2396676 2.95230682 24.2546676 2.8969517 24.2767841 2.84270455 24.2876506 2.78641193 24.2986023 2.72948011 24.2992841 2.67126989 24.3064858 2.61386932 24.3130483 2.56153977 24.3345256 2.54048864 24.3876648 2.53656818 24.4888722 2.5291108 24.593446 2.53652557 24.6949517 2.53652557L25.0044972 2.53652557 25.6251222 2.53652557C25.6504347 2.64212216 25.5994688 2.73344318 25.5882188 2.82932386 25.579696 2.90232102 25.5586023 2.9738267 25.543858 3.04618466 25.5199091 3.16345739 25.493233 3.28009091 25.4653636 3.39646875 25.4502784 3.45928125 25.4438438 3.52367045 25.4284602 3.58707955 25.4067699 3.67644034 25.3893835 3.76733523 25.3709744 3.85742045 25.3534176 3.9435 25.3460881 4.02953693 25.3118693 4.11357102 25.2998097 4.14323011 25.2990852 4.17557386 25.2957614 4.20698011 25.2920966 4.2425625 25.2808466 4.27469318 25.2739432 4.30946591 25.2617557 4.37108523 25.2740284 4.43994886 25.2444545 4.49760511 25.2083182 4.56821591 25.2366136 4.64432386 25.1949375 4.71403977 25.1746108 4.74808807 25.180108 4.79274716 25.1749517 4.83054545 25.1689858 4.87396875 25.1514716 4.91394034 25.1463153 4.95804545 25.1412443 5.00125568 25.1305909 5.03986364 25.1210881 5.08196591 25.1109034 5.12696591 25.1143125 5.17465057 25.0988438 5.2185 25.0416989 5.38055966 25.0494119 5.55651136 24.9840852 5.7156733 24.9971676 5.84053125 24.9121108 5.94932386 24.9251506 6.07422443 24.8597813 6.23338636 24.872608 6.41112784 24.8073665 6.57033239 24.8206193 6.69523295 24.7351364 6.80394034 24.7484318 6.92888352 24.6831051 7.08804545 24.6956335 7.26574432 24.6306051 7.42494886 24.644071 7.54993466 24.5835597 7.6625625 24.564554 7.78234943 24.5528778 7.85602841 24.5424801 7.9300483 24.5262017 8.00296023 24.518233 8.03845739 24.5089858 8.07361364 24.4975227 8.10813068 24.4840568 8.1488267 24.4833324 8.17588636 24.4833324 8.21824432L23.1549375 8.21824432C22.9186875 7.6438125 22.7085597 7.05361364 22.4850085 6.46903977 22.2618835 5.88553125 22.0339858 5.3038125 21.8138438 4.68864205 21.7858466 4.80071591 21.7638153 4.88462216 21.7441278 4.96903977 21.7232045 5.05878409 21.7026222 5.14865625 21.6854915 5.23925284 21.6683182 5.32989205 21.655321 5.42155398 21.6291989 5.51023295 21.6104489 5.57376989 21.6115142 5.63871307 21.5981335 5.70276136 21.5924233 5.73024716 21.581429 5.75619886 21.5741847 5.78325852 21.5659176 5.81428125 21.5682188 5.84470739 21.5635313 5.87615625 21.5541989 5.93884091 21.5325085 5.99965057 21.5217273 6.06237784 21.5103494 6.12821591 21.4993977 6.19452273 21.4781761 6.25810227 21.4518835 6.3369375 21.4668835 6.42548864 21.4197955 6.49899716 21.435392 6.61213636 21.3711733 6.71419602 21.3601364 6.82435227 21.3541705 6.88358523 21.3589858 6.93774716 21.3395114 6.99553125 21.3196534 7.05433807 21.3031193 7.10990625 21.2933182 7.17144034 21.2738438 7.29323011 21.2407756 7.41233523 21.219554 7.53408239 21.1974375 7.66111364 21.1757898 7.78938068 21.127892 7.9097642 21.1418267 7.98276136 21.098233 8.04659659 21.0951222 8.11733523 21.0938438 8.14563068 21.0950369 8.18560227 21.0711733 8.20575852 21.047054 8.22617045 21.0032045 8.22126989 20.9743125 8.22144034 20.8368835 8.22237784 20.6994119 8.22186648 20.5619403 8.22178125 20.2964574 8.22165341 20.0309318 8.22165341 19.7654489 8.22165341 19.7764432 8.18415341 19.7729063 8.14546023 19.778446 8.1072358 19.7841136 8.06781818 19.8019261 8.03087216 19.8122813 7.99247727 19.8334602 7.9141108 19.8437301 7.83335795 19.8580057 7.75362784 19.8744972 7.66179545 19.8868551 7.56902557 19.9108892 7.47876989 19.9220114 7.4369233 19.9414858 7.39626989 19.9481761 7.35357102 19.9556761 7.30563068 19.9500511 7.25619886 19.9721676 7.21128409 20.0016136 7.15141193 19.9877216 7.0716392 20.0083466 7.00546023 20.0273949 6.9444375 20.0392841 6.881625 20.0593977 6.82085795 20.0785313 6.76298864 20.0809602 6.70281818 20.0912301 6.64311648 20.1048239 6.56364205 20.1191847 6.48425284 20.1380199 6.40584375 20.156983 6.32683807 20.1852358 6.251625 20.1943977 6.17061648 20.2032188 6.09220739 20.2264006 6.01665341 20.2433182 5.9397358 20.2610881 5.85894034 20.2768977 5.77771875 20.2936023 5.69671023 20.3187443 5.57470739 20.3430341 5.44963636 20.3640426 5.3256733 20.382196 5.21854261 20.4091705 5.11051705 20.4379347 5.00415341 20.4547244 4.94206534 20.4570256 4.8766108 20.475392 4.8135 20.4855341 4.77876989 20.4846818 4.74216477 20.4879205 4.70645455 20.4913295 4.66950852 20.501642 4.64551705 20.5180909 4.61330114 20.5463438 4.55777557 20.5068409 4.47919602 20.5643267 4.43773295 20.5537585 4.36993466 20.5884034 4.30874148 20.5934744 4.2441392 20.6012301 4.14553125 20.6372813 4.05233523 20.6550511 3.95555966 20.6638295 3.90778977 20.6677926 3.85972159 20.6784886 3.81220739 20.6899091 3.76136932 20.7041847 3.71121307 20.7129205 3.65982102 20.7222955 3.60489205 20.7184176 3.54105682 20.7462869 3.49780398 20.7739858 3.45484943 20.7654631 3.41602841 20.7724091 3.37503409 20.7793125 3.33438068 20.7926506 3.29492045 20.8010028 3.25448011 20.8143409 3.18966477 20.8240994 3.12416761 20.8373097 3.05930966 20.8500085 2.99705114 20.8737443 2.93671023 20.882267 2.87389773 20.889554 2.82003409 20.914483 2.76808807 20.9166563 2.71448011 20.9188295 2.6619375 20.9507472 2.61902557 20.9534744 2.56759091L22.3240142 2.56759091C22.3748523 2.70186648 22.4262017 2.84159659 22.4806193 2.98013352 22.5387443 3.12800284 22.5787159 3.28222159 22.6463438 3.42706534 22.6728068 3.48374148 22.6852926 3.54544602 22.7036165 3.60493466 22.7233466 3.66872727 22.7551364 3.7275767 22.7776364 3.7903892 22.7997528 3.85209375 22.8177358 3.915375 22.8425369 3.97609943 22.8685739 4.03984943 22.9009176 4.10142614 22.9178778 4.1685 22.9381193 4.24865625 22.9690994 4.32340057 22.999483 4.39993466 23.0699233 4.57712216 23.1237443 4.76078693 23.18775 4.94061648 23.2486023 5.111625 23.3151222 5.28063068 23.3768693 5.45138352 23.447821 5.64749148 23.5162585 5.84453693 23.5866989 6.0437983M3.63057528 4.28660795C3.61365767 4.30356818 3.59379972 4.31839773 3.57995028 4.33804261 3.55514915 4.37319886 3.53801847 4.41755966 3.51794744 4.45574148 3.47929688 4.52933523 3.44077415 4.6030142 3.40242187 4.67682102 3.36351563 4.75177841 3.32584517 4.82639489 3.29171165 4.9036108 3.26154119 4.97187784 3.21551847 5.02927841 3.17754972 5.09311364 3.09824574 5.22632386 3.0390554 5.37040057 2.95860085 5.50292898 2.87678267 5.63788636 2.80783381 5.77659375 2.73752131 5.91790057L3.81291903 5.91790057C3.79331676 5.85265909 3.77639915 5.79824148 3.77303267 5.72946307 3.76962358 5.65996023 3.76455256 5.59246023 3.75027699 5.52419318 3.73514915 5.45209091 3.73983665 5.37973295 3.73370028 5.3067358 3.72773438 5.23552841 3.70877131 5.16802841 3.7056179 5.09596875 3.70246449 5.02309943 3.68631392 4.95500284 3.67710938 4.88311364 3.66820312 4.81348295 3.66850142 4.74338352 3.66304688 4.67353977 3.6528196 4.54373864 3.61817472 4.41785795 3.63057528 4.28660795L3.63057528 4.28660795zM4.07516335 8.22167898C3.99747869 7.85059943 3.9865696 7.47427841 3.91391335 7.10230398 3.56861506 7.10230398 3.22331676 7.10226136 2.87806108 7.10264489 2.7078196 7.10281534 2.53762074 7.10290057 2.36737926 7.10221875 2.28931108 7.10187784 2.20668324 7.09326989 2.12912642 7.1026875 2.07108665 7.10976136 2.03183949 7.14406534 2.00644176 7.19562784 1.83777699 7.53815625 1.66425426 7.8782983 1.49333097 8.21750284L.0000213068182 8.21750284C.0975213068 8.02983239.200731534 7.84932102.312421875 7.66970455.425305398 7.48808523.528643466 7.30071307.634240057 7.114875.741328125 6.92648011.84803267 6.73778693.953330966 6.54836932 1.00510653 6.45534375 1.05560369 6.36155114 1.10989347 6.26993182 1.16111506 6.18342614 1.22073153 6.10203409 1.2659446 6.01203409 1.31064631 5.92309943 1.35330256 5.83471875 1.40397017 5.74885227 1.4593679 5.65497443 1.51629972 5.56194886 1.57272017 5.46866761 1.68279119 5.28670739 1.77888494 5.09792898 1.88379972 4.91311364 2.09933949 4.53355398 2.31551847 4.15437784 2.53199574 3.77541477 2.65399858 3.56183523 2.77472301 3.34740341 2.89911222 3.1351875 2.95919744 3.0327017 3.01962358 2.93034375 3.07732244 2.8264517 3.10595881 2.77480398 3.1325071 2.7220483 3.16105824 2.67035795 3.18705256 2.62322727 3.22301847 2.58317045 3.25416903 2.5395767L4.72071733 2.5395767C4.73567472 2.63170739 4.75536222 2.7239233 4.76431108 2.81677841 4.76848722 2.8598608 4.77181108 2.90315625 4.78046165 2.94564205 4.78983665 2.99140909 4.80470881 3.02963352 4.80615767 3.07663636 4.80735085 3.11443466 4.80713778 3.15248864 4.81497869 3.18964773 4.82388494 3.23183523 4.84293324 3.26511648 4.84259233 3.3092642 4.84237926 3.34348295 4.83828835 3.37757386 4.84676847 3.41123864 4.85614347 3.44852557 4.85950994 3.47933523 4.85891335 3.51794318 4.85840199 3.55224716 4.86394176 3.57717614 4.87480824 3.60939205 4.88733665 3.64650852 4.88644176 3.6842642 4.88810369 3.72278693 4.8896804 3.75964773 4.90122869 3.79177841 4.90796165 3.82761648 4.91588778 3.86976136 4.9140554 3.91292898 4.92070313 3.9552017 4.93301847 4.03309943 4.95087358 4.10869602 4.95948153 4.18748864 4.96804688 4.26572727 4.97652699 4.34481818 5.00120028 4.41994602 5.02387074 4.48906534 5.00431108 4.56146591 5.01926847 4.63280114 5.02536222 4.66190625 5.04368608 4.68726136 5.04675426 4.71670739 5.0499929 4.74696307 5.0393821 4.77717614 5.0453054 4.80743182 5.05191051 4.84101136 5.07760653 4.85277273 5.0740696 4.88878125 5.0696804 4.93352557 5.06921165 4.97183523 5.07973722 5.0161108 5.08996449 5.05910795 5.10394176 5.09959091 5.10658381 5.14403693 5.10914063 5.1870767 5.10824574 5.23007386 5.12465199 5.27085511 5.15247869 5.34023011 5.13922585 5.4208125 5.1556321 5.49304261 5.17195313 5.56471875 5.17753551 5.63635227 5.1821804 5.7095625 5.18678267 5.78243182 5.19837358 5.85193466 5.21269176 5.92339773 5.22321733 5.97589773 5.20191051 6.05094034 5.24669744 6.08997443 5.25641335 6.09849716 5.25027699 6.12794318 5.24772017 6.14720455 5.23740767 6.22403693 5.2756321 6.29264489 5.28240767 6.3673892 5.28534801 6.39977557 5.28368608 6.43246023 5.28939631 6.46463352 5.29540483 6.49838352 5.31023438 6.52898011 5.31496449 6.56315625 5.31982244 6.59809943 5.31909801 6.63359659 5.32233665 6.66866761 5.32617188 6.71013068 5.3384446 6.74959091 5.34496449 6.79058523 5.35647017 6.8629858 5.35681108 6.93653693 5.36350142 7.00940625 5.36963778 7.07694886 5.39652699 7.14227557 5.39610085 7.21007386 5.39588778 7.24608239 5.40159801 7.26231818 5.41847301 7.2927017 5.4312571 7.3157983 5.42524858 7.3414517 5.42669744 7.36859659 5.4284446 7.40089773 5.42460938 7.43341193 5.42789063 7.46562784 5.43134233 7.49963352 5.44932528 7.52281534 5.45746449 7.55443466 5.47127131 7.60804261 5.43952415 7.66753125 5.4837571 7.71321307 5.46931108 7.79375284 5.49632813 7.8720767 5.50864347 7.95086932 5.51414063 7.98615341 5.51196733 8.02109659 5.51567472 8.05633807 5.51916903 8.089875 5.54533381 8.11591193 5.5475071 8.14778693 5.55232244 8.21933523 5.45976563 8.22167898 5.41233665 8.22167898L5.14225142 8.22167898 4.07516335 8.22167898zM11.6963267 2.53653835C11.6050057 2.96024574 11.5159006 3.37393892 11.4249205 3.79611222L8.64553125 3.79611222C8.62273295 3.87588494 8.59648295 3.95118324 8.58280398 4.03321449 8.57048864 4.10697869 8.53043182 4.17848437 8.5472642 4.25489062 8.49766193 4.31322869 8.51551705 4.39900994 8.4919517 4.46753267 8.4644233 4.54760369 8.4613125 4.63057244 8.44767614 4.71354119L10.7941534 4.71354119C10.7286989 5.1266804 10.6355028 5.52119744 10.5501903 5.92087074L8.19753409 5.92087074C8.17626989 6.00741903 8.1544517 6.09132528 8.13514773 6.17578551 8.05891193 6.50902415 7.98646875 6.8423054 7.92591477 7.17874006 7.89199432 7.2051179 7.89408239 7.24466335 7.89386932 7.28344176 7.89374148 7.30385369 7.8934858 7.32469176 7.88585795 7.34403835 7.8788267 7.36193608 7.86625568 7.37629687 7.860375 7.39491903 7.84716477 7.43663778 7.85270455 7.48210653 7.845375 7.52493324 7.83719318 7.57274574 7.82091477 7.61885369 7.81307386 7.66704972 7.80540341 7.71430824 7.79952273 7.76207812 7.78609943 7.80810085 7.77237784 7.85523153 7.74949432 7.89277415 7.74749148 7.94267472 7.74651136 7.96658097 7.74719318 7.99065767 7.73918182 8.01358381 7.73198011 8.03412358 7.71821591 8.05121165 7.71135511 8.07196449 7.69592898 8.11858381 7.69865625 8.1695071 7.69000568 8.21744744L6.34972159 8.21744744C6.30105682 8.12437926 6.37682386 8.03625426 6.36744886 7.94305824 6.39655398 7.92430824 6.39578693 7.89426562 6.39646875 7.86332812 6.39740625 7.81977699 6.41590057 7.78163778 6.42416761 7.73945028 6.44198011 7.64868324 6.45642614 7.55859801 6.48075852 7.46906676 6.50581534 7.37693608 6.52055966 7.28246165 6.54203693 7.18943608 6.56240625 7.10109801 6.56700852 7.01097017 6.58605682 6.92267472 6.60421023 6.83847017 6.63071591 6.75690767 6.64145455 6.67116903 6.65283239 6.58082812 6.67746307 6.49440767 6.69842898 6.40602699 6.71939489 6.31781676 6.73107102 6.22785937 6.7485 6.13896733 6.75651136 6.09835653 6.76558807 6.05791619 6.7772642 6.01815767 6.78975 5.97571449 6.80930966 5.93561506 6.81395455 5.89129687 6.81885511 5.84437926 6.82055966 5.80427983 6.83722159 5.75974858 6.85307386 5.71743324 6.8535 5.67337074 6.85797443 5.62896733 6.86249148 5.58409517 6.87766193 5.54195028 6.8844375 5.49741903 6.89091477 5.45472017 6.89675284 5.41070028 6.92713636 5.37746165 6.92581534 5.30092756 6.9428608 5.22597017 6.96092898 5.15203551 6.97797443 5.08210653 6.99011932 5.0141804 6.9988125 4.94267472 7.00810227 4.86665199 7.0403608 4.79625426 7.05395455 4.72065767 7.06707955 4.64770312 7.07948011 4.57440767 7.09055966 4.50111222 7.1016392 4.42751847 7.11617045 4.35839915 7.14152557 4.28851278 7.16483523 4.22433665 7.1525625 4.15402415 7.18448011 4.09253267 7.21588636 4.03197869 7.21541761 3.97568608 7.21997727 3.90933665 7.22440909 3.84409517 7.27047443 3.78170881 7.25117045 3.7154446 7.2985142 3.66954972 7.25807386 3.59271733 7.3100625 3.54844176 7.30435227 3.44906676 7.33367045 3.35297301 7.35655398 3.25743324 7.3800767 3.15925142 7.38949432 3.05838494 7.41323011 2.96016051 7.42486364 2.91209233 7.44361364 2.86662358 7.45665341 2.81906676 7.4691392 2.7735554 7.47408239 2.72650994 7.47928125 2.67972017 7.4875483 2.60527415 7.48737784 2.54024574 7.5760142 2.53662358 7.70948011 2.53112642 7.84439489 2.53653835 7.97803125 2.53653835L8.38703693 2.53653835 9.18800284 2.53653835 10.8069375 2.53653835 11.6963267 2.53653835zM13.3232216 4.70558949C13.3262045 4.70857244 13.3296563 4.71509233 13.3331506 4.71509233 14.1084631 4.71551847 14.8837756 4.71551847 15.6640739 4.71551847 15.6913892 4.76882812 15.6758778 4.82456676 15.6591733 4.87830256 15.6415313 4.93489347 15.635608 4.99199574 15.62325 5.04977983 15.6102102 5.11075994 15.5975966 5.17220881 15.5834489 5.23293324 15.5681932 5.29864347 15.542625 5.36158381 15.5295852 5.4278054 15.5133068 5.51047585 15.5163324 5.59821733 15.491233 5.67747869 15.4661335 5.7568679 15.464429 5.84098722 15.4272273 5.92404119L13.490054 5.92404119C13.3995852 5.92404119 13.3091165 5.92416903 13.2186477 5.92404119 13.1755653 5.92399858 13.045892 5.90533381 13.0567159 5.98382812 13.0631506 6.03040483 13.0309773 6.06897017 13.0240313 6.11328835 13.0165739 6.16110085 13.023392 6.21002131 13.0122273 6.25766335 13.0022557 6.30014915 12.973321 6.32950994 12.9711477 6.37459517 12.9691023 6.41818892 12.9784347 6.46544744 12.9388466 6.49591619 12.9497983 6.62047585 12.892483 6.73327415 12.8716449 6.85225142 12.8530227 6.95848722 12.8151818 7.06651278 12.7992017 7.17266335 12.7810909 7.29274858 12.7455085 7.40852983 12.7246278 7.52746449 12.7059631 7.63399858 12.6780085 7.74274858 12.654017 7.8490696 12.6267017 7.97013494 12.5836193 8.08945312 12.5786335 8.21835937L11.2022557 8.21835937C11.5982216 6.32652699 11.9938892 4.43627131 12.3906648 2.54060369L16.5546563 2.54060369C16.5783068 2.62779119 16.5300256 2.71071733 16.5174972 2.79547585 16.5001534 2.9131321 16.4657216 3.0287429 16.4416875 3.14597301 16.4194006 3.25455256 16.3991165 3.36360085 16.3747415 3.47171165 16.3644716 3.51730824 16.3505795 3.56200994 16.3399261 3.60747869 16.3291449 3.65362926 16.3303807 3.70178267 16.3196847 3.74737926 16.3022983 3.82152699 16.2076534 3.80337358 16.1499972 3.80316051 15.9343295 3.80235085 15.7186619 3.80316051 15.5029517 3.80316051L14.2259489 3.80316051 13.5116165 3.80316051C13.4475682 4.10989347 13.3854375 4.40754972 13.3232216 4.70558949M17.502081 4.89306392C17.5332741 4.89728267 17.5548366 4.88496733 17.5783168 4.86272301 17.7008736 4.74638778 17.8189134 4.62349006 17.9523793 4.52087642 18.0983736 4.4086321 18.2250213 4.27431392 18.3802628 4.17187074 18.510277 4.08604687 18.6199645 3.97009517 18.7437145 3.87391619 18.9090128 3.74547869 19.0791264 3.62326278 19.2726349 3.47944176 19.2584446 3.56739631 19.263473 3.63255256 19.236669 3.67947017 19.197294 3.74820597 19.2337287 3.83138778 19.1811009 3.89253835 19.1837003 4.01087642 19.1474787 4.12388778 19.1181179 4.23510937 19.090206 4.34091903 19.0858594 4.45184233 19.0391548 4.55522301 19.0163565 4.60567756 19.0186151 4.67296449 19.0077486 4.73262358 18.9845241 4.85995312 18.9644531 4.98685653 18.9217543 5.10992472 18.9021946 5.16630256 18.9080753 5.22766619 18.8912429 5.28809233 18.8556179 5.41597585 18.8554474 5.55327699 18.7981747 5.6770696 18.8007741 5.85199858 18.7350639 6.01525142 18.7040412 6.18408665 18.6753196 6.34035085 18.6250781 6.49678551 18.5990838 6.65275142 18.5707884 6.82252415 18.5307315 6.99046449 18.4971094 7.1583196 18.4659162 7.3142429 18.4570526 7.47868892 18.3857599 7.62604687 18.3906179 7.79667187 18.3058168 7.95097585 18.2958026 8.11929972 18.2937571 8.15398722 18.2710866 8.18748153 18.2593679 8.21773722L16.821669 8.21773722C16.8330469 8.14150142 16.8419531 8.06492472 16.8558878 7.98911506 16.8697372 7.91390199 16.8983736 7.84243892 16.9119247 7.76718324 16.9356605 7.63563494 16.9675781 7.50579119 16.9944673 7.37569176 17.019652 7.25373153 17.0437287 7.12866051 17.0649077 7.0048679 17.0809304 6.91128835 17.0882599 6.81523722 17.121456 6.72562074 17.1356889 6.68726847 17.149581 6.65888778 17.1498793 6.61729687 17.1501776 6.5783054 17.1482599 6.53807812 17.1780469 6.50816335 17.1867827 6.33037926 17.2364276 6.15843324 17.273331 5.98687074 17.3068679 5.83116051 17.3425355 5.67327699 17.3776918 5.51748153 17.3987429 5.42420028 17.4203906 5.33091903 17.4349645 5.23635937 17.4416122 5.19297869 17.4437855 5.14857528 17.4534162 5.10574858 17.4626634 5.06479687 17.4766406 5.02401562 17.4726349 4.9814446 17.4824361 4.95195597 17.4922798 4.92250994 17.502081 4.89306392"/>
      <path fill="#ED363B" d="M19.4462259 2.53653835C19.622902 2.45591335 19.7723054 2.3307571 19.9390952 2.23385369 19.9986264 2.19929403 20.0569645 2.15749006 20.1164957 2.12795881 20.3452884 2.01447869 20.5557571 1.86869744 20.7896634 1.76365483 21.0217372 1.65942187 21.238598 1.52067187 21.4721634 1.4204446 21.7594219 1.29716335 22.0429304 1.16454972 22.3388395 1.05989062 22.5268509.993370739 22.7141804.92365483 22.9017656.85521733 23.0853026.788228693 23.269223.721069602 23.456169.666566761 23.6183139.619223011 23.7799048.568044034 23.9457997.531524148 24.1196634.493299716 24.289223.436026989 24.4624048.39396733 24.5793366.365544034 24.7025327.35974858 24.8168651.324336648 24.9361832.287433239 25.0615099.28722017 25.1805298.244052557 25.2418935.221808239 25.3181293.22628267 25.3878452.21175142 25.4799332.192575284 25.578669.20131108 25.668669.176552557 25.7489531.154478693 25.8366094.173867898 25.9051747.14472017 25.9838821.11131108 26.0629304.14659517 26.1294503.117447443 26.2056009.0840809659 26.2796634.0995497159 26.3543224.0910269886 26.4144077.0841661932 26.4735554.0682713068 26.5336832.0632002841 26.5921491.0583423295 26.6568793.0776889205 26.7092514.0591946023 26.8520497.00869744318 26.9990241.0571491477 27.139223.0300894886 27.3707429-.0146548295 27.6026463.00899573864 27.834294.00430823864 28.0697344-.000464488636 28.3055582-.00259517045 28.5409134.00503267045 28.7429446.0115951705 28.9439531.0456434659 29.1470923.0327315341 29.2477031.0776889205 29.3573906.0442798295 29.4579588.0660553977 29.5627457.0887258523 29.6661264.0858707386 29.7703594.0933707386 29.8242656.0972485795 29.8768509.119194602 29.9581151.140288352 29.9055298.145487216 29.8800469.150089489 29.8544787.150174716 29.6925043.150856534 29.5301889.157759943 29.3687259.148981534 29.0671918.13253267 28.7688963.190359375 28.4680014.180004261 28.3371776.223598011 28.1994929.192703125 28.0687969.214308239 27.9787543.229180398 27.8867088.222106534 27.8014815.24315767 27.711098.265444602 27.6209276.25534517 27.5333565.271026989 27.3946491.295955966 27.2552599.311296875 27.1161264.330856534 26.986794.349009943 26.8553736.362007102 26.728598.389833807 26.5695213.424819602 26.4066094.439649148 26.2501321.478640625 26.0591378.526240057 25.8592372.540004261 25.6768082.621353693 25.5350753.619947443 25.406723.680288352 25.2715099.708200284 25.1183991.739734375 24.9707855.788825284 24.8202741.828455966 24.6789673.865742898 24.5366804.900856534 24.3982287.94709233 24.1308707 1.0363679 23.8595497 1.11635369 23.5968793 1.21641051 23.3899048 1.29524574 23.1817372 1.37437926 22.9768082 1.46062926 22.7763111 1.54504687 22.5726605 1.62320028 22.3757855 1.71550142 22.0631719 1.86204972 21.7545639 2.01724858 21.4461264 2.17253267 21.2509134 2.2707571 21.0560838 2.3704304 20.8665384 2.47896733 20.6435838 2.6066804 20.4228878 2.73822869 20.205473 2.87599858 19.9438679 3.0416804 19.6845639 3.20983381 19.4326321 3.38966335 19.3660696 3.3882571 19.3523906 3.46939347 19.2834844 3.48635369 19.2780298 3.4663679 19.2650753 3.44531676 19.2709134 3.43602699 19.3078168 3.3770071 19.291794 3.30822869 19.3101179 3.24592756 19.3295071 3.17991903 19.3455298 3.11250426 19.3569077 3.04462074 19.3676889 2.98018892 19.3814531 2.91477699 19.3945355 2.85239062 19.4050611 2.80214915 19.3956009 2.74108381 19.4207855 2.70383949 19.4530866 2.65611222 19.4401321 2.61183665 19.4462259 2.56598437L19.4462259 2.53653835zM17.502081 4.89306392C17.4922798 4.92250994 17.4824361 4.95195597 17.4726349 4.9814446 17.1620668 5.20418608 16.9243679 5.5039304 16.6475497 5.76229687 16.5738707 5.89064915 16.4525071 5.97570597 16.3563707 6.08360369 16.305831 6.14032244 16.2595099 6.20074858 16.2100355 6.25836222 16.1637571 6.31239631 16.1127912 6.36054972 16.0714134 6.42093324 16.0153764 6.50275142 15.938544 6.57033665 15.8746236 6.6486179 15.7224503 6.83500994 15.5771804 7.02689915 15.4250923 7.21265199 15.2815696 7.38787926 15.1436293 7.56792187 15.017706 7.75371733 14.8706463 7.97079119 14.6926491 8.16915767 14.5858594 8.41290767 14.4633026 8.54790767 14.390348 8.71601847 14.2856463 8.86324858 14.230419 8.94089062 14.1927486 9.03084801 14.1436151 9.11309233 14.0288139 9.3051946 13.9264986 9.50428551 13.8163423 9.69860369 13.6767827 9.94482528 13.5540128 10.1985469 13.4313281 10.4526946 13.3366832 10.6487599 13.2461719 10.8470838 13.1618821 11.0478366 13.1322656 11.1183196 13.0876065 11.184669 13.0816406 11.2655497 13.0803622 11.2828509 13.0544957 11.2984048 13.0282457 11.3278935 13.0144389 11.2056349 13.0518111 11.1054503 13.0884162 11.0167713 13.1461151 10.8769134 13.1756889 10.7295128 13.2301918 10.5896122 13.2961151 10.4205213 13.3569247 10.2494276 13.4204616 10.0793991 13.4712997 9.94346165 13.5269957 9.80884517 13.5778338 9.67367472 13.6129901 9.58005256 13.6621662 9.49273722 13.694723 9.39762358 13.7430043 9.25665767 13.8162145 9.1242571 13.8789418 8.98827699 13.9550071 8.82327699 14.0194389 8.65273722 14.1145099 8.49681392 14.219169 8.32516619 14.3081037 8.14414347 14.402919 7.96763778 14.5088991 7.77037926 14.6320952 7.58360369 14.7371378 7.38579119 14.8362997 7.1989304 14.9663565 7.02817756 15.0865696 6.85286506 15.2441548 6.62309233 15.4022088 6.39349006 15.5662713 6.1683196 15.6527344 6.04972585 15.7587997 5.94527983 15.8445384 5.82621733 15.961044 5.66445597 16.1114276 5.53107528 16.2210298 5.3642429 16.2236719 5.3601946 16.2280185 5.35733949 16.2312997 5.35375994 16.3423935 5.23290767 16.453402 5.11197017 16.5645384 4.9911179 16.6723509 4.8739304 16.7835724 4.75976847 16.8914276 4.64270881 17.0987003 4.41787926 17.3294531 4.21452699 17.5526634 4.0045696 17.5962145 3.96357528 17.6497798 3.93323437 17.7004474 3.8967571 17.7407173 3.97052131 17.6552344 4.03704119 17.6787997 4.11208381 17.6180327 4.16522301 17.6781179 4.25462642 17.6199077 4.30857528 17.611044 4.49117472 17.5348082 4.66260937 17.5302912 4.84618892 17.5299077 4.86204119 17.5118821 4.87746733 17.502081 4.89306392"/>
      <path fill="#3A59A8" d="M19.4462259,2.53653835 L19.4462259,2.56598437 C19.2349048,2.71125426 19.0212827,2.85371165 18.8125611,3.00268892 C18.6077173,3.14889631 18.417831,3.31496165 18.2135838,3.46206392 C18.1324901,3.52048722 18.0615384,3.5929304 17.9854304,3.65838494 C17.9059986,3.7266946 17.826098,3.7944929 17.745473,3.86139631 C17.7407855,3.86527415 17.7276605,3.85909517 17.7141094,3.85687926 C17.8033849,3.42008949 17.8926179,2.98347017 17.9839815,2.53653835 L19.4462259,2.53653835 Z"/>
      <path fill="#FEFEFE" d="M3.63057528,4.28660795 C3.61600142,4.44074148 3.65763494,4.56444886 3.6643679,4.69352557 C3.66892756,4.78109659 3.67016335,4.87484659 3.69095881,4.96024432 C3.71294744,5.05041477 3.69816051,5.1430142 3.72074574,5.2273892 C3.74763494,5.32774432 3.72675426,5.42959091 3.75027699,5.52419318 C3.77277699,5.61474716 3.76983665,5.70295739 3.77674006,5.79253125 C3.77976563,5.8320767 3.79864347,5.87038636 3.81291903,5.91790057 L2.73752131,5.91790057 C2.75009233,5.89263068 2.75912642,5.87400852 2.76854403,5.85559943 C2.82049006,5.75451989 2.86361506,5.64755966 2.92638494,5.55368182 C3.04629972,5.37432102 3.11571733,5.16743182 3.24351563,4.99254545 C3.28297585,4.93851136 3.30253551,4.87024432 3.33368608,4.80977557 C3.41486506,4.6520625 3.4971946,4.49490341 3.57995028,4.33804261 C3.58651278,4.32559943 3.60023438,4.31694886 3.63057528,4.28660795"/>
    </g>
  </g>
</svg>
