<svg xmlns="http://www.w3.org/2000/svg" width="32" height="32" viewBox="0 0 32 32">
  <g fill="none" fill-rule="evenodd">
    <rect width="32" height="32" fill="#ED1C24"/>
    <path fill="#FFF" fill-rule="nonzero" d="M18.3830348,0.00227655248 C22.5902303,0.00227655248 26,3.41331102 26,7.62113886 C26,11.8270696 22.5902303,15.2374717 18.3830348,15.2374717 C18.1562227,15.2374717 17.9302538,15.2273537 17.7070018,15.2076797 L17.3743956,15.1710722 L17.3687042,10.4333136 L17.6117637,10.5096334 C17.8587163,10.5757957 18.1169627,10.6110111 18.3830348,10.6110111 C20.0360649,10.6110111 21.3741718,9.27037466 21.3741718,7.62113886 C21.3741718,6.03759109 20.1452507,4.74268878 18.5879493,4.63752947 L18.3830348,4.63063422 C17.3648196,4.63063422 16.4649264,5.13881907 15.9248677,5.91823317 L15.8067363,6.10280483 C15.494975,4.43080351 14.6905932,2.92827887 13.5434637,1.7621781 L13.5346104,1.74510395 C14.8524813,0.656785391 16.5434539,0.00227655248 18.3830348,0.00227655248 Z M7.6163328,0 C11.7285282,0 15.0791326,3.25654143 15.2293087,7.33255776 L15.2345627,7.61822993 L15.238357,15.202944 L10.6074698,15.202944 L10.6074698,7.58661115 C10.6074698,6.00427543 9.37738712,4.70942362 7.82110213,4.60426642 L7.6163328,4.59737126 L7.41156989,4.60426642 C5.85538169,4.70942362 4.62646054,6.00427543 4.62646054,7.58661115 C4.62646054,9.16955289 5.85538169,10.4638492 7.41156989,10.568959 L7.6163328,10.575851 L7.86161428,10.5659901 C8.58943546,10.5072033 9.2417507,10.1889948 9.72954611,9.70349566 L9.88592915,9.53559302 L9.8821349,14.8918151 C9.16628562,15.1156761 8.40490529,15.2351951 7.6163328,15.2351951 C3.41040209,15.2351951 0,11.8254254 0,7.61822993 C0,3.40976972 3.41040209,0 7.6163328,0 Z" transform="translate(3 8)"/>
  </g>
</svg>
