<svg width="1000" height="998" xmlns="http://www.w3.org/2000/svg"><path fill="#016FD0" d="M0 0h997.5v538.5l-49.4 77.1 49.4 68.7v313.2H0V490l30.9-35.5-30.9-34z"/><path d="M193.6 695.1V538.5h165.9l17.8 23.2 18.3-23.2h602v145.8s-15.8 10.6-34 10.8H630.3l-20-24.7v24.7h-65.8V653s-9 5.8-28.4 5.8h-22.4v36.3h-99.5l-17.7-23.7-18 23.7H193.5zM0 420.5l37.4-87.2H102l21.2 48.8v-48.8h80.4l12.6 35.3 12.2-35.3h361V351s18.9-17.7 50-17.7l117.1.4 20.9 48.2v-48.6h67.3l18.5 27.7v-27.7h67.9v156.6h-68L845.6 462V490h-98.8l-10-24.7h-26.5l-9.8 24.7h-67c-26.8 0-44-17.4-44-17.4v17.4h-101l-20.1-24.7v24.7H92.5l-10-24.7H56.1l-9.9 24.7H0v-69.4z" fill="#FFF"/><path d="M50.6 352.6L.2 469.8H33l9.3-23.4h54.1l9.3 23.4h33.6L88.9 352.6H50.6zm18.7 27.3l16.5 41h-33l16.5-41zM142.7 469.8V352.6l46.7.1 27.1 75.6 26.5-75.7h46.3v117.2H260v-86.4l-31 86.4h-25.8L172 383.4v86.4zM309.4 469.8V352.6H405v26.2h-66v20h64.5v24.7H339v20.9h66v25.4zM422 352.6v117.2h29.3v-41.6h12.4l35.1 41.6h35.8l-38.5-43.2a35.7 35.7 0 0 0 32.1-36c0-24.6-19.3-38-41-38H422zm29.3 26.2h33.5c8 0 14 6.3 14 12.4 0 7.7-7.7 12.3-13.5 12.3h-34v-24.7zM570.1 469.8h-30V352.6h30zM641.1 469.8h-6.5c-31.2 0-50.2-24.6-50.2-58.1 0-34.4 18.8-59.1 58.2-59.1H675v27.7h-33.5c-16 0-27.4 12.5-27.4 31.7 0 22.7 13 32.2 31.6 32.2h7.7l-12.3 25.6zM704.9 352.6l-50.4 117.2h32.8l9.3-23.4h54l9.4 23.4h33.5l-50.4-117.2H705zm18.6 27.3l16.5 41h-33l16.5-41zM797 469.8V352.6h37.2l47.6 73.6v-73.6h29.3v117.2h-36l-48.9-75.6v75.6zM213.7 675V557.8h95.7V584h-66v20h64.4v24.8h-64.5v20.8h66V675zM682.4 675V557.8h95.7V584h-66v20h64.2v24.8H712v20.8h66V675zM313 675l46.7-57.9-47.7-59.3h36.9l28.4 36.7 28.5-36.7h35.5l-47 58.6 46.6 58.6h-37l-27.5-36-27 36zM444.4 557.8v117.3h30v-37h31c26 0 45.8-14 45.8-40.9 0-22.3-15.5-39.4-42-39.4h-64.8zm30 26.5H507c8.4 0 14.4 5.2 14.4 13.5 0 7.8-6 13.5-14.5 13.5h-32.4v-27zM564 557.8V675h29.3v-41.6h12.3l35.2 41.6h35.8L638 631.8a35.7 35.7 0 0 0 32.2-36c0-24.7-19.4-38-41-38h-65.3zm29.3 26.2h33.5c8 0 13.9 6.3 13.9 12.4 0 7.7-7.6 12.3-13.5 12.3h-34V584zM791.7 675v-25.4h58.7c8.6 0 12.4-4.7 12.4-9.9 0-4.9-3.7-9.9-12.4-9.9h-26.6c-23 0-35.8-14-35.8-35 0-18.9 11.7-37 46-37h57l-12.3 26.4h-49.4c-9.4 0-12.3 5-12.3 9.6 0 4.9 3.6 10.3 10.8 10.3h27.8c25.7 0 36.8 14.5 36.8 33.6 0 20.5-12.4 37.3-38.2 37.3h-62.5zM899.3 675v-25.4H958c8.6 0 12.4-4.7 12.4-9.9 0-4.9-3.8-9.9-12.4-9.9h-26.6c-23 0-35.8-14-35.8-35 0-18.9 11.7-37 46-37h57l-12.3 26.4H937c-9.4 0-12.3 5-12.3 9.6 0 4.9 3.6 10.3 10.8 10.3h27.8c25.7 0 36.8 14.5 36.8 33.6 0 20.5-12.4 37.3-38.2 37.3h-62.5z" fill="#016FD0"/></svg>
