<svg width="32" height="32" viewBox="0 0 32 32" xmlns="http://www.w3.org/2000/svg"><g fill="none" fill-rule="evenodd"><path fill="#007DBA" d="M0 0h32v32H0z"/><path d="M16.002 11.023c-.973 0-2.074.84-2.076 2.002 0 .654.21 1.159.515 1.62.198.295.35.633.41.878.063.277.211.947-.608.958-.532.014-1.843-.45-2.904-1.728a5.993 5.993 0 01-1.3-3.746C10.04 7.69 12.708 5 16.002 5c3.293 0 5.956 2.69 5.956 6.007 0 1.419-.484 2.72-1.3 3.746-1.059 1.278-2.37 1.742-2.903 1.728-.82-.011-.673-.681-.607-.958.062-.245.212-.583.409-.878.307-.461.515-.966.515-1.62 0-1.161-1.102-2.002-2.07-2.002zm10.536 6.071c.395.328.676.911.246 1.518-.438.61-4.476 5.391-5.542 6.626-.16.181-.487.422-.904.335-.53-.113-1.134-.742-1.363-1.193a3.89 3.89 0 01-.4-1.07c-.385-1.68.016-3.29.79-4.358.733-1.01 1.795-1.786 2.657-2.127.655-.26 1.744-.546 2.965-.364.879.136 1.307.43 1.551.633zM9.98 16.825c.86.341 1.924 1.117 2.658 2.127.767 1.067 1.174 2.679.79 4.358a3.913 3.913 0 01-.404 1.07c-.228.45-.83 1.08-1.362 1.193-.419.087-.745-.154-.905-.335-1.066-1.235-5.104-6.016-5.54-6.626-.431-.607-.148-1.19.247-1.518.24-.202.673-.497 1.552-.633 1.22-.182 2.309.104 2.964.364z" fill="#FFF"/></g></svg>