<svg xmlns="http://www.w3.org/2000/svg" viewBox="0 0 32 32"><g fill="none" fill-rule="evenodd"><path fill="#FFF" d="M0 0h32v32H0z"/><path fill="#ED1C23" d="M-.1 31.9l.1-3.87c.77-.17 1.53-.35 2.27-.58 5.48-1.73 9.78-5.12 13.26-9.61.44-.57.84-.77 1.55-.7 5.98.53 10.94 2.93 14.82 7.34l.1 7.42H-.1zm15.6-19.06a17.5 17.5 0 0 1-3.17-8.3c-.11-1.02-.1-2.53.04-4.54L31.9-.1v19.04c-.3-.25-.6-.5-.9-.72-3.71-2.75-7.9-4.3-12.46-4.86-.83-.1-1.66-.14-2.48-.24a.85.85 0 0 1-.55-.28zm-3.46 2.01c.23.35.24.56-.03.9-3.16 4.01-7.06 6.9-12.02 8.2L-.1 0h8.46L8.3.69c-.32 5.13.86 9.87 3.74 14.16z"/></g></svg>