<svg xmlns="http://www.w3.org/2000/svg" viewBox="0 0 32 32"><g fill="none" fill-rule="evenodd"><path fill="#213683" d="M-.101 31.9l32.001.101V-.101H0"/><path fill="#FFF" d="M28.1 15.23c.42 1.2.77 2.45 1.18 3.66.27.74.69 2.26 1.17 2.86h-3.28c0-.94-.37-1.8-.62-2.7-.21-.62-.36-1.26-.59-1.89l-.06-.24-.06-.2-.06-.15-.04-.16-.04-.1-.02-.06v-.02h-5.22l-.83 1.17.02.02.02.1.06.16.06.2.08.24.45 1.43c.34 1.1.35 1.16.93 2.2h-3.14c-.07-.67-.2-1.07-.4-1.7-.52.55-.9 1-1.2 1.7h-2.46c-.13-.73-.19-1.07-.45-1.79-.55.75-.76.9-1.17 1.8H10c1.07-1 1.95-2.27 2.84-3.43l-.61-2.1H7.05v.02l-.12.12-.08.12-.1.13-.12.16-.14.2-.15.18c-.45.63-.94 1.22-1.39 1.85-.67.87-1.45 1.77-1.96 2.74H1.45v-1l.06-.05h.02v-.02l.08-.08.04-.06c.14-.15.23-.32.37-.46l1.1-1.39c1.01-1.3 2.01-2.6 3-3.93 1.37-1.93 3.26-3.91 4.2-6.06h2.66c.06 1.42.47 2.15.83 3.5l.68 2.18.07.24.12.44.06.16.04.15.04.12.04.1.02.06v.02l.91-1.15c-.52-1.3-1.1-4.11-2.02-5.82h3.13c-.03.7.24 1.2.4 1.87.18.6.32 1.22.51 1.82.4-.53.84-1.06 1.25-1.6.45-.66 1.2-1.24 1.26-2.09h2.61c-1.52 1.43-2.99 3.65-4.35 5.3.15.47.27.96.42 1.43.83-1.08 1.67-2.17 2.49-3.27.77-1.07 1.82-2.25 2.33-3.46h2.56v.12l.01.3.06.31.04.24 1.6 5.56zM10.85 11.2c-.36.65-.88 1.35-1.35 1.93-.25.35-.53.67-.79 1.01l-.12.16-.1.14-.1.1-.06.08-.06.06v.02h3.49c-.19-.54-.37-1.14-.54-1.69l-.08-.28-.08-.24-.05-.2-.05-.15-.05-.4-.02-.34v-.22l-.02-.02-.02.04zm13.37 0c-.67 1.2-1.73 2.4-2.57 3.5h3.48l-.54-1.7-.07-.28-.08-.24-.06-.2-.04-.15-.06-.4v-.52l-.02-.04v-.02l-.04.04zm-8.13 8.17l.95-1.33c-.23-.58-.43-1.16-.61-1.75l-.94 1.2.6 1.88z"/></g></svg>