<svg width="33" height="32" viewBox="0 0 33 32" xmlns="http://www.w3.org/2000/svg"><g fill="none" fill-rule="evenodd"><path fill="#FAA634" d="M1 0h32v32H1z"/><path d="M13.12 20.887c.841.99 1.372 2.179 1.612 3.475.17 1.114.13 2.367-.658 3.11-.435.37-1.179.462-1.654.139-.896-.496-1.04-1.609-1.08-2.614.061-1.606.785-2.968 1.78-4.11zm7.55-.017l.043.017c1.066 1.406 1.767 3.046 1.614 4.994-.085.755-.42 1.652-1.192 1.851a1.523 1.523 0 01-1.514-.387c-.628-.738-.784-1.759-.688-2.81.2-1.39.857-2.612 1.736-3.665zM6.62 15.108l.476.308c.072.123.335.232.196.403-.785.91-2.033 1.111-3.109.754-.353-.121-.728-.34-.883-.741-.07-.274.04-.523.208-.71.87-.65 2.213-.435 3.113-.014zm23.705-.143c.167.108.293.264.383.464.052.172 0 .356-.06.492-.576.761-1.515.855-2.38.732-.62-.095-1.165-.405-1.599-.945.209-.358.571-.543.896-.71.823-.31 1.95-.482 2.76-.033zm-3.74-7.093c-.043.696-.27 1.329-.447 1.961-.732 2.07-1.954 3.942-3.422 5.611-2.225 2.475-3.919 5.322-4.398 8.597.113-2.814 1.067-5.275 2.647-7.436 1.751-2.133 3.727-4.234 4.933-6.709.295-.65.545-1.311.688-2.024zm-7.592-.015c-.1 1.16-.48 2.21-.913 3.23a16.974 16.974 0 01-2.173 3.49c-1.624 1.81-3.165 3.744-4.115 5.89A13.43 13.43 0 0010.75 24.1c.09-2.873 1.082-5.378 2.708-7.552 1.035-1.274 2.145-2.46 3.125-3.807 1.078-1.499 2.046-3.046 2.41-4.883zM9.707 3.54c.235.142.474.388.61.654.535.99.605 2.39.213 3.477-.422 1.19-1.123 2.257-1.936 3.261-.166-.215-.28-.528-.405-.789-.615-1.608-1.163-3.446-.798-5.284.153-.513.402-1.051.88-1.319.409-.229 1.01-.229 1.436 0zm6.343-.089a1.482 1.482 0 011.847.742c.605 1.147.56 2.795 0 3.94a11.858 11.858 0 01-1.721 2.785h-.043c-.77-1.546-1.292-3.202-1.292-5.085.043-.945.295-2.024 1.209-2.382zm7.44.044a1.547 1.547 0 012.07.818c.633 1.316.408 3.157-.32 4.331a12.63 12.63 0 01-1.51 2.274l-.031-.017c-.83-1.732-1.457-3.662-1.205-5.766.1-.648.392-1.345.996-1.64zm-3.883 1.64c-.535-1.1-1.54-1.963-2.632-2.105-1.262-.182-2.412.606-3 1.812-1.261 2.425-.32 5.44.621 7.714-.83.958-1.644 1.96-2.388 2.968l-.04.014a18.33 18.33 0 01-1.176-1.517c.924-1.682 1.669-3.445 1.721-5.518.016-2.148-.658-4.497-2.643-5.3a2.784 2.784 0 00-2.777.462c-1.485 1.3-1.725 3.51-1.36 5.504.363 1.763.91 3.449 2.034 4.852l.04-.015c1.514-1.855 2.902-3.833 3.417-6.167l.016.018c-.152 1.298-.56 2.471-1.093 3.57-.687 1.374-1.557 2.706-2.62 3.863-.91-.958-2.089-1.654-3.405-1.299-.547.172-1.119.666-1.261 1.299-.17.666.03 1.345.447 1.808.98 1.193 2.704 1.145 4.01.711.276-.107.561-.261.823-.368.227.664.196 1.496.016 2.178-.042.309-.238.572-.252.895.04.014.07-.028.11-.063.478-.943.717-2.117.508-3.258l.715-.698h.056l1.162 1.358.024.096-.389 1.05c-.896 2.396-1.205 5.936.618 7.96.84.944 2.059 1.58 3.248 1.114.967-.433 1.711-1.529 1.92-2.613.352-2.302-.475-4.404-1.328-6.32.767-.835 1.55-1.794 2.294-2.66.393.449.828.96 1.216 1.437-1.063 2.334-1.694 5.78-.376 8.192.675 1.269 1.881 2.196 3.252 2.106 1.123-.126 2.06-1.27 2.382-2.398.575-2.411-.323-4.68-1.22-6.676.771-.82 1.485-1.749 2.2-2.646l.07-.027.717.692c-.117.573-.1 1.286.01 1.859.112.536.265 1.078.59 1.496.027-.014.027-.047.027-.092-.322-.898-.6-2.027-.235-3.016.345.173.67.37 1.035.466 1.302.356 2.854.295 3.78-.837.412-.49.635-1.173.435-1.839-.126-.495-.543-.943-.962-1.127-1.349-.526-2.724.093-3.648 1.175l-.07.028c-.182-.214-.374-.416-.504-.662 1.162-1.963 2.116-4.035 2.132-6.507-.042-1.994-.784-4.145-2.59-4.887-1.1-.478-2.385-.136-3.182.742-1.963 2.365-1.053 6.123.03 8.611a46.41 46.41 0 00-2.355 2.938 14.62 14.62 0 01-1.22-1.502c1.469-2.487 2.396-6.025 1.05-8.87z" fill="#FFF" fill-rule="nonzero"/></g></svg>