<svg width="32" height="32" viewBox="0 0 32 32" xmlns="http://www.w3.org/2000/svg"><g fill="none" fill-rule="evenodd"><path fill="#40338A" d="M0 0h32v32H0z"/><g fill="#FFF" fill-rule="nonzero" stroke="#40338A" stroke-linejoin="round" stroke-width=".5"><path d="M7 11.36l4.56-4.64L7 2.08zM11.56 6.72l4.48 4.64V2.08z"/><path d="M7 2.08l4.56 4.64 4.48-4.64zM7 11.36h9.04l-4.48-4.64zM16.04 11.36l4.56-4.64 4.48 4.64zM16.04 2.08l4.56 4.64 4.48-4.64z"/><path d="M16.04 11.36l4.56-4.64-4.56-4.64zM20.6 6.72l4.48 4.64V2.08zM7 20.72l4.56-4.64L7 11.36zM16.04 11.36l-4.48 4.72 4.48 4.64z"/><path d="M7 11.36l4.56 4.72 4.48-4.72zM7 20.72h9.04l-4.48-4.64zM16.04 20.72l4.56-4.64 4.48 4.64zM7 20.72l4.56 4.64 4.48-4.64zM16.04 20.72l4.56 4.64 4.48-4.64zM16.04 11.36l4.56 4.72 4.48-4.72z"/><path d="M16.04 11.36l4.56 4.72-4.56 4.64zM11.56 25.36L16.04 30v-9.28zM16.04 30l4.56-4.64-4.56-4.64zM25.08 11.36l-4.48 4.72 4.48 4.64z"/></g></g></svg>