<svg width="32" height="32" viewBox="0 0 32 32" xmlns="http://www.w3.org/2000/svg"><g fill="none" fill-rule="evenodd"><path fill="#003E75" d="M0 0h32v32H0z"/><g fill-rule="nonzero"><path d="M8.921 7.993c-.33-.027-.617-.108-.816-.232a1.609 1.609 0 01-.246-.204c-.026-.025-.048-.038-.061-.036-.03.005-.047.056-.049.138 0 .111-.054.179-.178.226-.049.02-.068.02-.442.02-.387 0-.39 0-.45-.022-.082-.031-.153-.099-.169-.162-.01-.035-.012-.799-.01-2.8.004-2.609.005-2.752.024-2.78a.356.356 0 01.152-.118c.05-.019.067-.02.453-.02.401 0 .403 0 .453.022a.33.33 0 01.146.115c.02.033.021.066.022.832 0 .592.004.806.014.83.019.046.046.046.095 0 .19-.185.318-.272.52-.354.221-.09.416-.128.693-.136.266-.007.48.028.704.117.164.065.274.13.408.242.212.177.333.362.384.589.053.237.065 2.076.017 2.646-.027.315-.173.58-.427.776-.195.15-.457.257-.729.297-.126.018-.369.025-.508.014zm-.12-.798c.267-.057.454-.218.523-.449.021-.07.024-.122.035-.588.016-.68 0-1.346-.035-1.46-.09-.289-.335-.453-.71-.474-.313-.018-.643.112-.809.318l-.056.07v2.197l.038.053c.059.08.113.131.2.187.243.153.534.205.815.146zm3.782.798a2.141 2.141 0 01-.834-.228 1.473 1.473 0 01-.398-.337 1.121 1.121 0 01-.155-.33 1.853 1.853 0 01-.005-.596c.1-.408.365-.691.828-.882.098-.04.397-.137.91-.294.85-.26 1.021-.321 1.119-.401a.312.312 0 00.124-.204.435.435 0 00-.154-.403c-.23-.19-.71-.238-1.042-.102-.204.084-.347.266-.348.444 0 .084-.021.127-.089.183-.092.077-.105.079-.52.079-.394 0-.422-.004-.504-.064-.075-.055-.092-.094-.093-.206 0-.413.268-.8.726-1.048.34-.184.736-.278 1.222-.292 1.159-.032 1.925.44 2.037 1.257.008.054.012.63.012 1.617V7.72l-.029.048a.306.306 0 01-.157.12c-.037.015-.09.017-.398.02-.396.003-.447-.001-.53-.049a.222.222 0 01-.125-.191c-.01-.125-.04-.13-.176-.027-.34.259-.88.392-1.421.352zm1.016-.78c.265-.074.457-.227.544-.432l.031-.075.003-.476c.003-.423.002-.477-.013-.482a30.2 30.2 0 00-1.34.47.557.557 0 00-.326.34.72.72 0 00.017.349c.024.063.09.156.136.191a.857.857 0 00.23.106c.131.036.22.045.422.043.18-.003.195-.005.296-.033zm2.877.684a.321.321 0 01-.18-.113l-.034-.045-.003-2.05-.003-2.05.029-.048a.304.304 0 01.157-.121c.037-.014.09-.017.404-.02.238-.001.38.001.42.008.08.014.16.06.201.116.03.04.034.055.04.14.006.102.021.132.06.12a.716.716 0 00.106-.092c.288-.28.72-.433 1.22-.432.436 0 .84.157 1.113.432.15.151.242.3.307.497l.035.107.003 1.69.003 1.69-.023.04a.309.309 0 01-.156.12c-.047.018-.072.02-.413.022-.431.004-.466 0-.56-.071-.102-.077-.093.088-.1-1.651-.006-1.72 0-1.592-.083-1.724-.162-.256-.547-.38-.93-.298a.945.945 0 00-.528.302l-.054.064v3.19l-.03.048a.306.306 0 01-.156.12c-.038.015-.09.017-.417.019-.282.002-.388-.001-.428-.01zm4.912 0a.345.345 0 01-.18-.107l-.034-.04-.003-2.784-.003-2.784.023-.04a.309.309 0 01.156-.119c.047-.018.072-.02.422-.022.416-.003.452 0 .54.056a.292.292 0 01.079.08l.03.05v1.457c0 .925.005 1.467.012 1.482.017.037.056.03.108-.016l.75-.734c.388-.381.73-.713.762-.736.096-.072.097-.072.643-.069l.478.003.056.024c.03.013.067.038.082.056.022.027.025.04.02.088a.258.258 0 01-.027.093c-.013.02-.38.388-.817.816-.437.43-.8.788-.805.797a.066.066 0 00-.01.026c0 .005.408.485.907 1.067.5.583.912 1.07.916 1.081a.324.324 0 01.007.073.176.176 0 01-.093.158c-.09.051-.1.052-.571.052H24.4l-.063-.026a.54.54 0 01-.125-.079c-.034-.03-.426-.488-.873-1.02a63.603 63.603 0 00-.833-.982c-.032-.023-.06-.02-.074.007-.01.018-.013.272-.013.969 0 .902-.002.947-.021.983a.312.312 0 01-.153.125c-.055.023-.058.023-.429.025-.283.002-.387-.001-.428-.01z" fill="#F9F9F9"/><path d="M24.76 29.957c-.12-.054-.185-.125-.352-.384A14.011 14.011 0 0023.201 28a14.952 14.952 0 00-1.956-1.788c-1.443-1.098-3.262-2.03-5.289-2.71-2.14-.719-4.581-1.18-7.077-1.339-.48-.03-1.41-.06-1.715-.053-.29.005-.38-.019-.516-.14-.166-.147-.15.553-.145-6.454l.004-6.194.039-.065a.605.605 0 01.282-.227C6.914 9 7.108 9 16.01 9h9.093l.1.045a.49.49 0 01.272.273c.025.078.027 1.095.023 10.218l-.004 10.131-.044.079c-.122.217-.453.318-.69.21z" fill="#E91B2A"/><path d="M11.43 19.985c.622-.04 1.134-.15 1.577-.334.791-.33 1.273-.868 1.445-1.61.046-.2.063-.733.033-.992-.075-.625-.315-1.097-.77-1.51-.373-.34-.532-.433-2.006-1.187-1.245-.636-1.374-.705-1.582-.847-.41-.282-.568-.578-.544-1.02.018-.333.12-.557.34-.752.264-.233.599-.337 1.081-.336.47 0 .768.098 1.046.344.122.108.16.153.224.27.118.214.147.338.157.69.009.284.011.3.053.37.055.089.136.15.254.188.083.028.133.03.72.03.749 0 .758-.002.908-.134.135-.118.14-.142.13-.591-.01-.416-.041-.59-.157-.882-.345-.872-1.218-1.447-2.462-1.622-1.164-.164-2.361.014-3.128.464-.778.457-1.2 1.144-1.246 2.033a2.46 2.46 0 00.961 2.066c.206.153.234.169 1.562.853 1.395.72 1.514.784 1.736.941.183.13.297.238.407.391.16.22.222.416.222.692-.002.55-.259.858-.832.994-.152.036-.188.039-.535.04-.333 0-.386-.004-.507-.034-.456-.112-.768-.368-.89-.732-.034-.1-.039-.157-.048-.544l-.01-.433-.051-.073a.534.534 0 00-.276-.185 8.77 8.77 0 00-.713-.015c-.65 0-.652 0-.738.035a.465.465 0 00-.24.193c-.03.055-.036.108-.046.413-.027.76.097 1.235.44 1.688.62.818 1.914 1.24 3.485 1.138zM18.177 19.983a.403.403 0 00.222-.192c.018-.037.14-.459.273-.936.131-.478.246-.885.255-.904l.015-.036 1.563.004 1.562.004.249.899c.137.494.262.925.277.959.034.07.109.148.18.185.045.023.127.026.764.026.699 0 .715 0 .779-.033.135-.07.2-.18.181-.31-.02-.14-2.516-9.404-2.553-9.472a.367.367 0 00-.213-.162c-.034-.01-.52-.015-1.246-.015-1.161 0-1.19.001-1.263.032a.338.338 0 00-.173.141c-.037.068-2.537 9.39-2.546 9.492-.007.08-.002.107.029.16a.338.338 0 00.203.153c.087.026 1.347.03 1.442.005z" fill="#F9F9F9"/><path d="M19.5 15.992c0-.035.949-3.94.963-3.964.024-.038.048-.037.073.002.011.018.231.907.488 1.976l.475 1.97c.008.023-.046.024-.995.024-.552 0-1.004-.004-1.004-.008z" fill="#E91B2A"/></g></g></svg>