<svg xmlns="http://www.w3.org/2000/svg" width="32" height="32" viewBox="0 0 32 32">
  <g fill="none" fill-rule="evenodd">
    <rect width="32" height="32" fill="#0C4D89"/>
    <path fill="#FFF" d="M16.2587925,15.1367646 C15.9878826,14.8899903 15.8428226,14.942202 15.7246074,15.2020293 C15.9051319,15.2980791 16.0570878,15.2901981 16.2587925,15.1367646 L16.2587925,15.1367646 Z M15.2958309,14.4737741 C15.0603855,14.3383191 14.9463571,14.1255317 14.70771,14.1070606 C14.5663443,14.2358659 14.3794165,14.3134447 14.3097187,14.5439644 C14.6279147,14.8345769 14.9288711,14.80059 15.2958309,14.4737741 L15.2958309,14.4737741 Z M16.6853525,14.498156 C17.205007,14.7375419 17.6438811,14.684345 17.7620963,14.4112185 C17.5973338,14.2939884 17.4934029,14.081201 17.2291426,14.0696258 C17.0690595,14.1959683 16.9055284,14.3247737 16.6853525,14.498156 L16.6853525,14.498156 Z M18.5186739,12.4525398 C18.2645111,12.8379707 18.0438426,13.1724213 17.8197263,13.5125364 C18.0192145,13.759557 18.2462862,13.9159459 18.4997102,14.0341612 C18.7750532,13.8533904 19.0646805,13.7255701 19.1863437,13.4268304 C18.9740488,13.1170079 18.7720978,12.8222087 18.5186739,12.4525398 L18.5186739,12.4525398 Z M16.0580729,12.4569728 C15.7901183,12.8525013 15.552949,13.202714 15.3155334,13.5529266 C15.5169919,13.8021638 15.7280553,13.9910619 16.0588117,14.1011498 C16.2858835,13.9243195 16.5279785,13.7364065 16.7890371,13.5332241 C16.5400463,13.1665106 16.3149447,12.8350153 16.0580729,12.4569728 L16.0580729,12.4569728 Z M12.6975584,13.5938094 C13.0659959,13.7378842 13.2292807,14.1043515 13.6240703,14.0747977 C13.8368578,13.9056021 14.0718106,13.7812298 14.2220424,13.5529266 C13.9705888,13.1876908 13.7314492,12.8404335 13.4659574,12.4547563 C13.2093319,12.8352616 12.9829989,13.1706974 12.6975584,13.5938094 L12.6975584,13.5938094 Z M9.52914364,21.0438324 C9.67863667,18.1534698 11.4026089,16.4043768 13.8178941,15.1754308 C13.6462357,14.9498367 13.499698,14.957964 13.2886346,15.0606635 C12.7684875,15.31458 12.2264214,15.5231807 11.7006098,15.7657682 C10.6787869,16.2366589 9.75547657,16.8523633 9.02746772,17.7202602 C8.2327165,18.6674598 7.72611494,19.7306581 7.78251346,21.0438324 L9.52914364,21.0438324 Z M24.4661319,21.0359514 C24.328953,19.2430202 23.5593225,17.8938888 22.1183279,16.7797102 C21.065966,15.9659952 19.8131308,15.5561824 18.6477255,14.9697856 C18.4502075,14.870534 18.2770715,14.9092002 18.1588562,15.1675498 C20.6086208,16.3947718 22.3594378,18.166769 22.5847856,21.0544225 C23.2618141,21.0748639 23.8642193,21.1150078 24.4661319,21.0359514 L24.4661319,21.0359514 Z M20.2256527,13.478057 C20.9696699,14.1863633 21.8186031,14.5831232 22.6906867,14.9552549 C25.3983083,16.1100701 27.3365457,17.9062029 27.6443979,21.0689531 C28.2101071,21.0689531 28.7578377,21.1226426 29.3380775,21.0169877 C29.2501549,19.7653838 28.807094,18.6901177 28.0010139,17.7643446 C27.1047946,16.7353794 25.9787944,16.0381558 24.7222649,15.5418981 C23.8588011,15.2007978 23.0581391,14.7589684 22.3375187,14.1713401 C21.7624508,13.7024197 21.323823,13.11356 20.9024349,12.4584505 C20.6563995,12.8293509 20.4571575,13.1295683 20.2256527,13.478057 L20.2256527,13.478057 Z M4.49218926,21.0455564 C4.67690057,18.9888575 5.2608346,17.8020257 6.72054655,16.5058448 C7.56283014,15.7573946 8.54795714,15.2424195 9.58677357,14.8286661 C10.3568966,14.5220453 11.0585533,14.1134639 11.7062743,13.5403663 C11.4540818,13.1778395 11.2134645,12.8315674 10.9593018,12.4660853 C9.94240442,14.0213545 8.95949395,14.8188148 7.21089351,15.5123443 C5.95608799,16.0098334 4.81481835,16.6787346 3.93312968,17.7200139 C3.13271399,18.6652432 2.6534497,19.7407557 2.68004813,21.0455564 L4.49218926,21.0455564 Z M19.3752418,21.0376754 C19.2639224,18.9240854 17.7990386,16.880932 15.8637566,16.1258321 C13.9922615,17.213166 12.7175072,18.7051409 12.5864853,21.0376754 L19.3752418,21.0376754 Z M10.6691819,11.0982364 C10.8708866,10.9581021 11.0368805,11.0356809 11.2430184,11.0031717 C11.4363495,11.7260086 11.6245088,12.430867 12.2150924,12.9896803 C12.7923769,12.4724886 12.998761,11.7688616 13.1746061,11.0748397 C13.3625191,10.9768195 13.5265428,10.9945518 13.740069,11.0470098 C13.939311,11.743002 14.1543149,12.4626373 14.7495779,13.0327796 C15.3517368,12.5303648 15.5664945,11.8210734 15.7613034,11.1117819 C15.9386262,10.9576095 16.1206284,10.9869171 16.3358787,11.0568611 C16.524038,11.744726 16.7311609,12.4389943 17.2798767,12.9744108 C17.5776313,12.7281291 17.7593872,12.4180603 17.8980438,12.0892742 C18.0386707,11.7565475 18.1384148,11.4068275 18.2551524,11.0667124 C18.4176983,10.9780509 18.5836922,10.9965221 18.7996813,11.0371585 C18.9903034,11.6814316 19.1508791,12.3717594 19.7072296,12.917766 C20.2534825,12.4202769 20.4399178,11.7533459 20.6108373,11.0807504 C20.7965338,10.9603186 20.9795211,10.988641 21.1957565,11.0745934 C21.6053231,13.097798 23.0830136,14.124054 24.8547645,14.8569885 C26.3309773,15.4677673 27.6665632,16.2740937 28.6760722,17.5451538 C29.4683605,18.5425949 29.9025553,19.6799241 29.991463,20.9487676 C30.0079639,21.1896312 30.0155986,21.4354204 29.8668444,21.6974642 C28.9102861,21.7238163 27.9327938,21.7895735 26.9459428,21.7215998 C27.0530754,18.8083329 25.4581548,17.0646581 23.09385,15.8763487 C21.9511026,15.3020196 20.7174773,14.9057523 19.8067274,14.0400719 C19.485576,14.0915448 19.3533227,14.2683751 19.1986578,14.4459443 C19.5180852,14.7215336 19.9219873,14.8136429 20.2906711,14.9734798 C22.04666,15.7359681 23.5413439,16.8063086 24.4713038,18.5342214 C25.0165716,19.547917 25.1914316,20.4714736 25.0793734,21.688598 C24.0383405,21.6996807 22.9913968,21.804843 21.8991372,21.7201221 C22.0163673,19.1765242 20.7595915,17.4545222 18.6959967,16.2415845 C18.1302875,15.9091042 17.5746759,15.3828001 16.6587541,15.6719348 C17.7044664,16.4575736 18.6093055,17.2057776 19.2126958,18.2357279 C19.8274151,19.2848881 20.1569401,20.4015296 19.9818338,21.6804707 L12.0104323,21.6804707 C11.7277008,19.0139782 13.0615628,17.2168603 15.147323,15.7613351 C14.9638431,15.5714519 14.7791317,15.4921492 14.5301409,15.6037148 C12.5052123,16.5120019 10.8524155,17.7707479 10.3064089,20.0764377 C10.1830217,20.5963385 10.2411442,21.1297847 10.2376962,21.6962328 C9.19690956,21.7188907 8.21350653,21.620378 7.17173472,21.7632214 C6.94466294,19.9552671 7.48672908,18.4694493 8.63120038,17.1710519 C9.7362666,15.9174777 11.1794777,15.1919317 12.7320378,14.6079977 C12.6781021,14.2930033 12.4416716,14.2082824 12.1857849,14.0309595 C11.219129,14.9695393 9.92713495,15.3576793 8.7469528,15.9576217 C7.18232483,16.7528654 5.9600285,17.872216 5.39284162,19.6011139 C5.17709881,20.2584399 5.14853013,20.9256172 5.18030047,21.6743137 L2.08503142,21.6743137 C1.85968361,20.6069286 2.1027637,19.5851056 2.572423,18.6154943 C3.38318253,16.9420098 4.77467443,15.8817669 6.41835884,15.1128753 C6.8129022,14.9281639 7.22739439,14.7855668 7.61775097,14.5932208 C9.13361515,13.8462482 10.3381792,12.8192533 10.6691819,11.0982364 L10.6691819,11.0982364 Z"/>
  </g>
</svg>
