<svg xmlns="http://www.w3.org/2000/svg" width="32" height="32" viewBox="0 0 32 32">
  <g fill="none" fill-rule="evenodd">
    <rect width="32" height="32" fill="#1071B9"/>
    <path fill="#E06F27" d="M19.7931044,14.6080333 C21.544921,17.5317097 23.2106344,20.3115803 24.8966339,23.1257118 C24.0121604,24.6593402 23.1549604,26.1456344 22.215489,27.7746075 C21.4202743,26.4661546 20.7059785,25.2911392 19.926091,24.0081567 L10.0756164,24.0081567 C9.14223085,22.4425213 8.25167149,20.9490143 7.25697687,19.2808215 L17.0675555,19.2808215 C17.9910234,17.6976048 18.8374042,16.2466986 19.7931044,14.6080333 Z M25.21765,5.00737061 C24.4591757,6.38795175 23.7960459,7.59474872 23.108122,8.84685129 C24.7364189,11.6977232 26.3529949,14.5269566 28,17.4100608 C27.141673,18.953156 26.288981,20.4865591 25.3258425,22.2180896 C23.6448018,19.2831431 22.0512167,16.5012439 20.4121007,13.6395528 L15.047106,13.6395528 C16.7042542,10.6561451 18.2606481,7.85463608 19.8420615,5.00737061 L25.21765,5.00737061 Z M18.9323656,5 C17.2208958,7.94959752 15.5953038,10.751332 13.9566385,13.5758319 C14.8181211,15.0880473 15.6647273,16.5741161 16.5945064,18.2057939 L6.59549254,18.2057939 C5.78044252,16.7934313 4.94195079,15.3404964 4,13.7079169 L8.40208158,13.7079169 C10.1329359,10.7493034 11.8151036,7.87386278 13.4961442,5 L18.9323656,5 Z"/>
  </g>
</svg>
