<svg xmlns="http://www.w3.org/2000/svg" viewBox="0 0 32 32"><g fill="none" fill-rule="evenodd"><path fill="#EBF1F7" d="M0 0h32v32H0z"/><g fill-rule="nonzero"><path fill="#000" d="M3.49 8.732v.49h.87v6.78h-.87v.5h3.82c1.63 0 2.62-.66 2.62-1.97 0-1.28-.87-2.04-2.27-2.11 1.31-.06 1.9-.81 1.9-1.8 0-1.24-.82-1.9-2.25-1.9h-3.8zm7.27 0v.49h.88v6.78h-.88v.5h3.82c1.64 0 2.61-.66 2.61-1.97 0-1.28-.87-2.04-2.28-2.11 1.32-.06 1.92-.81 1.92-1.8 0-1.24-.81-1.9-2.25-1.9h-3.82zm-4.84.64h.8c.74 0 1.24.55 1.24 1.4 0 .8-.53 1.42-1.21 1.42h-.83v-2.82zm7.27 0h.82c.74 0 1.22.55 1.22 1.4 0 .8-.5 1.42-1.2 1.42h-.84v-2.82zm-7.27 3.49h.87c.96 0 1.59.62 1.59 1.58 0 1.02-.58 1.56-1.67 1.56h-.8v-3.14zm7.27 0h.86c.98 0 1.6.62 1.6 1.58 0 1.02-.58 1.56-1.67 1.56h-.79v-3.14z"/><path fill="#2E4C9B" d="M24.07 5.822c.03.37.03.91.03 1.42.01 7.54-5.82 13.84-13.92 14.04v4.9a18.88 18.88 0 0 0 18.84-18.65c0-.58 0-1.25-.03-1.71h-4.92z"/></g></g></svg>