<svg xmlns="http://www.w3.org/2000/svg" viewBox="0 0 32 32"><g fill="none" fill-rule="evenodd"><path fill="#FFF" d="M0 0h32v32H0z"/><path fill="#AA0024" d="M23.45 0h-15A8.46 8.46 0 0 0 0 8.46v14.98a8.46 8.46 0 0 0 8.45 8.46h21.67c.98 0 1.78-.8 1.78-1.78V8.46A8.46 8.46 0 0 0 23.45 0"/><path fill="#FFF" d="M21.8 13.78c-2.02.02-4.05 0-6.06 0-1.97 0-3.95.02-5.92 0-1.7-.03-2.6-.84-2.6-2.3-.01-1.5.78-2.25 2.55-2.26a1195.18 1195.18 0 0 1 12.11 0c1.81 0 2.6.72 2.61 2.23.02 1.5-.9 2.32-2.7 2.33m.15 8.94c-2.06.02-4.13 0-6.2 0-2.02 0-4.04.03-6.06 0-1.64-.03-2.48-.82-2.51-2.23-.03-1.49.87-2.38 2.51-2.38l6.13-.01h6.13c1.64.01 2.54.91 2.5 2.4-.02 1.4-.87 2.2-2.5 2.22"/></g></svg>