<svg width="33" height="32" viewBox="0 0 33 32" xmlns="http://www.w3.org/2000/svg"><g fill="none" fill-rule="evenodd"><path fill="#0070AD" d="M1 0h32v32H1z"/><path d="M9.027 22H6V4.01c.071 0 .497-.028.905.01 0 0 0 0 0 0 .068.006.133.014.199.023h.002c.063.01.124.02.186.032.003.001.007.001.01.003.06.012.12.025.179.04l.01.004c.055.015.109.032.16.05l.024.01a1.987 1.987 0 01.306.144l.035.021c.038.024.076.05.113.077l.047.036.099.085 17.63 15.938c.742.833 1.011 1.228 1.057 1.505.05.297.037.554.037.554v5.267H9.027v-5.81z" stroke="#FFF" stroke-width="2" fill="#0070AD" stroke-linecap="round" stroke-linejoin="round"/><path d="M26.962 21.988c-.046-.277-.315-.672-1.056-1.505L8.275 4.545c.463.444.752 1.215.752 2.614v20.65H27v-5.267s.013-.257-.037-.554" fill="#0070AD"/><path d="M9.04 22V7.154c0-1.386-.294-2.169-.765-2.61a3.684 3.684 0 00-.099-.084l-.047-.036a2.035 2.035 0 00-.113-.077l-.035-.02a1.627 1.627 0 00-.156-.083c-.05-.023-.1-.044-.15-.062l-.024-.01a1.965 1.965 0 00-.16-.05l-.01-.003a2.922 2.922 0 00-.179-.041c-.003-.002-.007-.002-.01-.003a4.906 4.906 0 00-.186-.032h-.002a3.717 3.717 0 00-.198-.022h-.001c-.408-.039-.834-.012-.905-.012V22h3.04" fill="#E6AE27"/><path d="M11.49 22.927h1.207c.404 0 .726-.156.726-.547 0-.404-.288-.53-.754-.53h-1.18v1.077zm0 2.147h1.26c.502 0 .79-.218.79-.72 0-.432-.371-.596-.74-.596h-1.31v1.316zM10.5 21h2.397c1.207 0 1.514.754 1.514 1.263 0 .707-.397.906-.603 1.006.603.23.762.71.762 1.196 0 .39-.165.76-.426 1.014-.281.275-.55.448-1.557.448H10.5V21zm13.193 3.247l.52.489c.137-.254.227-.598.227-1.057 0-1.38-.782-1.723-1.338-1.723-.557 0-1.337.344-1.337 1.723 0 1.377.78 1.724 1.337 1.724.172 0 .372-.035.556-.133l-.494-.466.53-.557zm1.255 2.253l-.584-.557a2.56 2.56 0 01-1.262.33c-.652 0-2.366-.283-2.366-2.594 0-2.312 1.714-2.592 2.366-2.592.652 0 2.367.28 2.367 2.592 0 .81-.212 1.372-.513 1.756l.534.508-.542.557zm-5.077-2.465c-.167 1.987-1.736 2.238-2.353 2.238-.616 0-2.186-.25-2.352-2.238a4.29 4.29 0 01-.015-.356c0-2.312 1.715-2.592 2.367-2.592.651 0 2.367.28 2.367 2.592 0 .125-.005.243-.015.356zm-1.035 0c.013-.11.02-.228.02-.356 0-1.38-.782-1.723-1.338-1.723-.557 0-1.338.344-1.338 1.723 0 .128.007.246.02.356.122 1.085.813 1.369 1.318 1.369.506 0 1.196-.284 1.319-1.369z" fill="#FFFFFE"/></g></svg>