<svg xmlns="http://www.w3.org/2000/svg" width="32" height="32" viewBox="0 0 32 32">
  <g fill="none" fill-rule="evenodd">
    <rect width="32" height="32" fill="#0199A4"/>
    <path fill="#F3FBFB" d="M22.375982,13.4954658 C22.663632,13.492918 22.7946754,13.2809385 22.7956137,13.0026306 C22.7966287,12.7229638 22.6087687,12.5566754 22.3327538,12.5491168 C22.041282,12.5411336 21.8849302,12.7357878 21.8770319,13.0043291 C21.8683693,13.2930832 22.0152092,13.4877374 22.375982,13.4954658 M21.902765,20.2894243 C22.2254052,20.2594449 22.4001014,20.070226 22.3860883,19.766185 C22.373604,19.4946712 22.1632382,19.3279582 21.9071812,19.3286356 C21.5917599,19.3293171 21.427255,19.5490249 21.4420324,19.8572274 C21.4551113,20.1306945 21.6188518,20.2867066 21.902765,20.2894243 M9.83301493,19.3679591 C9.79530705,19.0645126 9.62103548,18.8854001 9.33262112,18.8969503 C9.035714,18.9087552 8.87842796,19.1231976 8.89728191,19.4111873 C8.91494686,19.6810025 9.09117177,19.8503483 9.36930987,19.8511164 C9.68175876,19.8521318 9.80575315,19.6471164 9.83301493,19.3679591 M11.8790073,21.1873645 C11.88767,21.4863948 12.0556569,21.6418974 12.3298034,21.6570145 C12.6419975,21.6741699 12.8119378,21.4841867 12.8060777,21.1869399 C12.8008972,20.9212862 12.6498108,20.718309 12.3633498,20.7110902 C12.0557418,20.7034467 11.9119593,20.9026021 11.8790073,21.1873645 M18.8163238,20.741834 C18.5721567,20.7962726 18.3608567,20.9174644 18.352279,21.2012077 C18.3437013,21.4907262 18.5088007,21.7067821 18.8023956,21.7196911 C19.0901306,21.7324303 19.2937871,21.5504303 19.299732,21.2519945 C19.305677,20.9572106 19.1184964,20.7912619 18.8163238,20.741834 M22.9768452,15.9622748 C22.6734836,15.9923392 22.5321639,16.1922589 22.5342022,16.4702272 C22.5363254,16.7461572 22.7259689,16.910747 22.9930664,16.9200041 C23.3013538,16.930705 23.4570262,16.7095533 23.4660286,16.4383793 C23.4759651,16.1430858 23.2691662,15.9964157 22.9768452,15.9622748 M12.7741449,6.66295013 C12.7941879,6.96333928 12.9754235,7.12979751 13.2611202,7.12962778 C13.5347571,7.1294578 13.7096232,6.95238361 13.7041029,6.67169768 C13.6986675,6.39135145 13.563123,6.16867111 13.2515234,6.17376677 C12.9592023,6.17843779 12.7979247,6.36222126 12.7741449,6.66295013 M20.8618066,9.37146326 C20.5741566,9.40220707 20.3966578,9.55779456 20.3967427,9.85945763 C20.3967427,10.165452 20.5902928,10.3422714 20.8768388,10.3391291 C21.1455499,10.3361566 21.3219447,10.1564497 21.3248322,9.87270635 C21.3278047,9.5781772 21.1817291,9.39617721 20.8618066,9.37146326 M16.5157182,4.55309212 C16.4844648,4.25779862 16.3395782,4.07180703 16.035792,4.07486443 C15.7523883,4.07775197 15.5880533,4.2641682 15.5841466,4.52718918 C15.5799852,4.80515743 15.7385451,5.02554472 16.0374905,5.03021574 C16.3317649,5.03480184 16.4812376,4.83539168 16.5157182,4.55309212 M9.03129776,16.2994376 C8.96267621,16.027839 8.8229702,15.818747 8.52300568,15.8177244 C8.24231974,15.8167937 8.0736534,16.0023607 8.05479946,16.2692883 C8.03339768,16.571376 8.21828521,16.7501488 8.51247465,16.7680685 C8.82526324,16.7870923 8.94407705,16.5554945 9.03129776,16.2994376 M9.59479283,12.7787612 C9.55088523,12.5334052 9.44880217,12.3041854 9.13244661,12.3090263 C8.83502993,12.3135275 8.6590598,12.5082666 8.65523806,12.7909059 C8.65133138,13.0838214 8.84827864,13.2606408 9.13728749,13.2631037 C9.41924734,13.2655666 9.55334813,13.0720165 9.59479283,12.7787612 M10.8527414,8.89909558 C10.5999118,8.94996725 10.418846,9.09527849 10.4143448,9.36806615 C10.4096738,9.65316833 10.5551549,9.86497793 10.863782,9.86362559 C11.1542346,9.86226024 11.3460013,9.69189534 11.3424343,9.39176097 C11.3389523,9.09782632 11.1468459,8.94648522 10.8527414,8.89909558 M18.98516,7.08444614 C18.9623993,6.78702945 18.824222,6.60953063 18.5123676,6.61104953 C18.2222547,6.61258802 18.0729519,6.77607378 18.0607223,7.05310783 C18.0475585,7.35247785 18.2093457,7.54271582 18.5041297,7.55418106 C18.8041791,7.565986 18.9497451,7.36835932 18.98516,7.08444614 M15.6208354,9.4342248 C15.6208354,8.23173398 15.6210902,7.20733647 15.6205806,6.18293896 C15.6204957,6.02420915 15.4888578,5.98225488 15.3818489,5.91626609 C14.6982661,5.49510979 14.4073889,4.88286624 14.6220011,4.1091752 C14.808757,3.43586867 15.2820589,3.02915007 16.0079357,3.00154858 C16.7474858,2.9733526 17.2769249,3.33089807 17.5075035,4.01643419 C17.7606729,4.76906317 17.5323873,5.40924792 16.858741,5.86395064 C16.7398423,5.94420729 16.6307952,6.01486711 16.6320691,6.18973317 C16.6385236,7.03382925 16.6349566,7.87792532 16.6349566,8.84983753 C16.8727541,8.31869991 17.246266,8.01635742 17.0505926,7.40199068 C16.8291013,6.70651802 17.1502128,6.09444433 17.807468,5.72755681 C18.4419626,5.37323859 19.0544609,5.46971642 19.5561287,5.97172385 C20.0897292,6.50557916 20.2063349,7.15255812 19.8357105,7.83452728 C19.460585,8.52481935 18.8455389,8.77807366 18.1156705,8.55938491 C17.713538,8.43887256 17.5591395,8.55607274 17.4054204,8.87786366 C16.9365348,9.85903299 16.6053169,10.8717954 16.6347868,11.9751757 C16.6388633,12.1249881 16.5935119,12.3322116 16.7654055,12.3802806 C16.8551741,12.4053343 17.0014195,12.2638448 17.1097872,12.18138 C17.7954083,11.6593297 18.4693942,11.1214827 19.165886,10.6144646 C19.3745533,10.4626139 19.4092887,10.3156041 19.3771861,10.0796751 C19.2742537,9.32135594 19.6857283,8.62715719 20.3783983,8.40337279 C21.0985,8.17067099 21.721954,8.37696029 22.1262097,8.99820617 C22.5454976,9.64280715 22.5059213,10.3185766 21.9783506,10.9171468 C21.5009722,11.4589004 20.7364534,11.5872261 20.0912579,11.1783843 C19.7874716,10.9860231 19.60148,11.0381687 19.3633429,11.2411458 C18.1710433,12.2576451 16.9945404,13.2823823 16.7358507,14.9575805 C16.7034083,15.1676066 16.6300308,15.4386108 16.8089734,15.557 C17.0095726,15.6897419 17.1303397,15.4015823 17.2827,15.3006883 C18.3420027,14.598931 19.3357414,13.7884663 20.5505467,13.3480314 C20.7400203,13.2794098 20.7898729,13.1519334 20.8106801,12.9618653 C20.895353,12.1891084 21.3058084,11.6661239 22.0806885,11.5164813 C22.7905139,11.379493 23.3518008,11.6964431 23.6749506,12.308262 C24.0078671,12.9385951 23.9250626,13.5961051 23.4177896,14.1147583 C22.8662694,14.6784233 22.2065513,14.7202077 21.5124374,14.3525558 C21.4210553,14.304147 21.2822835,14.2616832 21.1977804,14.295994 C19.4698421,14.9974965 17.9138824,15.908006 17.1548838,17.7439723 C17.0934811,17.8925957 17.0953495,18.0673769 17.067833,18.2300983 C17.2071993,18.1783773 17.3542091,18.1413489 17.4846579,18.0726424 C18.6273597,17.4709299 19.802334,16.9493891 21.0677562,16.6649663 C21.3373166,16.604328 21.422499,16.4721805 21.4675956,16.2134908 C21.5992335,15.4579743 22.0599661,14.9923159 22.8271177,14.9134181 C23.566498,14.8373229 24.0978904,15.2193276 24.3685549,15.8753938 C24.6508544,16.5599108 24.4775171,17.2073144 23.891686,17.6660936 C23.2903132,18.1370175 22.6374742,18.1383764 22.0184365,17.6628664 C21.4831374,17.2517316 20.9722975,17.5437129 20.4580605,17.7011688 C20.3105411,17.7462654 20.2959336,17.8571809 20.4319027,17.9468645 C20.7772186,18.1743008 21.0252924,18.5173236 21.5829274,18.3053442 C22.2546203,18.0499667 22.8425746,18.3980003 23.2033473,18.9941925 C23.5998746,19.6493245 23.5016132,20.316856 22.9985867,20.8763594 C22.5305503,21.3968811 21.9033595,21.4937836 21.2878887,21.2055391 C20.600654,20.8835783 20.2397964,20.2625872 20.4372532,19.5295765 C20.667577,18.6746097 20.0963535,18.5290437 19.5638571,18.4087012 C18.729103,18.2199069 17.4838936,18.9625994 17.1560728,19.7467365 C17.0927168,19.8982475 17.12414,19.9691621 17.2763304,19.9674635 C17.5542986,19.9643212 17.8264918,20.016212 18.1085366,19.8945107 C18.9832915,19.5170072 19.8819112,19.8562932 20.2101566,20.6578405 C20.5474893,21.4813841 20.1555481,22.4053122 19.3330237,22.7256594 C18.508376,23.0467709 17.6738768,22.6059963 17.3361195,21.6717919 C17.322531,21.6343388 17.2991759,21.6003678 17.2440579,21.4961615 C16.7751722,22.4764816 16.7060411,23.4602837 16.7761914,24.4612411 C16.8607793,25.6656853 17.1119953,26.8393007 17.5144676,27.977841 C17.6279309,28.2989525 17.5413896,28.5232465 17.2652049,28.7021042 C16.6069305,29.128441 14.7807309,29.0832595 14.1157473,28.6553939 C13.7463969,28.4179362 13.6685182,28.1803935 13.8078845,27.7481117 C14.3607636,26.0329125 14.8361037,24.2985197 14.4904481,22.4639972 C14.467093,22.3396631 14.444842,22.2080252 14.3867515,22.0986384 C14.2687869,21.8768073 14.158381,21.5246972 13.9869969,21.4864798 C13.7187104,21.4268606 13.7825761,21.8157443 13.6736139,21.9947719 C13.2470222,22.69551 12.3563858,22.9575968 11.6380676,22.5654008 C10.913125,22.1696379 10.6311651,21.2672815 10.9961842,20.5113403 C11.3565323,19.7649111 12.2202467,19.4405723 12.9648076,19.8049969 C13.2735196,19.9561682 13.5750978,20.0895046 13.9206684,20.1048765 C14.0255541,20.1094626 14.1960039,20.157107 14.2232657,20.1137939 C14.3205079,19.9594803 14.1643259,19.8632573 14.0731136,19.7648261 C13.458577,19.1013712 11.9100059,18.7614907 11.055209,19.0854897 C10.8499388,19.1632835 10.8866276,19.3200599 10.8747377,19.4674944 C10.8127405,20.2352405 10.3034293,20.8038312 9.56804061,20.9224751 C8.90849236,21.0288046 8.21318955,20.6061196 7.95348075,19.941051 C7.68697773,19.2582326 7.9287668,18.4964314 8.55570283,18.0786722 C9.22408357,17.6332266 9.84770742,17.7710642 10.4110326,18.2724772 C10.8741432,18.6847161 11.2896093,18.293794 11.7120395,18.2091211 C11.8839331,18.1746405 11.6963279,18.0301785 11.6319528,17.9675869 C11.1977176,17.5454964 10.6715058,17.2767003 10.1097093,17.0659098 C9.89696546,16.9859929 9.80575315,17.1133844 9.69271443,17.2514768 C9.18484698,17.8717035 8.53795295,18.0240637 7.83424231,17.6738221 C7.14420502,17.3303746 6.89808464,16.7081096 7.03745094,15.9621049 C7.17384478,15.231727 7.67211539,14.8052203 8.38100662,14.7462805 C9.129644,14.6840285 9.69161037,15.0454806 9.93993886,15.7902113 C10.0153546,16.0163737 10.1465679,16.1238921 10.3752781,16.189796 C11.4037521,16.4861936 12.2486125,17.0464614 12.9949569,17.8342504 C13.3339881,18.1922205 13.9261887,18.3200367 14.4169008,18.5193619 C14.5763949,18.5840768 14.5619572,18.3904417 14.5727431,18.290312 C14.6694757,17.3930512 14.6058648,16.5701021 13.894171,15.8647778 C12.9771221,14.9559669 12.0787572,14.042315 10.9124456,13.4450188 C10.6693826,13.3205148 10.5354517,13.3256105 10.3676346,13.5811578 C9.92397246,14.2566725 9.19843541,14.4702656 8.51782509,14.1753967 C7.86923251,13.8945409 7.49138932,13.1885372 7.6055321,12.4708135 C7.71288067,11.795129 8.38720634,11.2077693 9.09287032,11.1753269 C9.73339478,11.1457721 10.4050028,11.6797972 10.583181,12.3990496 C10.6453481,12.6503506 10.7691726,12.7923497 11.0020443,12.8725214 C12.1614768,13.2714266 13.2274888,13.8437542 14.198297,14.5943449 C14.2889997,14.6644951 14.3960086,14.8182991 14.517625,14.7165558 C14.6390716,14.6148974 14.5118499,14.481476 14.4580907,14.3754863 C13.8218976,13.1202554 13.0243418,11.9757701 12.0909868,10.9232616 C11.8977764,10.7053372 11.7331865,10.6504739 11.4384026,10.7838953 C10.7521021,11.0944758 10.1277139,10.9426251 9.65729959,10.346263 C9.19249047,9.75686501 9.17397624,9.114642 9.59190529,8.49500974 C10.0076262,7.87868967 10.6365156,7.69048996 11.3105865,7.91172653 C12.0067385,8.14018195 12.3906965,8.68932424 12.3383811,9.4437367 C12.313837,9.79669608 12.4182131,10.0138561 12.6792807,10.2399336 C13.549025,10.9929023 14.240591,11.9025625 14.9223053,12.9900613 C15.0627757,11.6843833 14.8964873,10.5496648 14.5145676,9.44042452 C14.4274318,9.18759486 14.2963035,8.95022203 14.1909083,8.70342224 C14.0253842,8.31581237 13.8065257,8.13831355 13.3192956,8.20251886 C12.4521842,8.3168315 11.6829094,7.50110127 11.7178146,6.60927584 C11.7517008,5.74539162 12.56862,5.02189283 13.399892,5.11955965 C14.3184696,5.22758764 14.905065,6.05987877 14.7408149,6.98618483 C14.6945293,7.24716754 14.4152022,7.48343631 14.5592396,7.7433999 C14.8555522,8.27776477 15.2063034,8.78198033 15.6208354,9.4342248"/>
  </g>
</svg>
