<svg xmlns="http://www.w3.org/2000/svg" viewBox="0 0 32 32"><defs><radialGradient id="a" cx="136.29%" cy="963.35%" r="14.64%" fx="136.29%" fy="963.35%" gradientTransform="matrix(.33395 0 0 1 .908 0)"><stop offset="0%" stop-color="#FEDF33"/><stop offset="44%" stop-color="#FBB809"/><stop offset="90%" stop-color="#EE960D"/><stop offset="100%" stop-color="#E17A10"/></radialGradient><radialGradient id="b" cx="1293.44%" cy="396.1%" r="18.6%" fx="1293.44%" fy="396.1%" gradientTransform="matrix(1 0 0 .93411 0 .261)"><stop offset="0%" stop-color="#FEDF33"/><stop offset="44%" stop-color="#FBB809"/><stop offset="90%" stop-color="#EE960D"/><stop offset="100%" stop-color="#E17A10"/></radialGradient><radialGradient id="c" cx="390.59%" cy="1313.67%" r="46.07%" fx="390.59%" fy="1313.67%" gradientTransform="matrix(.40376 0 0 1 2.329 0)"><stop offset="0%" stop-color="#FEDF33"/><stop offset="44%" stop-color="#FBB809"/><stop offset="90%" stop-color="#EE960D"/><stop offset="100%" stop-color="#E17A10"/></radialGradient><radialGradient id="d" cx="64.3%" cy="90.09%" r="2.33%" fx="64.3%" fy="90.09%" gradientTransform="matrix(1 0 0 .58114 0 .377)"><stop offset="0%" stop-color="#FEDF33"/><stop offset="44%" stop-color="#FBB809"/><stop offset="90%" stop-color="#EE960D"/><stop offset="100%" stop-color="#D87301"/></radialGradient></defs><g fill="none" fill-rule="evenodd"><path fill="#EBF1F7" d="M0 0h32v32H0z"/><g fill-rule="nonzero"><path fill="url(#a)" d="M14.75.1c-1.27.04-2.45.7-3.14 1.77l.06.07c.4-.47.85-.87 1.35-1.21.44-.29.93-.48 1.45-.55.33-.04 1.4-.02 2.64-.02L17.1.1h-2.34z" transform="translate(4.364 5.818)"/><path fill="url(#b)" d="M6.2.1h-.01L1.62 8.02.19 10.5l-.17.29-.02.03v.02l4.35 7.53v-.03l-.2-.4a3.55 3.55 0 0 1-.26-1.53 8.54 8.54 0 0 1 1.24-3.57l2.69-4.65 2.68-4.65A8.54 8.54 0 0 1 12.97.68c.44-.29.94-.47 1.46-.54.32-.04 1.4-.04 2.64-.04H6.2z" transform="translate(4.364 5.818)"/><path fill="url(#c)" d="M.04 10.9l.2.35-.2-.35zm21.88 2.2c-.33.42-.74.76-1.2 1a8.57 8.57 0 0 1-3.72.7H6.27a8.56 8.56 0 0 1-3.71-.7 3.56 3.56 0 0 1-1.2-1c-.17-.23-.6-.96-1.12-1.85l1.1 1.89 4.1 7.11h12.38l5.4-9.34a36.59 36.59 0 0 1-1.31 2.18v.01z" transform="translate(4.364 5.818)"/><path fill="url(#d)" d="M14.43.15c-.52.07-1.01.25-1.45.54-.5.33-.96.74-1.34 1.2.42.52.8 1.07 1.13 1.65l2.69 4.66 2.68 4.65a8.54 8.54 0 0 1 1.24 3.57 3.6 3.6 0 0 1-.26 1.54c-.13.3-.63 1.16-1.21 2.17l5.36-9.3L17.1.1h-.02c-1.23 0-2.3 0-2.64.04" transform="translate(4.364 5.818)"/></g></g></svg>