<svg xmlns="http://www.w3.org/2000/svg" viewBox="0 0 32 32"><g fill="none" fill-rule="evenodd"><path fill="#7DAC04" d="M0 0h32v32H0z"/><path fill="#FFF" fill-rule="nonzero" d="M16 5.82a10.18 10.18 0 0 0-5.67 18.65l.13.07a13.57 13.57 0 0 1 6.08-18.72c-.18-.02-.35 0-.54 0zm-3.01 19.91c.97.3 1.99.45 3.01.45 5.53 0 10-4.71 10.18-10.18a7.93 7.93 0 0 0-7.23-4.01 8.2 8.2 0 0 0-7.82 10.58l1.86 3.16zm-1.86-3.16a8.2 8.2 0 0 0 1.8 3.13l.06.03-1.86-3.16zm7.82-12.02a9.6 9.6 0 0 1 6.93 2.93 10.2 10.2 0 0 0-6.62-7.12 12.17 12.17 0 0 0-8.73 9.16 9.63 9.63 0 0 1 8.44-4.97h-.02z"/></g></svg>