<svg xmlns="http://www.w3.org/2000/svg" viewBox="0 0 32 32"><g fill="none" fill-rule="evenodd"><path fill="#EBF1F7" d="M0 0h32v32H0z"/><path fill="#004799" fill-rule="nonzero" d="M16.44 25.43c-.59-.51-.9-.95-.86-1.2 0-.08.06-.14.14-.2a12.67 12.67 0 0 0 3.01-1.76c.92-.71 1.75-1.51 2.8-2.68.96-1.07 1.89-2.25 3.33-4.04l.33-.42c.73-.92 1.5-1.86 2.5-3.07a88.3 88.3 0 0 1 4.16-4.63c1.05-1.06 3-2.79 4.8-4.08l.31-.24.19-.14c.14-.09.29-.08.33 0 .05.06.03.19-.19.35l-.84.74a55.6 55.6 0 0 0-6.06 6.18 70.21 70.21 0 0 0-3.32 4.25 98.33 98.33 0 0 0-3.17 4.7l-.53.81a49.02 49.02 0 0 1-2.47 3.55 18.04 18.04 0 0 1-2.5 2.68c-.33.23-1.12-.1-1.96-.8m-3.55-2.83c-.67-.5-.74-.7-.73-.8.01-.05.09-.1.2-.13a14.07 14.07 0 0 0 6.7-2.62c1.01-.74 2.02-1.6 3.41-2.96 1.17-1.14 2.43-2.48 4.37-4.51l.84-.87c.74-.78 1.9-1.84 2.84-2.65l.04-.05.3-.24c.1-.08.18-.09.2-.05.05.03.04.12-.03.2l-.32.34c-1.3 1.37-2.56 2.78-3.79 4.22l-2.03 2.41-.48.59a62.92 62.92 0 0 1-3.5 3.95 14.25 14.25 0 0 1-6.02 3.94c-.37.1-1.19-.21-2-.77m-3.35-2.13c-.6-.34-.65-.47-.65-.5 0-.01.04-.07.24-.07a18.6 18.6 0 0 0 10.88-3.38c1.33-.9 2.7-1.99 4.44-3.53.72-.63 1.46-1.25 2.21-1.85.09-.09.18-.09.2-.06.03.03.03.1-.04.18l-.4.4-.08.08c-1.46 1.52-2.96 2.99-4.5 4.42-1.32 1.2-2.35 2-3.43 2.7a14.52 14.52 0 0 1-6.83 2.29c-.44 0-1.25-.26-2.04-.68m4.34-2.54c1.3-.32 2.41-.68 3.63-1.2a30.87 30.87 0 0 0 4.12-2.18l.92-.57.34-.23c.08-.05.15-.03.18 0v.05c0 .05-.02.1-.07.15l-.24.17c-1.19.96-2.24 1.7-3.37 2.4-1.2.76-2.3 1.3-3.54 1.75-2.3.86-4.4 1.2-7.46 1.2a7.85 7.85 0 0 1-2.08-.53l-.04-.02-.07-.03c-.24-.08-.3-.17-.3-.23 0-.03.05-.06.1-.06h.14c3.2.08 5.37-.11 7.74-.67m5.79-2.58c.01.04-.02.1-.1.14l-.4.2a23.87 23.87 0 0 1-5.93 2.04c-2.4.5-4.63.64-7.96.55-.72-.06-1.44-.2-2.14-.4-.16-.05-.14-.16 0-.16h.03c2.88.07 5.37.05 8.02-.3 2.67-.33 5.01-.9 7.8-1.89l.53-.2c.07-.03.13-.03.15 0m-41.46 5.95c-.03-.03-.04-.1 0-.2.06-.25.15-.47.3-.69v-.04c.59-1.08 2.46-3.23 8.3-4.25 7.17-1.22 16.65-.42 20.4-.1l1.82.15.37.01 1.07.07 1.31.05h.12c.36 0 1.3.03 1.86 0l1.28-.1.47-.05c.07 0 .1.04.11.09 0 .04-.01.09-.07.09-1.74.42-3.51.73-5.3.91-2.85.26-5.73.33-8.6.2-.41-.02-.72-.08-1.39-.21l-.06-.02c-.08-.01-.1-.14 0-.14h.18c2.63.01 3.6.01 5.85-.09l1-.06.83-.06c.07 0 .11-.04.11-.08 0-.05-.05-.1-.18-.1l-.64-.02-.63-.03h-.68l-.47.03c-2.66.12-4.33.13-7.27.15h-.07l-.69-.12-.2-.06h-.07c-.08-.03-.06-.13.01-.13h.19c.81-.07 2.9-.12 2.9-.12l.49-.03h.29l.14-.01h.18c.1 0 .14-.06.16-.1 0-.05-.03-.09-.15-.1-.43-.05-.86-.07-1.3-.06h-.66l-.35.03-.73.01-2.51.15-.24.03-.2.01h-.29l-.26-.03-1.08-.07-.4-.02-1.21-.02h-.77a21.9 21.9 0 0 0-7.12 1.06 11.16 11.16 0 0 0-4.1 2.5l-.04.04-.07.09-.37.25c-.23.14-.48.29-.73.52l-.36.34-.3.29c-.08.04-.14.05-.16.04"/></g></svg>