<svg xmlns="http://www.w3.org/2000/svg" width="32" height="32" viewBox="0 0 32 32">
  <g fill="none" fill-rule="evenodd">
    <rect width="32" height="32" fill="#FFF"/>
    <g transform="translate(7 3)">
      <path fill="#00529B" d="M-2.84217094e-14,6.55860669 L1.86467304,5.15410417 C2.68886571,7.30286518 5.22683302,10.5830817 8.21965121,12.8432532 C11.5554112,15.3821883 15.3714867,16.3854301 16.9511548,16.2956197 L17.0450517,16.2887591 L17.0450517,19.1543826 C14.3123536,19.2648798 8.17581882,16.9216071 4.46731109,12.8432532 C2.85269825,11.0283916 1.21844368,9.16194161 0.148888941,6.88649185 L-2.84217094e-14,6.55860669 L1.86467304,5.15410417 L-2.84217094e-14,6.55860669 Z M3.27521442,3.9952523 L5.18300128,2.59074978 C7.70119098,7.5812606 12.2995253,10.9965834 16.8260901,11.3674807 L17.0450523,11.3830452 L17.0450523,14.1929634 C11.5958395,13.8680757 6.29318279,9.57952998 3.40122936,4.23185696 L3.27521442,3.9952523 L5.18300128,2.59074978 L3.27521442,3.9952523 Z M8.45749632,0 C10.6699542,4.1066631 14.638582,6.34035177 17.0450522,6.42071342 L17.0450522,9.31555932 C13.2941492,8.76489936 9.65031221,6.67001718 6.52743397,1.48851698 L8.45749632,0 Z"/>
      <path fill="#CE1041" fill-rule="nonzero" d="M17.0450522,16.2604495 L17.0450522,19.1278994 C15.5928348,19.2091743 13.61894,20.036534 11.7758239,21.525051 C10.6132722,22.4850934 9.48700182,23.7128901 8.61747089,25.2328038 L8.45749633,25.5212168 L6.52743398,24.0600959 C8.15426241,21.3588485 9.93198923,19.4858741 11.7758239,18.2740569 C13.48888,17.1435145 15.2457685,16.5362361 17.0450522,16.2604495 Z M17.0457708,11.3830451 L17.0457708,14.1929633 C15.2673254,14.3317698 13.4673231,14.9098258 11.775824,15.9024749 C9.21275185,17.3701309 6.89379633,19.7710789 5.33178353,22.7001638 L5.1830012,22.9852587 L3.27449577,21.634635 C5.20527667,17.9133426 8.28432252,14.7171405 11.775824,12.8989581 C13.4673231,12.0442023 15.2457685,11.4926292 17.0457708,11.3830451 Z M11.7758236,7.71654506 C13.8797784,6.83530648 15.8098407,6.36592137 17.0457704,6.44993582 L17.0457704,9.31555931 C16.0476853,9.20414883 14.0313953,9.61965511 11.7758236,10.638787 C10.6045646,11.1894469 9.39019181,11.8780002 8.21965139,12.7610652 C5.2268332,15.0486327 2.68886589,18.3818149 1.90850562,20.5333155 L1.86680006e-07,19.1278998 C1.06275603,16.729835 2.77653068,14.7171409 4.46731128,12.7884612 C6.50587675,10.5556857 9.26013176,8.81877818 11.7758236,7.71654506 Z"/>
    </g>
  </g>
</svg>
