<svg xmlns="http://www.w3.org/2000/svg" xmlns:xlink="http://www.w3.org/1999/xlink" width="32" height="32" viewBox="0 0 32 32">
  <defs>
    <polygon id="brandicon--kfh-a" points="0 0 25.953 0 25.953 25.741 0 25.741"/>
  </defs>
  <g fill="none" fill-rule="evenodd">
    <rect width="32" height="32" fill="#0C9350"/>
    <g transform="translate(3 3)">
      <mask id="brandicon--kfh-b" fill="#fff">
        <use xlink:href="#brandicon--kfh-a"/>
      </mask>
      <path fill="#FFF" d="M22.6334301,18.4476256 C22.6471143,19.2933098 22.7028286,20.1464226 22.6134902,20.9835053 C22.5325579,21.7416105 21.5734902,22.4725429 20.6648586,22.4827083 C17.9301669,22.5135955 15.1946932,22.5173098 12.460197,22.4811444 C11.6221368,22.4700015 11.2829639,21.6450391 10.7369371,21.1658962 C10.735009,21.1641368 10.8405729,20.9795955 10.908212,20.9704075 C11.1326331,20.9401068 11.3627233,20.9467534 11.5904677,20.9465579 C12.9254602,20.944994 14.2602571,20.9457759 15.5950541,20.9461669 C16.9951444,20.9463624 18.3952346,20.9573098 19.7951293,20.9430391 C20.8114752,20.9324827 21.0988436,20.7205729 21.2008887,19.7343323 C21.2814301,18.9535504 21.9808887,18.7529789 22.3775353,18.2734451 C22.3853549,18.2640617 22.6322571,18.3852647 22.6334301,18.4476256 M16.0184827,23.5035504 C16.0349038,23.5037459 16.0894451,23.6906331 16.0603173,23.7172195 C15.3016256,24.402603 14.7900316,25.3878662 13.707415,25.6803173 C13.5520015,25.7223474 13.3860316,25.7260617 13.2761669,25.7409188 C12.529009,25.7532346 11.9863323,25.4570692 11.5034752,24.9679564 C9.79001654,23.2318211 8.11018195,21.4573699 6.31344511,19.8113549 C5.48418195,19.0514902 5.66266316,18.2034602 5.65738496,17.3233699 C5.65718947,17.3014752 5.90761053,17.2223023 5.95257293,17.2643323 C6.42682857,17.7088737 6.88446767,18.1712045 7.34425714,18.630994 C8.90777594,20.1947083 10.4675805,21.7619414 12.0344226,23.3219414 C12.9737459,24.2569639 12.9891895,24.1676256 14.1544977,23.5567233 C14.6504526,23.2967233 15.389791,23.4990541 16.0184827,23.5035504 M7.50573083,22.270994 C7.43007669,22.3392195 7.3554,22.4658962 7.27935489,22.4668737 C6.46651278,22.4752797 5.64330977,22.5417459 4.84317444,22.4373549 C3.92887368,22.3183023 3.27770075,21.4040015 3.26733985,20.363806 C3.24876842,18.4761669 3.25971579,16.5883323 3.25854286,14.7006932 C3.25815188,14.0823624 3.32520451,13.4550391 3.24309925,12.8476556 C3.1174,11.9200617 3.53418195,11.2972346 4.20197143,10.7658962 C4.32180602,10.6704977 4.46118947,10.5999263 4.59177594,10.5178211 C4.6254,10.6632647 4.6877609,10.8085128 4.68854286,10.9539564 C4.69577594,12.4185579 4.69284361,13.8831594 4.69284361,15.3479564 L4.69460301,15.3479564 C4.69460301,16.6821669 4.68678346,18.0167684 4.69714436,19.3509789 C4.70613684,20.5284075 4.9321218,20.6314301 6.02255789,20.9862421 C6.59553534,21.1727383 7.01622707,21.8276256 7.50573083,22.270994 M8.38230226,8.75549023 C8.39833233,8.6727985 8.44857293,8.59636241 8.48356541,8.51718947 C8.52129474,8.70016692 8.58795639,8.88314436 8.58873835,9.06631729 C8.58971579,9.28252782 8.53341504,9.49893383 8.50213684,9.71533985 C8.46049774,9.65004662 8.39755038,9.58944511 8.38210677,9.51848271 C8.35512932,9.39493383 8.35747519,9.26493383 8.34730977,9.13747519 C8.35806165,9.00962556 8.35825714,8.88021203 8.38230226,8.75549023 M9.68347519,8.91481353 C9.8461218,9.03347519 9.97983609,9.13121955 10.1135504,9.22896391 C9.9935203,9.29953534 9.8670391,9.43559549 9.75521955,9.42464812 C9.60058797,9.4094 9.45690376,9.28330977 9.30852782,9.20452782 C9.41839248,9.11968571 9.52845263,9.03484361 9.68347519,8.91481353 M9.74876842,10.0234301 C9.60997143,9.94914436 9.48700902,9.88326466 9.36424211,9.81758045 C9.48798647,9.75228722 9.61349023,9.63343008 9.73508421,9.63714436 C9.85120451,9.64085865 9.96341504,9.77222707 10.077385,9.84749023 C9.9761218,9.9016406 9.87485865,9.95598647 9.74876842,10.0234301 M8.56723459,10.1899865 C8.76174586,10.1770842 8.95743008,10.1876406 9.15272331,10.1878361 C9.34801654,10.1880316 9.54741504,10.1622271 9.73762556,10.1929188 C10.2369038,10.2734602 10.3430541,10.0087684 10.3495053,9.58494887 C10.3618211,8.75724962 10.2525429,8.6207985 9.5878812,8.7091594 C9.49228722,8.72186617 9.39024211,8.72088872 9.29621203,8.70153534 C9.20746015,8.6831594 9.1251594,8.63252782 9.0401218,8.59597143 C9.11167068,8.5549188 9.1789188,8.49021203 9.25535489,8.47652782 C9.58064812,8.41768571 9.9086782,8.37389624 10.2355353,8.32463308 C9.88365564,8.29687368 9.53177594,8.26735489 9.17970075,8.24252782 C9.08273835,8.23568571 8.98264812,8.25425714 8.88744511,8.23920451 C8.79967068,8.22532481 8.71658797,8.18192632 8.63135489,8.15143008 C8.7195203,8.11858797 8.80670827,8.06052782 8.89624211,8.05700902 C9.22114436,8.04449774 9.54721955,8.0591594 9.87192632,8.04430226 C9.99195639,8.03863308 10.1098361,7.97920451 10.2284977,7.94421203 C10.1041669,7.91645263 9.97924962,7.86191128 9.85550526,7.86445263 C7.55088872,7.91195639 8.06991128,7.52273835 7.98370075,9.65395639 C7.96512932,10.1098361 8.17938496,10.2155955 8.56723459,10.1899865 M2.52741504,11.6442271 C1.66961053,12.5051594 1.75230226,12.5933248 2.31961053,13.7148436 C2.58254286,14.2342571 2.43475338,14.9630391 2.45958045,15.5974 C2.46094887,15.6339564 2.32938496,15.7199714 2.2767985,15.7078511 C1.66433233,15.5676857 0.129550376,13.431385 -5.86466165e-05,12.6736707 C0.251144361,12.2023474 0.412227068,11.6438361 0.768798496,11.2745579 C2.62046767,9.35779098 4.52472331,7.49204662 6.40473835,5.60245263 C7.02619699,4.97806165 7.8009188,5.24822707 8.52422707,5.22457293 C8.54162556,5.22418195 8.62607669,5.49239248 8.57642256,5.5614 C8.42628722,5.76998647 8.22806165,5.94494887 8.04410677,6.12870827 C6.20533985,7.9672797 4.36266316,9.80213684 2.52741504,11.6442271 M3.27750526,7.1491594 C3.27535489,6.27102406 3.21807669,5.38330977 3.32774586,4.51749023 C3.4172797,3.80923459 4.25749023,3.19070827 5.04218195,3.16568571 C6.47374586,3.12013684 7.90726466,3.12717444 9.34019699,3.11974586 C10.5127383,3.11368571 11.6878211,3.16333985 12.8572346,3.10215188 C13.6419263,3.06109925 14.254197,3.2716406 14.7216105,3.89329474 C14.869009,4.08936992 14.9952947,4.3012797 15.1311594,4.50595639 C14.9116256,4.53273835 14.6922872,4.58141504 14.4725579,4.58258797 C13.1045278,4.58962556 11.7363023,4.58610677 10.3682722,4.58610677 L10.3682722,4.58825714 C9.06533985,4.58825714 7.76240752,4.58317444 6.45947519,4.58962556 C5.14149023,4.59627218 5.08440752,4.74191128 4.68111429,5.97974586 C4.51084361,6.50248271 3.90658797,6.88446767 3.48941504,7.32060301 C3.48257293,7.3276406 3.27770075,7.20936992 3.27750526,7.1491594 M10.3145128,13.9271444 C10.4710992,13.9294902 10.6251444,14.0866632 10.9942271,14.3009188 C10.6009038,14.488588 10.4099113,14.6590541 10.2746331,14.6226932 C10.1280165,14.583009 10.0334,14.3507684 9.91610677,14.2023925 C10.0490391,14.1038662 10.1831444,13.925385 10.3145128,13.9271444 M11.6616256,13.9275353 C11.766994,13.9183474 11.8909338,14.1261519 12.1304075,14.3546782 C11.8330692,14.4909338 11.6395353,14.6584677 11.5071895,14.6191744 C11.3609639,14.5757759 11.2708436,14.3431444 11.1562872,14.192618 C11.3240165,14.0970241 11.4868586,13.9427835 11.6616256,13.9275353 M14.2418812,14.3419714 C14.3251594,13.534212 14.3798962,12.7229338 14.4862421,11.9184977 C14.5042271,11.7822421 14.7098812,11.5973098 14.8504376,11.5756105 C14.9497459,11.5603624 15.172603,11.7701218 15.1911744,11.9005128 C15.2910692,12.6068135 15.3450241,13.3197609 15.4154,14.0301669 C15.432603,14.7178962 15.3829489,14.8566932 14.9505278,14.8692045 C14.8889489,14.8711594 14.8191594,14.8703774 14.7409639,14.8682271 C14.3726632,14.8582571 14.202197,14.7261068 14.2418812,14.3419714 M14.2526331,10.8349038 C14.3271143,10.4587835 14.5736256,10.1166782 14.7448737,9.75971579 C14.9968586,10.0707383 15.2488436,10.3817609 15.5921218,10.8057759 C15.2898962,11.0505278 15.0947985,11.3222571 14.8500466,11.3789489 C14.4946481,11.4612496 14.1789338,11.2071143 14.2526331,10.8349038 M8.6675203,15.2408286 C9.70771579,15.2134602 10.7490842,15.2324226 11.7900617,15.2334 C12.9283925,15.2343774 14.0673098,15.2179564 15.2050541,15.242197 C15.6710992,15.2519714 15.8335504,15.0860015 15.8300874,14.6223023 C15.8147835,12.572994 15.8204526,10.5234902 15.8300874,8.47398647 C15.831791,8.08105414 15.7205579,7.84549023 15.2793398,7.88673835 C15.1505128,7.89866316 15.0193398,7.88791128 14.8891444,7.8875203 C13.9206932,7.88517444 13.9167835,7.88517444 13.9144376,8.82117444 C13.9117008,10.0570541 13.8825729,11.2941068 13.9298812,12.5280316 C13.9543173,13.1631744 13.7695805,13.3772346 13.1172346,13.3567083 C11.6547835,13.3113549 10.189009,13.3743023 8.72655789,13.3283624 C8.10392632,13.3088135 7.90061805,13.5238511 7.98213684,14.1064075 C8.00442256,14.2659263 8.00051278,14.4330692 7.98194135,14.5935654 C7.91997143,15.1247083 8.18173083,15.2535353 8.6675203,15.2408286 M9.91454286,2.34619699 C9.90242256,2.34658797 9.82794135,2.08815188 9.87466316,2.03967068 C10.4394301,1.45574586 10.9852346,0.84464812 11.6094301,0.329535338 C12.1982421,-0.156058647 13.3217158,-0.0872466165 13.9877459,0.420046617 C14.3992496,0.733415038 14.7652045,1.10992632 15.1335053,1.47646767 C16.6315353,2.96785113 18.1039564,4.48562556 19.6264226,5.9514 C20.1362571,6.4418812 20.4525579,6.93490376 20.3591143,7.66036241 L20.1765278,8.64699398 C19.9376406,8.43488872 19.6872195,8.23431729 19.4614301,8.00911429 C17.6201218,6.17112932 15.7809639,4.33118947 13.9466932,2.48616692 C13.0456857,1.5798812 12.9528286,1.64243759 11.8055053,2.20505414 C11.2770992,2.46407669 10.5514451,2.32273835 9.91454286,2.34619699 M10.3737459,11.3785579 C10.4980767,11.3918511 10.6018812,11.5961368 10.7148737,11.715385 C10.5762722,11.8444075 10.4476406,12.0600316 10.2965278,12.0770391 C10.1567534,12.0928737 9.99293383,11.8960165 9.63694887,11.6561519 C10.034182,11.4954602 10.2120767,11.3611594 10.3737459,11.3785579 M11.5996556,11.4256707 C11.8219263,11.4115955 12.0459564,11.4178511 12.2692045,11.4207835 C12.3626481,11.4219564 12.4558962,11.4346632 12.6304677,11.4489338 C12.4639113,11.488618 12.374182,11.5079714 12.2854301,11.5316256 C12.0776256,11.5865579 11.8729489,11.6643624 11.6616256,11.688994 C11.5814752,11.6985729 11.4870541,11.5879263 11.3990842,11.532212 C11.4659414,11.4948737 11.5308436,11.4299714 11.5996556,11.4256707 M12.1820165,10.3367985 C12.3223774,10.4009188 12.4842421,10.4185128 12.6361368,10.457415 C12.6437609,10.5559414 12.6511895,10.6546632 12.659009,10.7531895 C12.4998812,10.8237609 12.3387985,10.9520015 12.1824075,10.9465278 C12.0584677,10.9420316 11.940197,10.7737158 11.8195805,10.6781218 C11.9347233,10.5602421 11.7613248,10.1446331 12.1820165,10.3367985 M8.76643759,12.5479714 C9.37773083,12.4899113 9.9987985,12.5358511 10.6155654,12.5356556 C11.2647835,12.5354602 11.9159564,12.5059414 12.5628286,12.5448436 C13.0957308,12.5767083 13.2261218,12.347791 13.2114602,11.8623925 C13.1840917,10.9543474 13.2161519,10.0445429 13.2020767,9.13591128 C13.1809639,7.79485865 13.4900316,7.90628722 11.8612195,7.88106917 C11.4311444,7.87442256 11.2870692,8.03042256 11.3023173,8.44446767 C11.3236256,9.02780602 11.2804226,9.61407669 11.3130692,10.1966331 C11.3388737,10.6574 11.1920617,10.8356857 10.7137008,10.8108586 C10.033791,10.7754752 9.34840752,10.8350992 8.66967068,10.7909188 C8.09688872,10.7537759 7.90746015,10.9860165 7.98389624,11.5177459 C7.99308421,11.5812797 7.99288872,11.6485278 7.98409173,11.7120617 C7.89944511,12.3153398 8.0869188,12.6126782 8.76643759,12.5479714 M18.4644376,3.36586617 C18.5355955,3.29724962 18.6059714,3.17037744 18.6783023,3.1694 C19.5235955,3.15806165 20.372994,3.11603158 21.213009,3.18445263 C21.8653549,3.23762556 22.5448737,4.02231729 22.651806,4.72509925 C22.7100617,5.10884361 22.7319564,5.50138496 22.7331293,5.89021203 C22.7399714,8.26442256 22.6854301,10.640197 22.7599113,13.0118662 C22.7917759,14.0211744 22.0678812,14.4062872 21.5414301,14.9864977 C21.446618,14.8887534 21.2700917,14.7919865 21.2689188,14.6930692 C21.2513248,13.2298361 21.256603,11.766212 21.256994,10.302588 C21.2571895,8.9691594 21.2618812,7.63573083 21.2558211,6.30230226 C21.2503474,5.0674 21.0615053,4.96730977 19.9090992,4.57320451 C19.3548887,4.38358045 18.9414301,3.7812797 18.4644376,3.36586617 M25.1804526,14.2211594 C23.6972797,15.7299414 22.1939714,17.218588 20.6986782,18.7154451 C20.4457158,18.9687985 20.1573699,19.1955654 19.9450692,19.4792195 C19.5101068,20.0600165 18.9609789,20.2979263 18.2462722,20.2091744 C17.9346632,20.1704677 17.6230541,20.1321519 17.3114451,20.0936406 C17.5075203,19.8492797 17.6834602,19.5847835 17.9027985,19.3638812 C19.7591594,17.4928586 21.6247083,15.631415 23.484588,13.7639113 C24.3771895,12.867791 24.2943023,12.8214602 23.7457609,11.7138211 C23.4886932,11.194603 23.6530992,10.4667985 23.6392195,9.83321955 C23.6392195,9.8306782 23.8685278,9.77926466 23.9168135,9.82637744 C24.4991744,10.3938812 25.1331444,10.9256105 25.6224526,11.5668135 C26.2052045,12.3303925 25.9938812,13.3936556 25.1804526,14.2211594 M14.912212,17.1556406 C14.8977459,17.1267083 14.9575654,17.0244677 15.0027233,17.0082421 C15.2355504,16.924182 15.4816707,16.7818662 15.7100015,16.8031744 C15.9956105,16.8299564 16.2683173,16.9953398 16.5466932,17.1010992 C16.5191293,17.1089188 16.4911744,17.1171293 16.463415,17.1251444 C16.4911744,17.1366782 16.5191293,17.1484075 16.5466932,17.1587684 C16.2800466,17.2354 16.0139865,17.3151594 15.7459714,17.3863173 C15.6863474,17.4021519 15.6190992,17.3886632 15.5553699,17.3886632 L15.5553699,17.3784977 C15.3962421,17.3784977 15.2347684,17.3937459 15.0789639,17.3710692 C15.0146481,17.3616857 14.9454451,17.279385 14.912212,17.2135053 C14.9075203,17.2041218 14.912212,17.1869188 14.9196406,17.1679564 C14.9172947,17.1640466 14.9143624,17.1595504 14.912212,17.1556406 M11.6524376,17.0704075 C11.7265278,17.1175203 11.8219263,17.131791 11.9077459,17.1605278 C11.8090241,17.1861368 11.7114752,17.2246481 11.6111895,17.2348135 C11.385009,17.2578812 11.1576556,17.2666782 10.9308887,17.2813398 C10.9304977,17.2723474 10.9303023,17.2635504 10.9299113,17.2545579 C10.7348135,17.2545579 10.5387383,17.2658962 10.345009,17.2498662 C10.2468737,17.2416556 10.1528436,17.184182 10.0570541,17.1487985 C10.1456105,17.1204526 10.2353398,17.0653248 10.3225278,17.0684526 C10.6701068,17.0817459 10.9502421,17.0545729 11.0317609,16.6092496 C11.047009,16.5259714 11.4207835,16.4917609 11.6328887,16.4673248 C11.7478361,16.4540316 11.8707985,16.5089639 11.9902421,16.533009 C11.8739263,16.5719113 11.7548737,16.6043624 11.6422722,16.6520617 C11.5343624,16.6980015 11.4330992,16.7595805 11.3287083,16.8145128 C11.4358361,16.9009188 11.5369038,16.9969038 11.6524376,17.0704075 M17.5747684,10.7956105 C17.6990992,10.7815353 17.8435654,10.9435955 17.9790391,11.0264827 C17.9749338,11.0952947 17.9706331,11.1643023 17.9667233,11.2331143 C17.754618,11.2804226 17.5378211,11.3775805 17.3327534,11.3568586 C17.2031444,11.3437609 17.0909338,11.1549188 16.9710992,11.0450541 C17.1716707,10.9559113 17.3669639,10.8194602 17.5747684,10.7956105 M17.4635353,9.87329474 C17.5585429,9.97827218 17.7211895,10.076994 17.7315504,10.189791 C17.7448436,10.3348436 17.6357609,10.4910391 17.5317609,10.770197 C17.356994,10.5447985 17.191415,10.4228135 17.2070541,10.3319113 C17.2352045,10.1690692 17.3720466,10.0251895 17.4635353,9.87329474 M17.2103774,11.7278962 C17.2995203,11.6414902 17.5124075,11.6827383 17.6711444,11.6680767 C17.6738812,12.0723474 17.6830692,12.4768135 17.6687985,12.8803023 C17.6674301,12.9162722 17.4983323,12.9907534 17.4328436,12.9692496 C17.3323624,12.936212 17.1966932,12.8474602 17.1785128,12.7606632 C17.139415,12.5767083 17.1663925,12.3786782 17.1663925,11.9671744 C17.1597459,12.0275805 17.122603,11.8131293 17.2103774,11.7278962 M17.9956556,13.4090992 C17.9845128,13.4814301 17.9733699,13.5537609 17.9620316,13.6258962 C17.7430842,13.6661669 17.5182722,13.7541368 17.3077308,13.7279414 C17.1863323,13.7128887 17.087806,13.5132947 16.9789188,13.396588 C16.9898662,13.3905278 17.0008135,13.3834902 17.0115654,13.3770391 C17.0008135,13.3637459 16.9898662,13.3506481 16.9789188,13.3387233 C17.1542722,13.2419564 17.3290391,13.0709038 17.5047835,13.0701193 C17.6680165,13.0693398 17.8318361,13.2503624 17.9956556,13.3514301 L17.9876406,13.4034301 C17.9903774,13.4051895 17.9931143,13.4073398 17.9956556,13.4090992 M17.7530541,15.7623925 L17.7438662,15.7623925 C17.7446481,15.9619865 17.7485579,16.1621669 17.7489489,16.3617609 C17.7501218,16.5801218 17.747385,16.7980917 17.7303774,17.0152797 C17.7215805,17.1255353 17.5518962,17.2232797 17.4561068,17.3268887 C17.3579714,17.227385 17.1775353,17.1304226 17.174603,17.0279865 C17.1618962,16.5818812 17.1556406,16.135385 17.1544677,15.6888887 C17.1529038,15.2480617 17.1564226,14.8070391 17.1650241,14.3664075 C17.1675654,14.2500917 17.3139865,14.1367083 17.3935504,14.0219564 C17.5135805,14.1327985 17.7254902,14.2348436 17.7366331,14.3554602 C17.7583323,14.5878962 17.7616556,14.8218962 17.7600917,15.0562872 C17.7595053,15.2914602 17.7530541,15.5272195 17.7530541,15.7623925 M17.7356556,17.8040767 C18.284588,17.8152195 18.4890692,17.6314602 18.4790992,17.0842872 C18.4546632,15.7510541 18.4656105,14.4170391 18.4648286,13.0832195 C18.4640466,11.5865579 18.4458662,10.0897008 18.4775353,8.59382105 C18.4894602,8.03394135 18.2916256,7.81558045 17.7464075,7.88439248 C17.6183624,7.90061805 17.4864075,7.8857609 17.3564075,7.88673835 C16.4706481,7.89377594 16.4661519,7.89397143 16.4647835,8.80553534 C16.4618511,10.8870992 16.4665429,12.9688586 16.4616556,15.0502271 C16.4591143,16.0208286 16.4520767,16.0220015 15.5010241,16.021806 C13.2235805,16.0216105 10.9453549,16.0560165 8.66947519,16.0003023 C7.83512932,15.9799714 8.00168571,16.4780767 7.98330977,16.9456857 C7.96415188,17.426588 7.93678346,17.825385 8.66106917,17.7991895 C10.1555805,17.7446481 11.653415,17.7827684 13.1496857,17.7827684 L13.1496857,17.7933248 C14.678603,17.7933248 16.2075203,17.773385 17.7356556,17.8040767" mask="url(#brandicon--kfh-b)"/>
    </g>
  </g>
</svg>
