<svg width="412" height="72" xmlns="http://www.w3.org/2000/svg"><path d="M179.4 48.1v-15c0-5.7-3.6-9.5-9.4-9.5a9.3 9.3 0 0 0-8.4 4.3 8.8 8.8 0 0 0-8-4.3 8 8 0 0 0-7 3.5v-3h-5.2v24h5.3V34.8c0-4.1 2.3-6.3 5.9-6.3 3.5 0 5.2 2.2 5.2 6.3V48h5.2V34.8c0-4.1 2.4-6.3 5.9-6.3 3.4 0 5.2 2.2 5.2 6.3V48h5.3zm77.8-24h-8.5V17h-5.3v7.3h-4.8v4.7h4.8v11c0 5.5 2.2 8.8 8.4 8.8 2.3 0 4.5-.6 6.5-1.8l-1.5-4.5c-1.4.8-3 1.3-4.6 1.4-2.6 0-3.5-1.6-3.5-4V28.9h8.5v-4.7zm44.4-.5a7 7 0 0 0-6.3 3.5v-3h-5.1v24h5.2V34.7c0-4 1.7-6.2 5.1-6.2 1.1 0 2.2.2 3.3.6l1.6-4.9c-1.2-.4-2.5-.6-3.8-.6zM234.5 26c-3-1.8-6.4-2.7-9.8-2.5-6 0-10 2.9-10 7.6 0 4 3 6.3 8.3 7l2.4.4c2.9.4 4.2 1.2 4.2 2.5 0 1.9-1.9 3-5.4 3-2.9 0-5.7-.8-8-2.6l-2.4 4.1c3 2.1 6.7 3.2 10.4 3.1 6.9 0 10.9-3.3 10.9-7.8 0-4.2-3.2-6.4-8.4-7.2l-2.4-.3c-2.3-.3-4-.8-4-2.4 0-1.7 1.6-2.8 4.5-2.8 2.6 0 5.2.8 7.4 2l2.3-4.1zM374 23.6a7 7 0 0 0-6.3 3.5v-3h-5.2v24h5.2V34.7c0-4 1.7-6.2 5.2-6.2 1 0 2.2.2 3.2.6l1.6-4.9c-1.2-.4-2.4-.6-3.7-.6zM307 36c0 7.3 5 12.6 12.7 12.6 3.1.2 6.2-.9 8.6-2.9l-2.5-4.2c-1.8 1.4-4 2.2-6.3 2.2-4.1 0-7.2-3-7.2-7.7 0-4.6 3-7.6 7.2-7.6 2.3 0 4.5.7 6.3 2.1l2.5-4.2c-2.4-2-5.5-3-8.6-2.8-7.7 0-12.8 5.3-12.8 12.5zm48.7 0v-12h-5.2v3a9 9 0 0 0-7.6-3.6c-6.7 0-12 5.3-12 12.6s5.3 12.6 12 12.6a9 9 0 0 0 7.6-3.5V48h5.2V36zm-19.4 0c0-4.2 2.8-7.6 7.3-7.6 4.3 0 7.2 3.3 7.2 7.6 0 4.4-3 7.7-7.2 7.7-4.5 0-7.3-3.5-7.3-7.7zm-62.9-12.5c-7 0-11.9 5-11.9 12.5 0 7.6 5.1 12.6 12.3 12.6 3.6.1 7-1 9.8-3.4l-2.5-3.8c-2 1.6-4.5 2.5-7 2.5-3.4 0-6.4-1.6-7.2-5.9h17.8v-2c0-7.4-4.6-12.5-11.3-12.5zm0 4.6c3.3 0 5.5 2.1 6 5.8H267c.6-3.4 2.6-5.8 6.4-5.8zm130.6 8V14.4h-5.2v12.6a9 9 0 0 0-7.6-3.5c-6.7 0-12 5.2-12 12.5s5.3 12.6 12 12.6a9 9 0 0 0 7.6-3.5V48h5.2V36zm6 9.7a1.5 1.5 0 0 1 1.5 2.1 1.5 1.5 0 0 1-1.4 1c-.6 0-1.2-.4-1.5-1v-1.2a1.5 1.5 0 0 1 1.5-.9zm0 2.7a1.1 1.1 0 0 0 1-.3 1.2 1.2 0 0 0-.4-2h-1a1.2 1.2 0 0 0-.4 2 1.2 1.2 0 0 0 1 .3h-.1zm.2-1.9l.4.1c.1.1.2.2.1.4v.2l-.4.2.5.5h-.4l-.4-.5h-.2v.5h-.3v-1.4h.7zm-.4.3v.3H410.4v-.1-.1h-.2l-.4-.1zM384.6 36c0-4.2 2.8-7.6 7.3-7.6 4.3 0 7.2 3.3 7.2 7.6 0 4.4-2.9 7.7-7.2 7.7-4.5 0-7.3-3.5-7.3-7.7zm-175.9 0v-12h-5.2v3a9 9 0 0 0-7.5-3.5c-6.7 0-12 5.2-12 12.5 0 7.4 5.3 12.6 12 12.6a9 9 0 0 0 7.6-3.5v2.9h5.2v-12zm-19.3 0c0-4.2 2.7-7.6 7.2-7.6 4.3 0 7.2 3.3 7.2 7.6 0 4.4-2.9 7.7-7.2 7.7-4.5 0-7.2-3.4-7.2-7.7z" fill="#231F20"/><path fill="#FF5F00" d="M43.5 7.7H75v56.6H43.5z"/><path d="M45.5 36c0-11 5-21.5 13.7-28.3a36 36 0 1 0 0 56.6A36 36 0 0 1 45.5 36z" fill="#EB001B"/><path d="M117.5 36a36 36 0 0 1-58.3 28.3 36 36 0 0 0 0-56.6A36 36 0 0 1 117.5 36zM114 58.3V57h.5V57h-1.2v.2h.5v1.2h.2zm2.3 0v-1.4h-.3l-.4 1-.4-1h-.4v1.4h.2v-1l.4.9h.3l.3-1v1.1h.3z" fill="#F79E1B"/></svg>
