<svg xmlns="http://www.w3.org/2000/svg" xmlns:xlink="http://www.w3.org/1999/xlink" width="32" height="32" viewBox="0 0 32 32">
  <defs>
    <polygon id="brandicon--maybank-a" points="0 0 25.961 0 25.961 25.925 0 25.925"/>
  </defs>
  <g fill="none" fill-rule="evenodd">
    <rect width="32" height="32" fill="#FFD000"/>
    <g transform="translate(3 3)">
      <mask id="brandicon--maybank-b" fill="#fff">
        <use xlink:href="#brandicon--maybank-a"/>
      </mask>
      <path fill="#27221F" d="M10.9603992,8.60887786 C10.9690328,8.55370229 10.9777656,8.49852672 10.9864985,8.44335115 C10.9459107,8.47123664 10.9053229,8.49922137 10.8648344,8.52710687 C10.8965901,8.55439695 10.9285443,8.58158779 10.9603992,8.60887786 M12.8725839,4.77399405 C12.9017255,4.79815239 12.9306505,4.82231072 12.9597922,4.84646905 C12.9306505,4.82231072 12.9017255,4.79815239 12.8725839,4.77399405 M9.15538397,7.00858779 C9.10397939,7.03448855 9.05257481,7.06038931 8.95988779,7.10712977 C9.07877328,7.14603053 9.11122366,7.16865649 9.13097176,7.16051908 C9.16759008,7.14543511 9.19686489,7.11238931 9.22911679,7.08678626 C9.20460534,7.06068702 9.17999466,7.03458779 9.15538397,7.00858779 M7.1253,11.1805954 C6.51876565,11.1173817 6.20289542,11.3462214 5.92910153,12.0697557 C6.36276565,11.7474351 6.73321603,11.4721527 7.1253,11.1805954 M6.7602084,12.0993282 C6.20944504,12.4933969 5.90707099,13.0598397 5.7223916,13.7156947 C6.26313206,13.0653969 6.73520076,12.3275725 7.75644504,12.3124885 C7.39442977,11.8708855 7.15159771,11.8193817 6.7602084,12.0993282 M9.22911679,7.08678626 C9.58676565,6.96571756 9.94342214,6.8420687 10.3020634,6.72417557 C10.6143611,6.62156489 10.9442237,6.55735878 11.2364756,6.41485496 C11.4229412,6.3239542 11.5550252,6.12131298 11.7114221,5.96878626 C11.524758,5.85506107 11.338987,5.73964885 11.1501397,5.62979389 C11.1273153,5.61649618 11.0874221,5.63257252 11.0554679,5.63505344 C10.7909031,5.88463359 10.4913076,6.07754962 10.1974679,6.27870229 C9.84755954,6.51825954 9.50251374,6.76496183 9.15538397,7.00858779 C9.17999466,7.03458779 9.20460534,7.06068702 9.22911679,7.08678626 M7.82382672,12.9169389 C7.61533053,12.892229 7.36158244,12.9635802 7.17700229,13.0728397 C6.5644145,13.4356489 6.17510916,13.9799618 5.96889542,14.7380305 C6.35244504,14.4403206 6.66384962,14.1610687 7.01137634,13.9379847 C7.52036107,13.6112977 7.73560534,13.6435496 8.1831626,14.019458 C8.60144504,13.5075954 8.44524656,12.990771 7.82382672,12.9169389 M14.2578344,5.50138168 C14.2529718,5.61242748 14.3161855,5.76277099 14.3999412,5.83531298 C14.8146511,6.19405344 15.2467275,6.53274809 15.7289183,6.9241374 C15.647445,5.9818855 15.4973992,5.135 14.7465748,4.48212214 C14.3689794,4.78975573 14.2740099,5.13490076 14.2578344,5.50138168 M10.9864985,8.44335115 C10.9777656,8.49852672 10.9690328,8.55370229 10.9603992,8.60887786 C10.6295443,9.58854198 9.99284198,10.2242519 8.83197176,10.3965267 C9.46202519,10.7177557 10.0144756,10.7990305 10.5763534,10.5749542 C10.7353305,10.5114427 10.8626511,10.318229 10.9591092,10.1572672 C11.2878802,9.60918321 11.5958115,9.04869466 11.9129718,8.49356489 C12.0128038,8.31880916 12.1166053,8.14623664 12.236384,7.94230534 C12.0228267,7.87293893 11.8858802,7.82858015 11.6544603,7.75345802 C12.0139947,7.54952672 12.282529,7.39392366 12.5543382,7.24417557 C12.828529,7.09303817 13.1183992,6.96670992 13.3789947,6.79542748 C13.7878496,6.52669466 13.7918191,6.18790076 13.3764145,5.9510229 C13.1193916,5.80435115 12.8183076,5.73498473 12.4377351,5.59416794 C12.7439794,6.09580916 12.7476511,6.12240458 12.3873229,6.37664885 C11.903842,6.71792366 11.3743153,7.01057252 11.2392542,7.68131298 C10.915445,7.68131298 10.6223,7.67178626 10.3299489,7.68438931 C10.0894985,7.69461069 9.81550611,7.66583206 9.61772748,7.77042748 C9.27238397,7.9530229 9.01833817,8.00343511 8.85846794,7.54744275 C8.56512443,8.04680153 8.57752901,8.09145802 9.10765115,8.61046565 C8.53317023,9.33896183 8.51788779,9.43849618 8.93259771,9.82670992 C9.04404046,9.66346565 9.14059771,9.48920611 9.26950611,9.34372519 C9.37350611,9.22642748 9.5321855,9.04522137 9.63965878,9.06229008 C10.1779183,9.1479313 10.4986511,8.79732824 10.8648344,8.52710687 C10.9053229,8.49922137 10.9459107,8.47123664 10.9864985,8.44335115 M14.8668496,10.580313 C14.6825672,11.1092443 14.4836969,11.6348015 14.2595214,12.147855 C13.8799412,13.0158779 13.996445,13.8181069 14.5186282,14.5837176 C14.6393992,14.7609542 14.7559031,14.9412672 14.8812389,15.1151298 C15.2464298,15.6216336 15.5650786,16.148084 15.5987198,16.8897786 C16.2424679,16.0190763 16.3776282,15.1669313 16.0273229,14.2540534 C15.8564374,13.8089771 15.6182695,13.3901985 15.4316053,12.9505802 C15.3080557,12.6595191 15.1889718,12.3512901 15.4152313,12.0686641 C15.8077122,12.352084 16.1715137,12.6147634 16.5353153,12.8774427 L16.6278038,12.7963664 C16.2883153,12.2502672 16.1374756,11.661 16.1769718,11.0279695 C16.193445,10.7644962 16.2162695,10.5011221 16.2242084,10.2373511 C16.2587427,9.09454198 15.7468802,8.23425954 14.830529,7.57056489 C15.3430863,8.57612977 15.2151702,9.58050382 14.8668496,10.580313 M10.8465748,12.2198015 C11.3496053,11.6372824 11.7250176,11.6360916 12.0999336,12.2109695 C12.6047504,12.9850153 12.7372313,13.8664351 12.7590634,14.7693893 C12.7625366,14.9110992 12.7191702,15.0540992 12.6974374,15.1964046 C12.7330634,15.2074198 12.7687885,15.2184351 12.8045137,15.2293511 C12.8604832,15.1592901 12.9347122,15.0973664 12.969842,15.0179771 C13.4953,13.8291221 13.519216,12.6434427 12.8846969,11.4890229 C12.7385214,11.2229695 12.6841397,10.9973053 12.7642237,10.7007863 C13.0389107,9.68460305 13.2509794,8.63924427 14.3828725,8.13760305 C13.1490634,7.57393893 12.482987,7.956 12.3681702,9.24558015 C12.3373076,9.59132061 12.3302618,9.93914504 12.3018802,10.2851832 C12.2892771,10.439 12.2507733,10.5907328 12.2231855,10.7488168 C11.4431855,10.5302977 11.1294985,10.6427328 10.6821397,11.2621679 C10.6338115,11.3291527 10.5867733,11.3971298 10.5393382,11.4648092 C10.2820176,11.8312901 9.93409389,11.930229 9.49814733,11.8691985 C9.01526183,11.8017176 8.87881145,11.4318626 8.7072313,11.072229 C8.39126183,10.4101221 7.96771985,10.3022519 7.3403458,10.7147786 C8.0241855,10.8366412 8.08700229,10.9102748 8.10933053,11.6166412 C8.11091832,11.6662595 8.10992595,11.7159771 8.11310153,11.7654962 C8.16728473,12.6134733 8.79326947,13.1079695 9.60780382,12.8902443 C10.2608802,12.715687 10.7755214,12.9141603 11.2409412,13.341374 C11.382155,13.4711756 11.5040176,13.6220153 11.6711321,13.8024275 C11.8652389,12.9910687 11.432071,12.5558168 10.8465748,12.2198015 M12.9515824,4.83887786 C12.9280634,4.97552672 12.904445,5.11217557 12.8763611,5.27561832 C13.3034756,5.20605344 13.4758496,4.95835878 13.5722084,4.61162595 C13.7000252,4.15136641 13.8150405,3.68158015 14.003987,3.24553435 C14.2570405,2.66172519 14.570529,2.62361832 15.010842,3.08338168 C15.801758,3.90942748 16.2405824,4.91608397 16.4536435,6.02396183 C16.5363076,6.45335878 16.5579412,6.89456489 16.6072618,7.32892366 C16.3911244,7.36762595 16.2575519,7.39164122 16.1239794,7.41555725 C16.1063153,7.45455725 16.0885519,7.49345802 16.070987,7.53235878 C16.3974756,7.79761832 16.6952847,8.11348855 17.0562084,8.31781679 C17.880071,8.78403053 18.3020252,8.5428855 18.3848878,7.50000763 C18.940613,7.99033588 19.4675595,8.41010687 19.9397275,8.88435878 C20.4162618,9.36317557 20.6384527,9.99580916 20.8187656,10.6422366 C21.1533916,9.13066412 20.9134374,7.76348092 19.7977198,6.60757252 C19.8195519,6.58266412 19.841384,6.55755725 19.8631168,6.53254962 C20.2436893,6.63238168 20.6243611,6.73201527 21.1102237,6.85943511 C20.5515214,6.20963359 19.9926206,5.70829008 19.3191015,5.40006107 C18.2831702,4.92610687 17.4070099,4.29 16.6438802,3.43577099 C16.1782618,2.91458015 15.5664679,2.50830534 14.9749183,2.11959542 C14.3534985,1.71123664 13.8803382,1.87805344 13.5813382,2.55623664 C13.415613,2.93214504 13.319155,3.33812214 13.1709947,3.72256489 C13.1119489,3.87558779 13.0290863,4.05848092 12.9012695,4.13707634 C12.6891015,4.26747328 12.5549336,4.07485496 12.4137198,3.9270916 C12.1212695,3.62114504 11.8178038,3.31966412 11.2978038,3.29614504 C11.2592008,3.59752672 11.2043229,3.87132061 11.1940023,4.14680153 C11.1813992,4.4809313 11.0537809,4.65866412 10.724613,4.80087023 C9.83188015,5.18660305 8.95284198,5.60945038 8.09474275,6.06703053 C7.49803282,6.38518321 7.03975802,6.87054962 6.84217786,7.54267939 C6.75226947,7.84862595 6.56977328,8.03935878 6.30639924,8.2111374 C5.20923893,8.92673282 4.3061855,9.8328626 3.68754427,11.0010763 C3.65162061,11.0690534 3.63415496,11.1467557 3.60815496,11.2199924 C3.65688015,11.2589924 3.70570458,11.2979924 3.75442977,11.3369924 C3.79581145,11.2450992 3.81585725,11.1325649 3.88194885,11.064687 C4.85367405,10.0664656 5.87571221,9.13175573 7.12728473,8.48155725 C7.25291832,8.41625954 7.36654427,8.25420611 7.40891832,8.11398473 C7.66931527,7.25181679 8.2183916,6.64220611 9.01546031,6.25845802 C9.86333817,5.85039695 10.7141931,5.44491603 11.5841015,5.08806107 C11.9883916,4.92223664 12.4410099,4.87400763 12.8716969,4.77248855 C12.8983916,4.79461832 12.9248878,4.81674809 12.9515824,4.83887786 M7.1832542,15.5492901 C6.96910153,15.7681069 6.6892542,15.9254962 6.69242977,16.0768321 C6.69957481,16.417313 6.99877328,16.6070534 7.31573511,16.7743664 C7.27306336,16.3797023 7.23485725,16.0259237 7.1832542,15.5492901 M4.48342214,12.3933664 C4.07337634,12.1727634 3.78221603,12.2881756 3.38437634,12.8591832 C3.66978092,13.1416107 3.96729237,13.4360458 4.26470458,13.7303817 C4.31958244,13.7063664 4.37446031,13.6823511 4.42933817,13.6582366 C4.42229237,13.5034275 4.47826183,13.2795496 4.39738397,13.2058168 C4.04400229,12.8837939 4.06771985,12.628855 4.48342214,12.3933664 M10.7399947,15.7240458 C10.9631779,16.6205496 10.9631779,16.6205496 10.3015672,16.632458 C10.2695137,16.8097939 10.2368649,16.9900076 10.2043153,17.1702214 C10.237758,17.1929466 10.2712008,17.215771 10.3046435,17.2384962 C10.5779412,17.0708855 10.889842,16.942374 11.1119336,16.7229618 C11.2774603,16.5594198 11.3877122,16.2806641 11.3963458,16.0485496 C11.3994221,15.9637023 11.0386969,15.8653588 10.7399947,15.7240458 M11.871987,20.9001298 C11.1663153,20.8004962 10.4766206,20.731626 9.79933053,20.5998397 C8.95710916,20.436 8.37984962,19.988542 8.17571985,19.0813206 C8.0583229,18.5596336 7.7363,18.0839924 7.84486489,17.4548321 C8.05207099,17.5344198 8.23952901,17.6167863 8.4334374,17.6790076 C9.00285725,17.8617023 9.30900229,17.7254504 9.54002519,17.1755802 C9.64194122,16.9326489 9.71954427,16.6787023 9.79645267,16.426145 C9.93558244,15.969855 10.1298878,15.5590153 10.6165443,15.3782061 C10.2405366,14.7640305 9.61097939,14.5565267 8.89012443,14.7912214 C7.7503916,15.1623664 7.55995649,15.5462137 7.68003282,17.2787863 C7.17442214,17.1974122 6.82371985,16.8919618 6.47728473,16.5680534 C6.35224656,16.4511527 6.20031527,16.3152977 6.04342214,16.2883053 C5.2722542,16.1557252 4.75265115,15.6988397 4.42298702,15.0312748 C4.11505573,14.407771 3.76504809,13.8502595 3.23105573,13.3729313 C2.60755191,12.8156183 2.64774275,12.5027252 3.22172748,11.818687 C3.23968931,11.9659542 3.25328473,12.0776947 3.27888779,12.2878779 C3.96213206,11.6140611 4.64398702,11.8617557 5.39699466,12.2598931 C5.24119313,12.5849924 5.08876565,12.9424427 4.90359008,13.2820305 C4.36354427,14.2722137 4.90904809,15.4355649 6.0243687,15.6040687 C6.22849847,15.6349313 6.48949084,15.5755878 6.66365115,15.4636489 C7.17710153,15.1335878 7.65839924,14.7536107 8.15547557,14.3977481 C8.96961298,13.8148321 9.86304046,13.6853282 10.789613,14.0397023 C11.1636359,14.1827023 11.5604832,14.4024122 11.8135366,14.7004198 C12.6241015,15.6551756 12.5399489,16.3652137 11.7800939,17.093313 C11.125529,17.7205878 10.4010023,18.2028779 9.43711679,18.2549771 C9.25124656,18.2650992 9.04850611,18.601313 8.91751374,18.8245954 C8.75942977,19.0939237 8.83504809,19.3872672 9.06001756,19.5953664 C9.59698702,20.0920458 10.2617733,20.1878092 10.9552389,20.111 C11.0490176,20.1006794 11.1511321,19.9213588 11.2008496,19.8002901 C11.4073611,19.2977557 11.5397427,18.7555267 11.8068878,18.2897099 C12.0386053,17.8856183 12.3702542,17.5067328 12.7382237,17.2200382 C13.381674,16.7184962 14.2637885,16.7672214 14.8559336,17.2458397 C15.4412313,17.7187023 15.6284908,18.5632061 15.3076588,19.3225649 C15.233529,19.497916 15.1314145,19.6612595 15.0076664,19.8952595 C16.0408191,19.5804809 16.6507275,18.925916 17.0756588,17.9679847 C17.1853153,18.2989389 17.2949718,18.6298931 17.3999641,18.9463588 C17.9712695,18.3552061 17.9722618,16.9769084 17.3456817,14.7698855 C17.827674,14.9795725 18.2377198,15.1580992 18.7000634,15.3592519 C18.8746206,13.8469847 18.3639489,12.519 17.4513687,11.1588626 C17.9695824,11.2604809 18.3737733,11.339771 18.8175595,11.4268015 C18.6774374,10.6067099 18.0224756,10.0445344 17.776071,9.28914504 C19.0557275,9.56333588 20.0902695,11.1026947 19.9892466,12.6015649 C19.7049336,12.472458 19.4264756,12.3461298 19.0472924,12.1739542 C19.5925977,13.7547939 19.7676511,15.2622977 19.3423229,16.7924275 C19.3013382,16.8206107 19.2604527,16.8487939 19.2194679,16.8769771 C19.1002847,16.6821756 18.9811015,16.4874733 18.8620176,16.2926718 C18.821926,16.316687 18.7820328,16.3408015 18.7420405,16.3648168 C18.8184527,17.8698397 18.6765443,19.340626 18.1423534,20.8088321 C18.2639183,20.7197176 18.390445,20.6365573 18.5063534,20.5405954 C19.8090328,19.4625878 20.4343229,18.0472748 20.522842,16.3865496 C20.5651168,15.5949389 20.516987,14.7987634 20.5520176,14.0065573 C20.5773229,13.4317786 20.643216,12.8546183 20.7481092,12.2890687 C20.7976282,12.0219237 20.981216,11.779687 21.1800863,11.5435038 C21.0255748,13.1001298 21.6365748,14.5158397 21.8538038,16.0889389 C22.4627198,14.8448092 22.6302313,13.5889695 22.6686359,12.3127863 C22.7066435,11.0494046 22.5670176,9.7979313 22.2221702,8.47629771 C23.217216,9.71377863 23.8436969,13.1062824 23.0201321,15.8069084 C21.834155,19.6959924 19.2149031,22.0698321 15.3164908,23.1110229 C15.8682466,22.1608321 16.4610863,21.2389237 16.6589641,20.0403435 C15.6544908,20.545458 14.6792924,20.885542 13.5181244,20.7862061 C13.7187809,20.5534962 13.8681321,20.3885649 14.0083534,20.2160916 C14.3681855,19.7735954 14.6540863,19.2931908 14.7061855,18.7098779 C14.7464756,18.257458 14.6689718,17.8362977 14.2252847,17.6019008 C13.7811015,17.3673053 13.3840557,17.5380916 13.0389107,17.830542 C12.4288038,18.3472672 12.1448878,19.0474809 12.0013916,19.8101145 C11.9376817,20.1487099 11.9184298,20.4956412 11.871987,20.9001298 M12.9993153,24.8795443 C19.5958725,24.8661221 24.9120786,19.5354275 24.9058322,12.9407557 C24.8995748,6.35848855 19.5515137,1.02640458 12.9622008,1.03294817 C6.37923893,1.03950382 1.05191832,6.38548092 1.05905618,12.9776718 C1.0662084,19.568374 6.40791832,24.892916 12.9993153,24.8795443 M25.9614156,12.9494885 C25.9696435,20.1023664 20.1528878,25.9213053 12.9904832,25.9254755 C5.82569695,25.9296412 0.000903053435,20.120229 9.92366412e-06,12.9694351 C-0.000883206107,5.80464885 5.79810916,0.0062519084 12.9706359,-5.05566967e-06 C20.1417733,-0.0062519084 25.9531702,5.78668702 25.9614156,12.9494885" mask="url(#brandicon--maybank-b)"/>
    </g>
  </g>
</svg>
