<svg xmlns="http://www.w3.org/2000/svg" viewBox="0 0 32 32"><g fill="none" fill-rule="evenodd"><rect width="32" height="32" fill="#F0F5F7" fill-rule="nonzero"/><g fill-rule="nonzero" transform="translate(5 5)"><path fill="#D40D47" d="M7.07 21.93A6.93 6.93 0 0 1 3.63 8.97l1.2 2.1a4.54 4.54 0 1 0 6.4 5.7l2.24.93a6.95 6.95 0 0 1-6.4 4.23z"/><path fill="#FABB2E" d="M13.47 17.7l-2.24-.93a4.53 4.53 0 0 0-6.4-5.7l-1.2-2.1a6.93 6.93 0 0 1 9.83 8.73z"/><path fill="#2AABCE" d="M12.73 18.63a9.3 9.3 0 0 1 0-18.6 9.3 9.3 0 0 1 0 18.6zm0-16.16a6.86 6.86 0 1 0 0 13.73 6.86 6.86 0 1 0 0-13.73z"/><path fill="#555390" d="M12.73 18.63a9.3 9.3 0 0 1-9.3-9.3c0-.66.54-1.2 1.2-1.2.67 0 1.2.54 1.2 1.2 0 3.8 3.07 6.87 6.87 6.87.67 0 1.2.53 1.2 1.2 0 .67-.5 1.23-1.17 1.23z"/></g></g></svg>