<svg width="32" height="32" viewBox="0 0 32 32" xmlns="http://www.w3.org/2000/svg" xmlns:xlink="http://www.w3.org/1999/xlink"><defs><linearGradient x1="50%" y1="0%" x2="50%" y2="100%" id="b"><stop stop-color="#EF3027" offset="0%"/><stop stop-color="#F25741" offset="100%"/></linearGradient><path d="M15.111 22.744c-.028-.008-5.338 2.588-5.338 2.588-.158.078-.29.084-.372.018-.083-.064-.107-.195-.07-.366l1.26-5.786c-.014-.029-5.344-2.571-5.344-2.571-.158-.076-.246-.175-.247-.281 0-.104.087-.205.244-.282l5.3-2.614c.013-.026-1.314-5.79-1.314-5.79-.04-.172-.016-.303.065-.37.082-.064.215-.06.373.015l5.339 2.527c.03-.008 3.717-4.649 3.717-4.649.108-.138.225-.201.328-.179.103.024.18.13.221.3l1.346 5.76c.024.02 5.96-.001 5.96-.001.175 0 .297.051.343.145.047.093.011.222-.096.36l-3.672 4.654c0 .03 3.726 4.649 3.726 4.649.11.136.146.264.101.359-.045.095-.167.147-.342.149l-1.51.011a.388.388 0 01-.277-.122l-5.576-5.94c-.051-.059-.099-.08-.128-.055-.023.019-.027.062.026.128.111.14 3.203 3.893 4.76 5.782.034.047.043.093.02.136a.147.147 0 01-.13.079l-1.956.013c-.197 0-.353-.143-.41-.204-.906-.964-5.425-5.772-5.52-5.879-.05-.059-.098-.08-.127-.055-.022.019-.027.062.025.128l4.687 5.69c.113.138.179.229.156.348-.012.062-1.265 5.726-1.277 5.782-.04.171-.117.278-.22.303a.18.18 0 01-.043.005c-.09 0-.19-.063-.286-.18l-3.742-4.605z" id="a"/></defs><g fill="none" fill-rule="evenodd"><path fill="#000" d="M0 0h32v32H0z"/><use fill="url(#b)" transform="matrix(1 0 0 -1 0 32.529)" xlink:href="#a"/></g></svg>