<svg xmlns="http://www.w3.org/2000/svg" width="32" height="32" viewBox="0 0 32 32">
  <g fill="none" fill-rule="evenodd">
    <rect width="32" height="32" fill="#E11A27" fill-rule="nonzero"/>
    <path fill="#FFF" fill-rule="nonzero" d="M11.3598253,12.3203019 L6.31940248,8.9604161 C7.11986566,7.84032214 8.07955013,6.8802416 9.27965079,6.1601812 L13.5996171,10.5601542 C12.7199394,10.9597917 11.9198723,11.5198387 11.3598253,12.3203019 Z M10.080114,15.4405636 L4.39963748,13.2803824 C4.7200604,11.9202683 5.27971131,10.640557 5.99977171,9.44045636 L11.1198052,12.6403287 C10.4801475,13.4399998 10.1597246,14.4000803 10.080114,15.4405636 Z M16.8798923,18.080389 L10.7197716,15.6801877 C10.879785,14.7201072 11.2798186,13.8400333 11.8398656,13.120369 L16.8798923,16.3198453 L16.8798923,18.080389 Z M16.8798923,16.0006106 L12.0798857,12.8003422 C12.6399327,12.0802818 13.4403959,11.6006376 14.2400669,11.2802146 L16.8002816,13.8404294 L16.8002816,16.0006106 L16.8798923,16.0006106 Z M4.7200604,20.0805568 C4.24002013,18.8008455 4,17.520342 4,16.0802212 C4,15.2801541 4.08000671,14.5600937 4.24002013,13.7604227 L10.080114,15.8405972 L10.080114,16.0802212 C10.080114,17.4403353 10.5601542,18.7996573 11.4402281,19.8401406 L11.5202348,19.8401406 C11.0401945,18.8800601 10.7197716,17.9199795 10.7197716,16.7998856 C10.7197716,16.5602615 10.7197716,16.3194492 10.7997783,16.0802212 L17.0399057,18.2400064 L17.0399057,20.0005501 L4.7200604,20.0805568 Z M5.11969788,21.2006508 C5.03969117,20.9606306 4.95968446,20.7202144 4.79927497,20.4809864 L8.39957697,20.4809864 L9.03963066,21.2006508 L14.3996842,21.2006508 L13.2795903,22.4003554 L6.6398254,22.4003554 C6.47981197,21.7606977 5.83975829,21.2006508 5.11969788,21.2006508 Z M19.9201473,20.6398116 C20.1601674,20.4797982 20.4001876,20.2397781 20.560201,20.000154 C21.5202815,18.8800601 22.0803285,17.5995566 22.0803285,16.0802212 C22.0803285,12.7203354 19.3601003,9.9997112 15.9998185,9.9997112 C15.2801541,9.9997112 14.6397044,10.080114 14.0796574,10.3201341 L9.83969777,5.68014094 C11.5994493,4.64005369 13.7596305,4 15.9998185,4 C22.7199861,4 28.000033,9.36005358 28.000033,16.0006106 C28.000033,22.6407716 22.6403755,28.0004291 15.9998185,28.0004291 C12.7199394,28.0004291 9.75969106,26.640315 7.51989922,24.4805299 L22.2399459,24.4805299 L22.3199526,24.4005231 L6.87984553,23.8404762 L6.79983882,23.7604695 L23.2800331,23.7604695 L23.3600398,23.6812549 L6.15978513,22.8803956 L5.99977171,22.8003889 L12.7199394,22.8003889 C12.7199394,22.8003889 16.0798252,22.8803956 18.8000534,21.4398788 C19.200483,21.2006508 19.6005165,20.9602346 19.9201473,20.6398116 Z"/>
  </g>
</svg>
