<svg xmlns="http://www.w3.org/2000/svg" width="32" height="32" viewBox="0 0 32 32">
  <g fill="none" fill-rule="evenodd">
    <rect width="32" height="32" fill="#CF2A2C" fill-rule="nonzero"/>
    <path fill="#FFF" fill-rule="nonzero" d="M24.3461538,9.98920455 L19.343826,5 L12.0828011,5 L7,10.0707789 L7,15.3051312 L7.80682711,16.0409996 L7,16.776868 L7,22.0112203 L12.0019089,27 L19.4247183,27 L24.3461538,22.0932195 L24.3461538,16.6952936 L23.6197997,16.0409996 L24.3461538,15.3867055 L24.3461538,9.98920455 Z M15.7133135,25.4462641 L9.74279301,19.3940442 L10.3882547,18.7397501 L12.0019089,20.2939109 L19.4247183,20.2939109 L21.0383722,18.6581758 L21.764307,19.3940442 L15.7133135,25.4462641 Z M13.0509936,16.0409996 L15.7133135,13.3422491 L18.4565258,16.0409996 L15.7133135,18.7397501 L13.0509936,16.0409996 Z M21.0383722,13.3422491 L19.343826,11.706514 L12.0828011,11.706514 L10.3882547,13.4238234 L9.74279301,12.687955 L15.7133135,6.63573512 L21.764307,12.687955 L21.0383722,13.3422491 L21.0383722,13.3422491 Z"/>
  </g>
</svg>
