<svg xmlns="http://www.w3.org/2000/svg" width="32" height="32" viewBox="0 0 32 32">
  <g fill="none" fill-rule="evenodd">
    <rect width="32" height="32" fill="#0067B1" fill-rule="nonzero"/>
    <g fill-rule="nonzero" transform="translate(2 11)">
      <polygon fill="#EF3E42" points="27.932 4.804 23.849 .72 19.766 4.804 23.849 8.887" transform="matrix(1 0 0 -1 0 9.607)"/>
      <path fill="#FFF" d="M0.05156056,0.34357 L0.95256056,6.66532 C1.15381056,8.06032 2.62606056,9.27732 4.20506056,9.27732 C5.80731056,9.27732 6.56756056,8.16382 6.41331056,7.09532 L6.28256056,6.17507 C6.17556056,5.40357 5.60556056,4.66132 4.59681056,4.11257 L5.62956056,2.36157 C5.74831056,2.16882 5.79606056,1.87232 5.74831056,1.55957 C5.64156056,0.89232 5.14281056,0.34357 4.59681056,0.34357 C4.30031056,0.34357 4.06256056,0.50607 3.92056056,0.75857 L2.40056056,3.38607 L2.13956056,1.54557 C2.04431056,0.87757 1.54556056,0.34357 1.01131056,0.34357 L0.05156056,0.34357 Z M3.65906056,7.97107 C3.31431056,7.97107 2.99406056,7.62957 2.93506056,7.19932 L2.67481056,5.29382 C2.61581056,4.86332 2.84131056,4.52157 3.18556056,4.52157 C3.52956056,4.52157 3.85006056,4.86332 3.90956056,5.29382 L4.16956056,7.19932 C4.22906056,7.62957 4.00281056,7.97107 3.65906056,7.97107 L3.65906056,7.97107 Z" transform="matrix(1 0 0 -1 0 9.62)"/>
      <path fill="#FFF" d="M7.4198606,7.86802 C7.5266106,8.63977 8.1318606,9.27752 8.7493606,9.27752 C9.3666106,9.27752 9.7821106,8.63977 9.6751106,7.86802 L9.2363606,4.67727 L10.4593606,4.67727 L10.9101106,7.86802 C11.0168606,8.63977 11.6226106,9.27752 12.2401106,9.27752 C12.8573606,9.27752 13.2728606,8.63977 13.1658606,7.86802 L12.3111106,1.73902 C12.2041106,0.96752 11.5988606,0.32902 10.9811106,0.32902 C10.3641106,0.32902 9.9486106,0.96752 10.0553606,1.73902 L10.3286106,3.72752 L9.0941106,3.72752 L8.8208606,1.73902 C8.7136106,0.96752 8.1083606,0.32902 7.4913606,0.32902 L6.3748606,0.32902 L7.4198606,7.86802 Z" transform="matrix(1 0 0 -1 0 9.607)"/>
      <path fill="#FFF" d="M19.4311626,6.71026 C19.3359126,6.11651 19.0151626,5.53801 18.4451626,5.00376 C18.8371626,4.58801 19.0031626,4.03926 18.9201626,3.50476 L18.8371626,2.95576 C18.6236626,1.54576 17.1629126,0.32926 15.5961626,0.32926 L13.1146626,0.32926 L14.0286626,6.66526 C14.2311626,8.06051 15.7031626,9.27726 17.2816626,9.27726 C18.8841626,9.27726 19.6561626,8.16451 19.4896626,7.09576 L19.4311626,6.71026 Z M16.3796626,4.70676 C15.9876626,4.70676 15.6199126,4.30626 15.5484126,3.81626 L15.3704126,2.54001 C15.2994126,2.05051 15.5604126,1.65001 15.9521626,1.65001 C16.3439126,1.65001 16.7241626,2.05051 16.7951626,2.54001 L16.9734126,3.81626 C17.0449126,4.30626 16.7709126,4.70676 16.3796626,4.70676 L16.3796626,4.70676 Z M16.8546626,7.95676 C16.4629126,7.95676 16.1064126,7.55601 16.0234126,7.06626 L15.8811626,6.19076 C15.7974126,5.70101 16.0711626,5.30051 16.4629126,5.30051 C16.8546626,5.30051 17.2226626,5.70101 17.3061626,6.19076 L17.4481626,7.06626 C17.5314126,7.55601 17.2461626,7.95676 16.8546626,7.95676 L16.8546626,7.95676 Z" transform="matrix(1 0 0 -1 0 9.607)"/>
    </g>
  </g>
</svg>
