<svg xmlns="http://www.w3.org/2000/svg" width="32" height="32" viewBox="0 0 32 32">
  <g fill="none" fill-rule="evenodd">
    <rect width="32" height="32" fill="#FFF"/>
    <g transform="translate(7 2.138)">
      <path fill="#0172AA" d="M11.6186222,16.0048672 C10.7480015,15.6109362 9.87917395,15.2124534 9.00620843,14.8236258 C7.14551878,13.9946603 5.27365671,13.1902465 3.42469119,12.3363155 C2.49324292,11.9061086 1.6722774,11.3040396 1.14193257,10.3883155 C0.239725674,8.8306603 0.562622226,6.62431547 1.90593257,5.3026603 C2.2100705,5.00348788 2.58965671,4.78086719 2.93448429,4.52307409 C2.90938085,4.62252236 2.89131188,4.72417754 2.85820843,4.82072926 C2.6122774,5.54072926 2.64689809,6.22707409 3.19613947,6.79328099 C3.44344981,7.04817754 3.75848429,7.25797064 4.07779464,7.41879823 C4.69931188,7.73190167 5.34386361,8.0004534 5.98262223,8.27879823 C6.40110498,8.46128099 6.82634636,8.62859133 7.24855326,8.8026603 C9.78220843,9.93038443 12.3169671,11.0556258 14.8488291,12.18735 C15.7395877,12.5855568 16.5624843,13.0845913 17.193105,13.8523155 C18.5827602,15.5440396 18.3216567,18.20735 16.6175188,19.5778327 C16.3245533,19.8135568 15.9838636,19.9901086 15.6652429,20.1938327 C15.6940705,20.1261086 15.7284153,20.0601775 15.7507602,19.9905224 C15.8373808,19.7207293 15.9844153,19.4517637 15.9922774,19.17935 C16.0157257,18.3531431 15.5588981,17.78335 14.8580705,17.4294189 C14.0663464,17.0296948 13.2473119,16.6836258 12.4364153,16.3223844 C12.1695188,16.20335 11.8915877,16.1099706 11.6186222,16.0048672"/>
      <path fill="#22AA47" d="M7.0892705,17.6514189 C8.60085671,18.3231431 10.1134084,18.9926603 11.6236153,19.667281 C12.8717533,20.2249362 14.1347877,20.7530741 15.358236,21.3609362 C16.424305,21.8903155 17.2794774,22.6791431 17.6485808,23.855281 C18.0918912,25.2670051 17.7968567,26.5705913 16.9767188,27.7809362 C16.4218222,27.4224534 15.9193395,27.0283844 15.3596153,26.7487982 C13.7014084,25.9203844 12.0316153,25.1125224 10.3455464,24.3421775 C8.11064981,23.3210741 5.85161533,22.3527982 3.61175326,21.3424534 C2.66058085,20.91335 1.80913257,20.3390051 1.16720154,19.4870051 C0.119891191,18.0963844 0.066236019,15.2456258 2.21285671,13.7803844 C2.47354636,13.6023155 2.74030498,13.4330741 3.00430498,13.2598327 C2.96954636,13.3461775 2.94361533,13.4374879 2.89851188,13.5179017 C2.46789119,14.2854879 2.60306361,15.249212 3.28058085,15.811281 C3.60664981,16.0816258 3.99492567,16.2916948 4.38209809,16.4704534 C5.24871878,16.8710051 6.13244292,17.2347293 7.00899464,17.6134879 C7.00899464,17.6134879 7.01823602,17.6191431 7.01823602,17.6190051 C7.04196016,17.6297637 7.06554636,17.6405224 7.0892705,17.6514189"/>
      <path fill="#78ADD1" d="M7.24853947 8.80268788C6.82633257 8.62861892 6.40109119 8.46130857 5.98260843 8.27882581 5.34384981 8.00048099 4.69943602 7.73192926 4.07778085 7.41882581 3.7584705 7.25799823 3.44357395 7.04820512 3.19612567 6.79330857 2.64688429 6.22710167 2.61226361 5.54075685 2.85819464 4.82075685 2.89129809 4.72420512 2.90936705 4.62241202 2.9344705 4.52310167L2.93722912 4.53151547C2.94991878 4.52530857 2.96274636 4.51923961 2.97543602 4.51303271 2.96288429 4.49772236 2.95019464 4.48227409 2.93778085 4.46682581 4.45598774 3.5374465 5.97391878 2.60751547 7.49253947 1.67868788 8.36674636 1.14392926 9.2446774.615239606 10.1140567.0727568473 10.2792981-.0302776355 10.3991602-.0207603941 10.555436.0815844335 12.415436 1.30075685 12.5770912 3.99551547 10.8088153 5.33206719 9.85750498 6.05123961 8.79681533 6.62572236 7.78578085 7.2658603 7.59971188 7.3836534 7.40853947 7.49482581 7.23060843 7.62392926 6.7886774 7.94434305 6.76840154 8.28475685 7.15571188 8.66903271 7.19364292 8.70668788 7.21791878 8.7578603 7.24853947 8.80268788M8.91160154 24.6522327C8.28829119 25.047681 7.67670498 25.4383017 7.06263602 25.8247844 6.44663602 26.2125086 5.83546361 26.6083706 5.20953257 26.9789913 3.79601533 27.8159568 2.37311878 27.7115431 1.13877395 26.6660258.501670502 26.1264396.142222226 25.4170603.00884291556 24.591681-.0263294982 24.37375.0420842949 24.2428534.238084295 24.1285086 1.24760154 23.5400948 2.2456705 22.9320948 3.25629119 22.345612 3.37091188 22.2791293 3.56470498 22.2467155 3.67877395 22.2966465 5.39684292 23.0508534 7.1078774 23.8213362 8.82029119 24.5886465 8.8456705 24.6000948 8.86704981 24.6207844 8.91160154 24.6522327"/>
      <path fill="#A4CFA0" d="M9.60744981,9.01632926 C10.3166912,8.58901892 10.955174,8.20363961 11.5944843,7.81950167 C12.9983464,6.97591547 14.4044153,6.13591547 15.8041395,5.28529478 C15.9680015,5.18570857 16.0784843,5.18957064 16.2358636,5.29563961 C18.2035877,6.62239823 18.243174,9.36322581 16.3019326,10.7379844 C15.9668981,10.9753637 15.6045533,11.1756396 15.2448291,11.3750879 C15.1707602,11.4161913 15.0394498,11.4076396 14.9565533,11.3715017 C13.3593119,10.6746741 11.7655188,9.97039823 10.1708981,9.26736374 C10.0073119,9.19522581 9.8442774,9.12198443 9.60744981,9.01632926"/>
      <path fill="#78ADD1" d="M11.6186222,16.0048672 C11.8915877,16.1099706 12.1695188,16.20335 12.4364153,16.3223844 C13.2473119,16.6836258 14.0663464,17.0296948 14.8580705,17.4294189 C15.5588981,17.78335 16.0157257,18.3531431 15.9922774,19.17935 C15.9844153,19.4517637 15.8373808,19.7207293 15.7507602,19.9905224 C15.7284153,20.0601775 15.6940705,20.1261086 15.6652429,20.1938327 L15.6664843,20.1869362 C15.6456567,20.2114879 15.6249671,20.2361775 15.6042774,20.2607293 C15.4973808,20.3928672 15.3800015,20.443212 15.2064843,20.3659706 C13.4497946,19.5839017 11.6907602,18.807212 9.87158774,18.0021086 C10.2235877,17.8014189 10.5347602,17.6283155 10.8415188,17.4477637 C11.0395877,17.33135 11.2397257,17.2157637 11.4241395,17.0799017 C11.9073119,16.7234879 11.9440015,16.4963155 11.6186222,16.0048672"/>
      <path fill="#A3CFA0" d="M7.00904981,17.6134465 C6.13236016,17.2348258 5.24877395,16.8709637 4.38215326,16.47055 C3.99498085,16.2916534 3.60670498,16.0817224 3.28063602,15.8113775 C2.60311878,15.2491706 2.46780843,14.2854465 2.89856705,13.5179982 C2.9436705,13.4374465 2.96946361,13.3461362 3.00436016,13.2599293 C3.11456705,13.2374465 3.24739464,13.1633775 3.3316705,13.2002051 C5.08256705,13.9650327 6.82794636,14.7422741 8.57415326,15.5177224 C8.59098085,15.5250327 8.60436016,15.5403431 8.66022223,15.5832396 C8.37125671,15.752481 8.09704981,15.91055 7.82518774,16.0728948 C7.57111878,16.2248948 7.31180843,16.3698603 7.06863602,16.5379982 C6.61332567,16.8523431 6.59263602,17.0991017 6.96339464,17.5160672 C6.98629119,17.5415844 6.99429119,17.5807568 7.00904981,17.6134465"/>
    </g>
  </g>
</svg>
