<svg width="32" height="32" viewBox="0 0 32 32" xmlns="http://www.w3.org/2000/svg"><g fill="none" fill-rule="evenodd"><path fill="#CA0145" d="M0 0h32v32H0z"/><g fill-rule="nonzero"><path d="M30.907 26.508c-.826-1.36-1.96-2.096-3.442-2.199-2.107-.145-4.16.984-6.283.325-.795-.342-1.536-.778-2.069-1.548-.023-.035-.07-.052-.1-.086 0 .068-.023.137-.008.197.332 1.163.842 2.207 1.776 2.926 1.034.872 2.223.967 3.45.821 2.207-.265 4.392-1.608 6.638-.197.03.017.085-.008.131-.008-.039-.086-.054-.163-.093-.231z" fill="#F4CB08"/><path d="M5.995 23c-.022-.329-.044-.658-.065-1 .043.205.097.411.14.616-.021.137-.043.26-.075.384z" fill="#989D90"/><path d="M6.773 10.791c-.187-.438-.382-.877-.57-1.307.443.236.859.514 1.326.7.306.126.663.11.995.16.05.388.127.869-.298 1.038-.612.244-1.02-.279-1.453-.59zm3.578-2.96c.577.666 1.138 1.366 2.15.674-.357-.388-.697-.801-1.088-1.155-.46-.422-.96-.785-1.436-1.181.119.489.246.978.365 1.476.017.059.009.118.009.185zm8.438 8.899c-.858-.194-1.887-.237-1.734-1.552.247-.523.502-1.046.723-1.586.365-.878 1.104-1.915.204-2.666-1.683-1.383-1.717-2.935-.995-4.732-.008-.067-.008-.135-.017-.194-.076.084-.144.177-.22.261-.34.38-.68.751-1.02 1.13-.366.87-.706 1.89.034 2.574 1.648 1.51 2.328 3.13 1.223 5.213-.22 1.442.859 1.695 1.861 1.965 1.232.337 1.827 1.105 1.742 2.379.927-1.325.264-2.328-1.801-2.792zM5.48 14.275c.153-.118.06-.557.077-.852-.29-.059-.587-.101-.875-.177-.561-.135-1.122-.287-1.683-.43.289.388.578.776.858 1.164.026.033.017.093.026.143.535.16 1.07.565 1.597.152zm14.336 5.947c-.127.076-.255.152-.408.16-.153.009-.331.034-.408-.11-.093-.16.12-.21.196-.312.085-.1.178-.202.255-.32.442-.726.374-1.206-.23-1.822-.442-.447-1.003-.557-1.58-.683-1.097-.228-1.836-1.35-1.64-2.455.093-.506.322-.962.484-1.443.23-.683.093-1.29-.315-1.855-.195-.27-.433-.506-.67-.743-.451-.447-.706-.978-.69-1.628.01-.168.035-.354-.11-.489-.314.144-.628.295-.934.439-.17-.009-.221.143-.306.236a1.424 1.424 0 01-1.113.515c-.553.008-.986-.194-1.394-.523-.153-.127-.255-.346-.51-.321-.025.582-.034 1.172-.671 1.485-.153.1-.145.278-.179.43-.178.961-.824 1.442-1.954 1.122-.12-.034-.23-.11-.357-.042l-.204 1.273c-.204.169-.128.414-.145.624-.076.987-.773 1.502-1.742 1.291a4.86 4.86 0 01-.5-.135c-.12-.034-.239-.076-.358.009.34 1.054.688 2.108 1.028 3.163.179-.101.17-.101.315-.464a12.584 12.584 0 012.04-3.518c.875-1.155 1.98-2.075 3.194-2.86.06-.033.136-.126.187-.075.043.042-.05.126-.085.185-.662.97-1.461 1.84-2.175 2.776-.918 1.214-1.708 2.488-2.269 3.905a9.345 9.345 0 00-.629 3.703c.051.144.06.312.221.397.417 2.058 2.354 3.34 5.54 3.66.103-.253-.11-.387-.229-.53-.73-.895-1.393-1.84-1.886-2.886-.366-.793-.46-1.61-.238-2.463.306-1.172 1.368-1.982 2.575-1.89.832.068 1.512.456 2.005 1.148.23.32.408.683.688.97.068.076.153.101.238.135.689.953 1.394 1.873 2.805 1.484a.271.271 0 00-.102-.151c-.825-.565-1.309-1.409-1.81-2.227-.357-.6-.655-1.223-.782-1.915-.017-.076-.094-.186-.009-.228.043-.025.102.118.145.194.195.371.459.7.73 1.03.638.784 1.42 1.416 2.185 2.066.373.32.373.388.042.768-.136.151-.374.219-.382.472 1.062-.236 1.946-.742 2.557-1.67-.195-.042-.306.05-.416.118zm-8.353-.49c-.63.355-.74.912-.63 1.561.315 1.797 1.87 2.986 2.346 4.707.23-.008.46-.008.689-.017l-.332-.607c-1.037-1.763-2.49-3.366-2.073-5.643z" fill="#6CBB25"/><path d="M14.004 21.137l-.074-.274c.05.066.099.125.14.191a.325.325 0 01-.066.083z" fill="#D7DCD0"/><path d="M13.904 12.129c-.364-.045-.603.17-.633.731-.03.562.18.803.544.803.06 0 .12.045.185.071-.048.09-.096.179-.143.26-.329.017-.67.044-.813-.536a1.38 1.38 0 01.24-1.196c.172-.231.382-.383.62-.133z" fill="#FAFBF9"/><path d="M16.395 23.11c-.814 1.066-1.627.858-2.277-.117-.44-.666-.667-1.474-1.025-2.199-.423-.85-1.098-1.058-1.944-.65-.715.75-.585 1.575-.211 2.425.39.891.96 1.682 1.456 2.507.227.383.455.766.406 1.25L13.215 28l-1.293-1.3c-.187-.183-.374-.366-.553-.55-.683-1.049-1.44-2.057-2.033-3.157-.92-1.699-.488-3.69.984-4.365 1.773-.816 2.911.15 3.74 1.683.041.075.123.133.18.2.016.092.048.183.073.275.439.95.984 1.783 2.05 2.083.024.016.064.191.032.241zm3.53-4.14c-.302-.725-.757-1.291-1.554-1.466-.48-.108-.943-.258-1.358-.525-.464-.292-.683-.85-.537-1.341.073-.425.285-.8.44-1.191.422-1.067.235-2-.546-2.824-.268-.284-.536-.55-.789-.85-.56-.675-.707-1.416-.422-2.25.065-.183.146-.366.08-.566l.245-1.016c-.252.3-.545.575-.732.908-.22.383-.342.825-.504 1.241-.098.9.09 1.7.797 2.308.96.824 1.073 1.782.577 2.949-.74 1.757-.024 3.057 1.806 3.448.683.15 1.26.484 1.48 1.225.162.55-.171.95-.472 1.341-.098.125-.228.225-.342.342.26.233.553.341.887.191.195-.091.358-.233.537-.358l.382-.591c.097-.325.154-.65.024-.975zM3.7 14.946c.187.175.415.317.618.475 1.96.617 2.586.2 2.627-1.774-.025-1.9-1.732-2.366-2.757-3.416-.073-.075-.187-.108-.285-.158.025.108.033.233.082.333.577 1.133 1.325 2.2 1.512 3.507-.065.067-.057.15-.057.242 0 .566-.195.733-.74.616-.13-.025-.244-.075-.374-.116-.138-.05-.284-.142-.439-.042-.244-.083-.48-.158-.724-.241.187.183.35.4.537.574zm6.465-5.514c1.033.991 2.074 1.632 3.18.091.382-1.757 1.57-2.957 2.757-4.156.098-.092.138-.242.203-.367-.13.05-.276.083-.39.158-1.52 1.033-3.188 1.916-3.774 3.899-.707.358-1.252.05-1.764-.433-.09-.084-.13-.242-.293-.242-.203-.216-.415-.433-.618-.65.106.375.187.758.325 1.117.081.216.244.391.374.583zM7.14 12.389c1.293.725 2.277.108 2.383-1.491.049-1.608-.293-3.09-1.407-4.299-.057-.066-.147-.108-.22-.158-.008.042-.024.083-.016.125.146 1.433.3 2.874.455 4.307-.016.141-.065.275-.089.416-.081.55-.358.683-.846.417-.146-.083-.276-.183-.415-.275-.097-.067-.187-.158-.317-.117-.073-.041-.146-.075-.22-.116.025.075.033.158.074.225.195.325.407.641.618.966zm-5.213 1.933c-.325-.175-.618-.409-.927-.617.203.375.374.767.61 1.116.838 1.242 2.017 2.283 2.196 3.907.057.15.122.442.17.442.488-.025.797-.308.822-.825.106-2.15-1.277-3.157-2.87-4.023zm12.581 3.207c-.033-.067-.114-.109-.17-.167-.017.05-.05.108-.033.158.374 1.883 1.195 3.5 2.757 4.649h.008c.227-.358 1.081-.6.618-1.058-1.147-1.125-2.416-2.108-3.18-3.582zm-3.578-5.823c.04-.058.04-.158.065-.233-.065.016-.13.025-.187.058-1.285.791-2.407 1.774-3.318 3.007-1 1.183-1.66 2.55-2.18 4.007-.65 2.066-.943 4.174-.602 6.34.033.208-.122.383.293.366 2.212-.058.903-1.558 1-2.482-.056-.2.017-.409-.048-.609-.082-2.907 1.203-5.281 2.797-7.53.724-.975 1.456-1.95 2.18-2.924zm2.675 3.307c.073.008.163.05.228.025.48-.192.87-.475.91-1.058.041-.55-.243-.858-.723-1.033-.464-.117-.813.067-.935.5a.784.784 0 00.48.991c.146.059.35.025.382.25-.09.058-.18.117-.26.183-.025.042-.05.092-.082.142zm4.603 4.165c-.016-.141-.268-.325-.43-.333-.13-.008-.277.208-.416.325-.097.45.139.658.57.516.097-.166.293-.35.276-.508z" fill="#030302"/><path d="M17.334 19c.01.505.257.692.666.681-.219.11-.428.297-.656.319-.115.01-.362-.297-.343-.429.01-.197.21-.384.333-.571z" fill="#F4F7F0"/></g></g></svg>