<svg width="32" height="32" viewBox="0 0 32 32" xmlns="http://www.w3.org/2000/svg"><g fill="none" fill-rule="evenodd"><path fill="#006863" d="M0 0h32v32H0z"/><g fill-rule="nonzero"><path d="M5.92 10.543c2.961-5.024 7.409-7.194 13.117-6.374 5.681.81 10.192 5.474 10.777 10.714.639 5.735-1.486 10.12-6.284 13.198-1.207-2.503-2.368-4.915-3.539-7.328l.027-.018c1.639 1.287 3.277 2.566 4.925 3.853-.036 0-.063-.009-.054 0-.009-.009.027.018.054.036-1.503-1.684-3.007-3.358-4.979-5.573 2.674 1.143 4.691 2.008 7.4 3.16a4191.64 4191.64 0 00-6.68-4.141c2.45.216 4.457.387 7.725.675-3.079-.765-4.933-1.215-7.454-1.846 2.7-.639 4.753-1.116 7.508-1.764-2.908.216-5.113.387-7.742.585 2.106-1.27 3.88-2.34 6.653-4.016-2.962 1.216-4.835 1.981-7.22 2.963l4.807-5.52c-2.413 1.936-3.88 3.116-5.357 4.304l-.018-.009 2.647-6.086c-.045-.018-.08-.027-.126-.045.036-.027.072-.045.108-.072 0 .045-.009.09-.009.135-1.26 1.819-2.53 3.628-3.916 5.618.225-2.44.432-4.736.693-7.662-.693 2.827-1.233 5.051-1.89 7.743l-1.765-7.752c.225 2.98.396 5.204.612 7.95-1.324-2.224-2.395-4.006-4.034-6.743 1.198 2.944 1.981 4.87 2.908 7.14-1.827-1.531-3.367-2.81-4.906-4.097-.117-.135-.153-.1-.01.009 1.108 1.395 2.225 2.79 3.332 4.177-1.945-.891-3.871-1.782-5.798-2.665-.504-.18-1.009-.369-1.513-.549zm18.348-1.107c.099-.072.198-.135.306-.207.072.018.144.036-.063-.018.216 0 .135 0 .054.009-.1.08-.207.153-.306.225l.036.036-.027-.045z" fill="#EFC60E"/><path d="M5.92 10.543c.503.18 1.008.37 1.503.55 3.71 2.7 7.788 5.005 10.21 9.165-3.449 2.421-10.4.837-13.181-2.945-1.71-2.322-2.98-4.834-2.233-7.994l3.7 1.224z" fill="#DB0232"/><path d="M19.997 20.744c-.05-.027-.09-.054.03.018-.01-.18 0-.108 0-.036 0 .009-.03.018-.03.018zM19.602 13.444c-.01.02-.03.04-.04.07.01-.03.02-.05.02-.08.01 0 .02.01.02.01z" fill="#EFC60E"/><path d="M24.556 9.223h-.054c.216.06.135.04.063.02l-.01-.02zM22.215 7.356c0-.045.01-.09.01-.135-.037.027-.073.045-.109.072.045.018.081.027.126.045-.009 0-.027.018-.027.018z" fill="#036760"/><path d="M24.565 9.238c-.1.072-.198.135-.306.207l-.018.018c.099-.081.207-.153.306-.234.009-.01.018.009.018.009z" fill="#036760"/><path d="M24.272 9.438l.03.06-.04-.04c-.01 0 .01-.02.01-.02zM24.942 24.622c-.03-.02-.07-.05-.06-.04h.06c.01.01 0 .04 0 .04z" fill="#036760"/></g></g></svg>