<svg xmlns="http://www.w3.org/2000/svg" viewBox="0 0 32 32"><g fill="none" fill-rule="evenodd"><path fill="#EBF1F7" d="M0 0h32v32H0z"/><g fill-rule="nonzero"><path fill="#BC123D" d="M16.003 4.814c1.4-.04 2.86 1.46 2.9 2.91.05 1.46-1.5 2.87-2.9 2.91-1.4.05-2.87-1.45-2.91-2.9-.05-1.46 1.51-2.87 2.9-2.92z"/><path fill="#8EA5C4" d="M12.613 16.444l-4.32-4.53a1.61 1.61 0 0 1 .07-2.22c.61-.66 1.56-.69 2.11-.09l4.33 4.52c.59.61.54 1.57-.08 2.23-.63.65-1.54.68-2.11.09zm6.6 0l4.32-4.54c.55-.58.54-1.57-.09-2.21-.6-.66-1.55-.69-2.1-.09l-4.32 4.52c-.59.6-.54 1.57.07 2.23.62.65 1.54.68 2.12.07v.02z"/><path fill="#002D5E" d="M10.373 26.124l4.4-4.62c.59-.61.56-1.6-.05-2.24-.63-.66-1.57-.67-2.14-.06l-4.41 4.63c-.59.6-.56 1.58.05 2.24.63.65 1.56.66 2.14.05zm11.08 0l-4.4-4.62c-.57-.61-.56-1.6.07-2.24.6-.66 1.55-.67 2.14-.06l4.39 4.63c.58.6.57 1.58-.06 2.24-.63.65-1.54.66-2.14.05z"/></g></g></svg>