<svg xmlns="http://www.w3.org/2000/svg" width="32" height="32" viewBox="0 0 32 32">
  <defs>
    <radialGradient id="brandicon-unicredit-a" cx="31.024%" cy="23.354%" r="43.221%" fx="31.024%" fy="23.354%">
      <stop offset="0%" stop-color="#FFEBE3"/>
      <stop offset="14.7%" stop-color="#F39672"/>
      <stop offset="36.6%" stop-color="#E2001A"/>
      <stop offset="70.8%" stop-color="#CF001A"/>
      <stop offset="84.2%" stop-color="#AF0819"/>
      <stop offset="100%" stop-color="#B30414"/>
    </radialGradient>
    <linearGradient id="brandicon-unicredit-b" x1="-4.552%" x2="103.843%" y1="93.653%" y2="9.865%">
      <stop offset="0%" stop-color="#464648"/>
      <stop offset="4.9%" stop-color="#464648"/>
      <stop offset="9.5%" stop-color="#919294"/>
      <stop offset="15.5%" stop-color="#464648"/>
      <stop offset="90.6%" stop-color="#515153"/>
      <stop offset="96%" stop-color="#919294"/>
      <stop offset="98.4%" stop-color="#515153"/>
      <stop offset="100%" stop-color="#515153"/>
    </linearGradient>
  </defs>
  <g fill="none" fill-rule="evenodd">
    <rect width="32" height="32" fill="#EBF1F7"/>
    <g fill-rule="nonzero" transform="translate(5.818 5.818)">
      <path fill="url(#brandicon-unicredit-a)" d="M20.3636364,10.1818182 C20.3636364,15.8050811 15.8050811,20.3636364 10.1818182,20.3636364 C4.55855527,20.3636364 -4.84460956e-16,15.8050811 -1.77635684e-15,10.1818182 C-3.06825272e-15,4.55855527 4.55855527,1.29189588e-15 10.1818182,0 C15.8050811,0 20.3636364,4.55855527 20.3636364,10.1818182"/>
      <path fill="#4B4B4D" d="M9.31927273,4.8 C9.53163636,4.96145455 10.5978182,5.58545455 10.9192727,5.78472727 L11.0283636,5.86327273 L11.0807273,5.78327273 C11.1941818,5.59709091 11.2378182,5.44727273 10.9192727,5.248 C10.6007273,5.04872727 9.53454545,4.42472727 9.31927273,4.26181818 L8.97163636,3.98109091 C9.03787019,4.27256959 9.15559483,4.54988745 9.31927273,4.8"/>
      <path fill="#FFF" d="M9.53745455,7.35563636 C9.53745455,7.35563636 10.7127273,5.83418182 10.8261818,5.64654545 C10.9396364,5.45890909 10.9818182,5.30909091 10.6632727,5.10981818 C10.3447273,4.91054545 9.28,4.288 9.06327273,4.12509091 C8.84654545,3.96218182 8.89018182,3.36436364 9.51418182,3.23927273 C12.2162844,2.91322532 14.939546,2.79651411 17.6596364,2.89018182 C19.7672727,3.11418182 19.5767273,3.87636364 19.4923636,4.19927273 C19.3701818,4.67054545 18.6429091,5.38472727 17.4967273,6.42036364 C17.4967273,6.42036364 15.6058182,8.17890909 14.2167273,9.38909091 C12.8276364,10.5992727 8.39854545,14.3272727 7.54327273,15.0021818 C6.688,15.6770909 3.34545455,18.1585455 3.13163636,18.3272727 C2.91781818,18.496 2.30981818,18.9774545 1.97963636,18.6385455 C1.64945455,18.2996364 1.97963636,17.92 2.14690909,17.6872727 C2.31418182,17.4545455 9.03854545,7.96072727 9.53745455,7.36"/>
      <path fill="url(#brandicon-unicredit-b)" d="M19.3643636,3.46763636 C19.4585093,3.69820062 19.503111,3.94598773 19.4952727,4.19490909 C19.3730909,4.66618182 18.6458182,5.38036364 17.4996364,6.416 C17.4996364,6.416 15.6087273,8.17454545 14.2196364,9.38472727 C12.8305455,10.5949091 8.40145455,14.3229091 7.54618182,14.9978182 C6.69090909,15.6727273 3.34545455,18.1585455 3.13163636,18.3272727 C2.74218914,18.4800049 2.32663474,18.555111 1.90836364,18.5483636 C2.05535412,18.7285478 2.21686441,18.8963823 2.39127273,19.0501818 C2.73163636,19.3789091 3.32654545,18.9047273 3.54327273,18.7389091 C3.76,18.5730909 7.09672727,16.0858182 7.95781818,15.4181818 C8.81890909,14.7505455 13.2465455,11.0138182 14.6312727,9.80509091 C16.016,8.59636364 17.9112727,6.83636364 17.9112727,6.83636364 C19.0574545,5.80072727 19.6843636,5.23636364 19.8021818,4.76654545 C19.9353469,4.28639217 19.7624819,3.77355933 19.3658182,3.472"/>
    </g>
  </g>
</svg>
