<svg xmlns="http://www.w3.org/2000/svg" width="32" height="32" viewBox="0 0 32 32">
  <g fill="none" fill-rule="evenodd">
    <rect width="32" height="32" fill="#E1091D" fill-rule="nonzero"/>
    <path fill="#FFF" fill-rule="nonzero" d="M9.11366613,4.00047943 C9.5649547,4.01022187 10.1305989,4.09439875 10.2045319,4.53482714 L10.2126276,4.63476019 L10.212,14.658 L12.329,14.658 L12.3297209,4.63476019 C12.3297209,4.10690209 13.0063589,4.01093087 13.4409523,4.00048074 L13.9012632,4.00047943 C14.3067921,4.01022187 14.9227719,4.09439875 15.0036197,4.53482714 L15.0124817,4.63476019 L15.012,14.658 L17.059,14.658 L17.0591431,4.63476019 C17.0591431,4.10690209 17.7357811,4.01093087 18.1726436,4.00048074 L18.5603896,4.00047943 C18.9659357,4.01022187 19.5818982,4.09439875 19.6627635,4.53482714 L19.6716299,4.63476019 L19.671,14.658 L21.788,14.658 L21.7886441,4.63476019 C21.7886441,4.10690209 22.4652822,4.01093087 22.9021447,4.00048074 L23.2964541,4.00034471 C23.7556487,4.00942188 24.3769583,4.09223952 24.4045756,4.53440592 L24.401131,4.63476019 L24.401,14.658 L27.3653039,14.6587192 C27.8934077,14.6587192 27.989166,15.3353572 27.9995866,15.7699506 L28.0006399,15.8590381 L28.0006399,16.141161 C28.0006399,16.5647271 27.9302869,17.34148 27.3653039,17.34148 L27.3653039,17.34148 L24.401,17.341 L24.401131,27.364728 C24.401131,27.4983133 24.401131,27.8842733 23.5090895,27.9853025 L23.3422289,28.0000641 L22.9890422,28.0000641 C22.5937138,28.0000641 21.8907205,27.9387788 21.798745,27.4712553 L21.7887231,27.364728 L21.788,17.341 L19.671,17.341 L19.6714483,27.3908124 C19.6685432,27.5427344 19.6191568,27.8902161 18.7795884,27.9853025 L18.6127278,28.0000641 L18.259541,28.0000641 C17.8642126,28.0000641 17.1612193,27.9387788 17.0692439,27.4712553 L17.059222,27.364728 L17.059,17.341 L15.012,17.341 L15.0123002,27.3908124 C15.0093951,27.5427344 14.96001,27.8902161 14.1204624,27.9853025 L13.9536059,28.0000641 L13.5300399,28.0000641 C13.1347115,28.0000641 12.4317182,27.9387788 12.3397428,27.4712553 L12.3297209,27.364728 L12.329,17.341 L10.212,17.341 L10.212446,27.3908124 C10.209541,27.5427344 10.1601559,27.8902161 9.32060827,27.9853025 L9.15375182,28.0000641 L8.80053871,28.0000641 C8.40523492,28.0000641 7.70222033,27.9387788 7.61024196,27.4712553 L7.60021972,27.364728 L7.6,17.341 L4.6092579,17.3412984 C4.45737807,17.3383933 4.11007383,17.2890069 4.01480093,16.4494385 L4,16.2825779 L4,15.8590381 C4,15.4354721 4.06966842,14.6587192 4.63533599,14.6587192 L4.63533599,14.6587192 L7.6,14.658 L7.60016707,4.63476019 C7.60016707,4.10690209 8.21492352,4.01093087 8.7012913,4.00048074 L9.11366613,4.00047943 Z"/>
  </g>
</svg>
