<svg xmlns="http://www.w3.org/2000/svg" viewBox="0 0 32 32"><g fill="none" fill-rule="evenodd"><path fill="#FFF" d="M0 0h32v32H0z"/><path fill="#EA5A0A" d="M30.45 31.9L1.19 26.48A1.47 1.47 0 0 1 0 25.04V5.44C0 4.72.53 4.1 1.25 4l29.2-4c1.45 0 1.45.54 1.45 1.43V30.4c0 .92 0 1.51-1.45 1.51zM17.7 19.37v.4c-.04.28.36.37.36.37h1.44s.43-.06.43-.41V8.72h-1.87s-.39.06-.38.36c.02 1.35.01 2.7.01 4.06 0 .1 0 .2-.02.33-.94-1.06-2.44-1.03-3.4-.65a3.76 3.76 0 0 0-2.3 3.87c.1 1.48.73 2.66 2.13 3.28 1.28.57 2.51.47 3.6-.6zm-3.41-3c0-.99.7-1.69 1.7-1.69.97 0 1.64.72 1.64 1.72-.01.99-.74 1.73-1.7 1.73-.97-.01-1.65-.73-1.64-1.75zm10.37-1.62v-.3c0-1.8 0-3.59.02-5.37 0-.29-.1-.39-.36-.38h-1.85v11.6c.69 0 1.49.02 2.15 0 .03 0 .02-.18.02-.27.02-.63.01-1.26.01-1.9v-.74c.77.94 1.48 1.78 2.17 2.64.14.18.3.25.53.25.69-.02 1.38 0 2.07 0 .08 0 .16-.03.3-.04l-3.59-4.17 3.04-3.3-.44-.03c-.68 0-1.36.02-2.03 0-.29-.01-.47.09-.65.3-.43.56-.88 1.09-1.39 1.7zm-13.06-1.7c-.82 0-1.55.02-2.28 0-.25 0-.36.08-.44.28-.34.9-.7 1.78-1.06 2.66l-.6 1.47-.17-.38-1.54-3.74c-.05-.1-.16-.27-.25-.27-.78-.02-1.55-.01-2.36-.01l.05.2c1.05 2.27 2.1 4.55 3.17 6.83.05.1.22.19.34.2h1.42c.3.02.42-.08.53-.32.8-1.78 1.64-3.56 2.46-5.33l.73-1.58z"/></g></svg>