<svg width="93" height="30" xmlns="http://www.w3.org/2000/svg"><path d="M35.3.5l-12.2 29h-8L9.3 6.4c-.4-1.4-.7-2-1.8-2.6C5.6 2.8 2.6 2 0 1.4L.2.5H13c1.6 0 3 1.1 3.4 3l3.2 16.8L27.4.5h8zm31.1 19.6c0-7.7-10.6-8.1-10.5-11.5 0-1 1-2.2 3.2-2.5 1-.1 4-.2 7.4 1.3l1.3-6.1C66 .6 63.7 0 60.8 0 53.4 0 48 4 48 9.6c0 4.2 3.7 6.5 6.6 7.9 2.9 1.4 3.9 2.3 3.9 3.6 0 2-2.4 2.8-4.5 2.8-3.8 0-6-1-7.7-1.8L45 28.5c1.8.8 5 1.5 8.4 1.5 7.8 0 13-3.9 13-10zM86 29.5h7l-6-29h-6.5c-1.4 0-2.6.9-3.2 2.2L66 29.5h8l1.5-4.3h9.6l1 4.3zm-8.3-10.2l4-11 2.2 11h-6.2zM46 .5l-6.2 29h-7.5l6.2-29H46z" fill="#1A1F70"/></svg>
