<svg width="32" height="32" viewBox="0 0 32 32" xmlns="http://www.w3.org/2000/svg"><g fill="none" fill-rule="nonzero"><path fill="#ED1A3A" d="M0 0h32v32H0z"/><path d="M12.502 19.745s.366.974.699 1.034H8.557c-.863 0-1.626-.486-1.87-1.408l-2.116-7.343S4.344 11.141 4 11h4.38c.865 0 1.431.315 1.765 1.432l2.357 7.313zm6.995 0l2.359-7.313c.333-1.117.9-1.432 1.763-1.432H28c-.344.141-.572 1.028-.572 1.028l-2.115 7.343c-.244.922-1.007 1.408-1.87 1.408h-4.644c.332-.06.698-1.034.698-1.034zm-6.064-8.687h5.155v9.72h-5.155v-9.72z" fill="#FFF"/></g></svg>